<?xml version="1.0" encoding="UTF-8" standalone="no"?>
<!-- Created with Inkscape (http://www.inkscape.org/) -->
<svg
   xmlns:dc="http://purl.org/dc/elements/1.1/"
   xmlns:cc="http://creativecommons.org/ns#"
   xmlns:rdf="http://www.w3.org/1999/02/22-rdf-syntax-ns#"
   xmlns:svg="http://www.w3.org/2000/svg"
   xmlns="http://www.w3.org/2000/svg"
   xmlns:xlink="http://www.w3.org/1999/xlink"
   xmlns:sodipodi="http://sodipodi.sourceforge.net/DTD/sodipodi-0.dtd"
   xmlns:inkscape="http://www.inkscape.org/namespaces/inkscape"
   width="800"
   height="800"
   id="svg2"
   sodipodi:version="0.32"
   inkscape:version="0.46"
   sodipodi:docname="vector.svg"
   inkscape:output_extension="org.inkscape.output.svg.inkscape"
   version="1.0">
  <defs
     id="defs4">
    <inkscape:perspective
       sodipodi:type="inkscape:persp3d"
       inkscape:vp_x="0 : 526.18109 : 1"
       inkscape:vp_y="0 : 1000 : 0"
       inkscape:vp_z="744.09448 : 526.18109 : 1"
       inkscape:persp3d-origin="372.04724 : 350.78739 : 1"
       id="perspective10" />
    <inkscape:perspective
       id="perspective2606"
       inkscape:persp3d-origin="372.04724 : 350.78739 : 1"
       inkscape:vp_z="744.09448 : 526.18109 : 1"
       inkscape:vp_y="0 : 1000 : 0"
       inkscape:vp_x="0 : 526.18109 : 1"
       sodipodi:type="inkscape:persp3d" />
    <inkscape:perspective
       id="perspective2676"
       inkscape:persp3d-origin="372.04724 : 350.78739 : 1"
       inkscape:vp_z="744.09448 : 526.18109 : 1"
       inkscape:vp_y="0 : 1000 : 0"
       inkscape:vp_x="0 : 526.18109 : 1"
       sodipodi:type="inkscape:persp3d" />
  </defs>
  <sodipodi:namedview
     id="base"
     pagecolor="#ffffff"
     bordercolor="#666666"
     borderopacity="1.0"
     gridtolerance="10"
     guidetolerance="10"
     objecttolerance="10"
     inkscape:pageopacity="0.0"
     inkscape:pageshadow="2"
     inkscape:zoom="0.45254834"
     inkscape:cx="362.67449"
     inkscape:cy="465.63895"
     inkscape:document-units="px"
     inkscape:current-layer="layer2"
     showgrid="false"
     showborder="true"
     inkscape:snap-global="true"
     inkscape:snap-bbox="false"
     inkscape:object-paths="true"
     inkscape:object-nodes="true"
     inkscape:snap-nodes="true"
     inkscape:snap-intersection-line-segments="true"
     inkscape:snap-center="true"
     inkscape:window-width="1550"
     inkscape:window-height="1050"
     inkscape:window-x="33"
     inkscape:window-y="126"
     showguides="true"
     inkscape:guide-bbox="true"
     borderlayer="true"
     inkscape:showpageshadow="false" />
  <metadata
     id="metadata7">
    <rdf:RDF>
      <cc:Work
         rdf:about="">
        <dc:format>image/svg+xml</dc:format>
        <dc:type
           rdf:resource="http://purl.org/dc/dcmitype/StillImage" />
      </cc:Work>
    </rdf:RDF>
  </metadata>
  <g
     inkscape:label="Map"
     inkscape:groupmode="layer"
     id="layer1"
     style="display:inline">
    <image
       y="-122.98835"
       x="16.530861"
       id="image2608"
       height="1063.5685"
       width="765.72711"
       sodipodi:absref="/home/joe/wot/altara/ebou-dar/color.png"
       xlink:href="color.png" />
  </g>
  <g
     inkscape:groupmode="layer"
     id="layer2"
     inkscape:label="Water"
     style="display:inline">
    <path
       id="path2691"
       style="fill:#0000ff;fill-opacity:0.72477064;fill-rule:evenodd;stroke:none;stroke-width:1px;stroke-linecap:butt;stroke-linejoin:miter;stroke-opacity:1"
       d="M -2.2096612,924.47529 L 26.240339,897.68259 L 37.841239,868.40394 L 53.585439,853.21214 L 61.871839,835.81074 L 92.255339,815.09474 L 130.37284,751.28934 L 160.48014,676.43544 L 192.79714,645.22334 L 209.36994,640.25154 L 228.98104,625.61214 L 234.64174,609.97424 L 59.841839,555.61374 L 48.652539,224.01236 L 261.87484,214.34497 L 406.08734,187.52922 L 407.41504,173.17434 L 402.99564,161.57337 L 405.75774,140.85735 L 414.04414,122.35104 L 414.32034,107.15929 L 410.72964,98.596666 L 422.88304,78.985506 L 427.02624,65.174826 L 421.77814,32.305406 L 411.00584,15.732586 L 407.41504,-10.231488 L 415.42524,-37.852838 L 424.26404,-59.673708 L 424.54034,-88.676138 L 413.49174,-130.38439 L 465.97234,-128.4509 L 468.45824,-117.40235 L 474.25874,-101.65818 L 474.53494,-70.998468 L 488.62184,-40.614978 L 489.72674,-28.185368 L 501.32764,-1.9450837 L 486.68834,41.144236 L 490.00294,74.289876 L 484.20244,124.00832 L 498.84174,220.68307 L 506.02334,228.69326 L 789.73374,247.81604 L 793.21814,341.46794 L 788.29504,426.11914 L 748.91714,541.64604 L 678.65684,621.46894 L 685.28594,640.25154 L 719.53644,647.98544 L 733.34704,657.65294 L 752.95824,661.24374 L 761.79704,688.03644 L 773.39804,696.32284 L 787.48494,696.87534 L 788.58984,706.81894 L 777.54124,710.40974 L 775.33154,714.27674 L 789.97084,739.41214 L 788.03734,765.65244 L 784.44664,762.61414 L 774.77914,781.67284 L 780.02714,796.86464 L 768.70244,823.10494 L 766.49274,854.31704 L 770.63594,855.14564 L 794.39024,823.10494 L 791.62814,911.21709 L 782.51314,902.37829 L 776.71264,905.69279 L 769.53104,927.23749 L 748.81504,946.29619 L 730.58494,945.19139 L 739.14754,932.48549 L 739.14754,932.48549 L 743.01454,913.70299 L 738.04274,911.76949 L 720.36504,926.96129 L 684.18104,947.67729 L 41.984439,952.92529 L 40.327239,939.66709 L 32.317039,934.14279 L 9.943739,940.77189 L -2.2096612,924.47529 z M 67.396139,909.00739 L 71.815539,874.75689 L 63.252939,872.27099 L 52.204339,886.63409 L 50.270839,900.44479 L 33.974239,913.42679 L 30.659739,925.58019 L 48.613639,924.47529 L 60.490739,918.67489 L 67.396139,909.00739 z M 104.68494,823.93354 L 130.37284,799.90294 L 144.45974,772.83404 L 149.70774,802.94134 L 110.20924,829.73404 L 104.68494,823.93354 z M 154.95584,744.38404 L 167.93784,733.33544 L 173.73834,698.53254 L 157.71794,695.77044 L 154.95584,744.38404 z M 305.49224,573.13164 L 310.74034,573.13164 L 303.00634,586.38984 L 298.58694,584.18014 L 305.49224,573.13164 z M 334.77084,539.43354 L 342.50484,533.63304 L 349.41024,536.94764 L 335.32334,549.37724 L 334.77084,539.43354 z M 366.53544,483.63844 L 371.23104,488.05784 L 363.22084,498.55394 L 358.80144,495.51554 L 366.53544,483.63844 z M 479.23054,251.89524 L 481.71654,287.25054 L 496.35584,258.24814 L 479.23054,251.89524 z M 456.02864,157.98259 L 451.33304,207.97724 L 475.08734,175.93648 L 456.02864,157.98259 z M 450.50434,88.652976 L 465.69614,93.348606 L 453.54274,125.11318 L 450.50434,88.652976 z M 468.18204,73.461226 L 475.91604,93.348606 L 485.30724,80.642786 L 476.46844,65.727246 L 468.18204,73.461226 z M 461.55294,64.898606 C 462.38154,63.793756 469.01064,39.486956 469.01064,39.486956 L 456.58104,42.525306 L 461.55294,64.898606 z M 441.66554,-27.632948 L 455.75244,-22.661098 L 459.61944,25.676276 L 453.26654,32.581616 L 438.62714,18.770936 L 441.66554,-27.632948 z M 448.01844,-64.921768 L 438.35094,-47.244098 L 443.04664,-37.576628 L 450.22814,-32.880998 L 455.20004,-54.425658 L 448.01844,-64.921768 z M 619.82334,599.64814 L 649.10194,606.55344 L 663.18884,644.11854 L 659.04564,647.43304 L 636.11994,637.76554 L 624.51894,623.12624 L 615.95634,625.33594 L 610.15584,607.65834 L 621.20434,599.09564 L 619.82334,599.64814 z M 676.99954,650.19524 L 686.39074,656.54814 L 685.56214,669.80634 L 676.99954,650.19524 z M 724.23204,676.98794 L 731.68984,668.97774 L 742.46214,683.89324 L 738.87134,692.45584 L 724.23204,676.98794 z"
       sodipodi:nodetypes="cccccccccccccccccccccccccccccccccccccccccccccccccccccccccccccccccccccccccccccccccccccccccccccccccccccccccccccccccccccccccccccccccccccccccccccccccccccccccccccccccccccccccccc" />
    <path
       style="fill:none;fill-rule:evenodd;stroke:#000000;stroke-width:1px;stroke-linecap:butt;stroke-linejoin:miter;stroke-opacity:1"
       d="M 283.36054,228.58055 C 320.70924,217.80325 367.88164,214.22239 406.37484,208.80368"
       id="path3558"
       sodipodi:nodetypes="cc" />
  </g>
  <g
     inkscape:groupmode="layer"
     id="layer3"
     inkscape:label="City"
     style="display:inline">
    <g
       inkscape:groupmode="layer"
       id="layer5"
       inkscape:label="buildings">
      <path
         style="fill:#ff7f00;fill-opacity:0.49803922;fill-rule:evenodd;stroke:none;stroke-width:1px;stroke-linecap:butt;stroke-linejoin:miter;stroke-opacity:1"
         d="M 396.64274,265.15344 C 384.50744,262.16734 371.81514,260.40664 356.03934,265.42964 C 338.97084,287.60744 347.34164,300.88564 336.42814,325.64424 C 351.69054,324.21384 363.77994,329.12964 376.20294,333.37824 C 394.92034,310.04144 389.92524,288.11124 396.64274,265.15344 z"
         id="path3607"
         sodipodi:nodetypes="ccccc" />
      <path
         style="fill:#ff7f00;fill-opacity:0.49803922;fill-rule:evenodd;stroke:none;stroke-width:1px;stroke-linecap:butt;stroke-linejoin:miter;stroke-opacity:1"
         d="M 407.42454,212.67064 C 367.25754,217.64978 327.28404,220.93215 286.42454,231.45189 C 270.52964,259.46774 305.65704,288.48884 293.89334,325.07684 C 304.65094,329.68374 319.01914,325.88734 331.73704,325.92064 C 342.04684,299.69324 340.95214,280.98304 349.14334,263.48314 C 364.70324,257.19814 380.23954,256.60014 395.79954,256.85814 C 394.42484,240.74884 409.54234,230.39438 407.42454,212.67064 z M 324.42454,265.70184 L 333.51834,265.70184 L 333.51834,282.13944 L 324.42454,282.13944 L 324.42454,265.70184 z"
         id="path3609" />
      <path
         style="fill:#ff7f00;fill-opacity:0.49803922;fill-rule:evenodd;stroke:none;stroke-width:1px;stroke-linecap:butt;stroke-linejoin:miter;stroke-opacity:1"
         d="M 225.66654,236.70344 C 243.89664,237.29054 262.12674,237.73784 280.35684,232.56025 C 274.51054,269.80594 299.53124,273.06494 284.22374,325.09184 L 230.63834,331.99714 C 237.37874,295.92214 214.42664,256.87894 225.66654,236.70344 z"
         id="path3611"
         sodipodi:nodetypes="ccccc" />
      <path
         style="fill:#ff7f00;fill-opacity:0.49803922;fill-rule:evenodd;stroke:none;stroke-width:1px;stroke-linecap:butt;stroke-linejoin:miter;stroke-opacity:1"
         d="M 335.59954,330.06364 C 350.02844,330.39234 362.27014,335.09554 374.54564,339.73114 L 363.77334,385.30634 L 326.48444,379.22964 C 328.58984,362.75614 326.20344,345.87434 335.59954,330.06364 z"
         id="path3613"
         sodipodi:nodetypes="ccccc" />
      <path
         style="fill:#ff7f00;fill-opacity:0.49803922;fill-rule:evenodd;stroke:none;stroke-width:1px;stroke-linecap:butt;stroke-linejoin:miter;stroke-opacity:1"
         d="M 328.14174,331.99714 L 246.93494,335.03554 C 259.93574,344.20594 250.39484,368.91144 260.46944,382.54424 L 319.30294,381.43934 C 321.98664,364.91484 317.55634,347.20464 328.14174,331.99714 z"
         id="path3615"
         sodipodi:nodetypes="ccccc" />
      <path
         style="fill:#ff7f00;fill-opacity:0.49803922;fill-rule:evenodd;stroke:none;stroke-width:1px;stroke-linecap:butt;stroke-linejoin:miter;stroke-opacity:1"
         d="M 264.33644,388.89714 C 297.24094,388.52514 332.63114,380.28194 361.56364,392.48794 L 344.71454,437.51074 C 319.78074,445.22364 289.95594,439.48654 262.40294,439.99664 L 264.33644,388.89714 z"
         id="path3617"
         sodipodi:nodetypes="ccccc" />
      <path
         style="fill:#ff7f00;fill-opacity:0.49803922;fill-rule:evenodd;stroke:none;stroke-width:1px;stroke-linecap:butt;stroke-linejoin:miter;stroke-opacity:1"
         d="M 212.13204,418.72824 C 222.60314,402.83034 238.29474,389.45884 258.25974,388.89714 L 256.87864,441.37774 C 235.44594,439.62094 220.30724,432.26944 212.13204,418.72824 z"
         id="path3619"
         sodipodi:nodetypes="cccc" />
      <path
         style="fill:#ff7f00;fill-opacity:0.49803922;fill-rule:evenodd;stroke:none;stroke-width:1px;stroke-linecap:butt;stroke-linejoin:miter;stroke-opacity:1"
         d="M 158.27044,371.77194 C 207.42824,359.70614 182.06294,345.81094 243.62044,334.48304 C 245.14264,346.73614 244.49574,362.34134 255.77374,383.37284 C 222.02564,384.05154 210.17164,417.50194 173.46214,440.82534 C 171.44484,416.89354 167.60934,393.50724 158.27044,371.77194 z"
         id="path3621"
         sodipodi:nodetypes="ccccc" />
      <path
         style="fill:#ff7f00;fill-opacity:0.49803922;fill-rule:evenodd;stroke:none;stroke-width:1px;stroke-linecap:butt;stroke-linejoin:miter;stroke-opacity:1"
         d="M 143.35484,243.88504 C 166.10924,238.46714 189.73884,234.02151 219.03734,235.87481 C 213.93584,271.32664 235.48094,305.88284 221.24714,333.10204 C 189.35524,341.16174 194.21614,354.64774 159.92764,366.52384 C 143.71964,325.13764 139.88034,287.26584 143.35484,243.88504 z"
         id="path3623"
         sodipodi:nodetypes="ccccc" />
      <path
         style="fill:#ff7f00;fill-opacity:0.49803922;fill-rule:evenodd;stroke:none;stroke-width:1px;stroke-linecap:butt;stroke-linejoin:miter;stroke-opacity:1"
         d="M 76.234939,257.41944 C 93.702239,251.47874 102.09024,239.48514 133.41114,242.78014 C 140.18104,260.08814 131.47944,275.35684 139.69134,307.86814 C 144.72754,327.80674 148.53054,348.71624 151.64124,367.90494 C 129.29634,367.10824 137.69854,384.32434 95.293739,380.88694 C 91.595539,356.16064 81.904239,339.35784 78.825839,323.52654 C 74.292639,300.21444 83.442539,292.75904 76.234939,257.41944 z"
         id="path3625"
         sodipodi:nodetypes="ccsccsc" />
      <path
         style="fill:#ff7f00;fill-opacity:0.49803922;fill-rule:evenodd;stroke:none;stroke-width:1px;stroke-linecap:butt;stroke-linejoin:miter;stroke-opacity:1"
         d="M 96.674739,390.00204 C 139.63414,382.04144 134.68774,375.06084 151.91744,373.70544 C 172.43494,420.22274 162.99004,449.20884 162.68984,483.63834 L 105.23734,488.61024 L 96.674739,390.00204 z"
         id="path3627"
         sodipodi:nodetypes="ccccc" />
      <path
         style="fill:#ff7f00;fill-opacity:0.49803922;fill-rule:evenodd;stroke:none;stroke-width:1px;stroke-linecap:butt;stroke-linejoin:miter;stroke-opacity:1"
         d="M 250.80194,448.83544 C 221.67154,447.61154 216.78464,434.75084 204.67424,425.35734 L 173.46214,449.11174 L 168.49034,483.36214 L 188.10144,515.40294 L 248.03974,511.53604 C 247.79894,486.69594 243.27464,460.25774 250.80194,448.83544 z"
         id="path3629"
         sodipodi:nodetypes="ccccccc" />
      <path
         style="fill:#ff7f00;fill-opacity:0.49803922;fill-rule:evenodd;stroke:none;stroke-width:1px;stroke-linecap:butt;stroke-linejoin:miter;stroke-opacity:1"
         d="M 261.29804,445.79714 L 341.67624,446.07334 L 343.27554,474.27594 L 338.36164,502.97334 L 254.94514,510.98354 C 251.68194,479.50204 252.79414,455.95074 261.29804,445.79714 z"
         id="path3631"
         sodipodi:nodetypes="cccccc" />
      <path
         style="fill:#ff7f00;fill-opacity:0.49803922;fill-rule:evenodd;stroke:none;stroke-width:1px;stroke-linecap:butt;stroke-linejoin:miter;stroke-opacity:1"
         d="M 257.70724,517.06024 L 334.49464,507.66894 C 333.67184,520.13754 312.58894,525.59004 298.96184,538.69474 C 289.61274,547.68554 298.00564,566.90684 283.67134,573.68404 L 244.17284,559.59714 C 248.75104,545.58124 259.26444,546.07364 257.70724,517.06024 z"
         id="path3633"
         sodipodi:nodetypes="ccsccc" />
      <path
         style="fill:#ff7f00;fill-opacity:0.49803922;fill-rule:evenodd;stroke:none;stroke-width:1px;stroke-linecap:butt;stroke-linejoin:miter;stroke-opacity:1"
         d="M 186.99664,522.86074 L 249.42084,520.65104 C 248.54144,533.38524 251.68674,545.89584 238.37234,559.32094 C 220.56204,547.63164 184.39904,548.37474 186.99664,522.86074 z"
         id="path3635"
         sodipodi:nodetypes="cccc" />
      <path
         style="fill:#ff7f00;fill-opacity:0.49803922;fill-rule:evenodd;stroke:none;stroke-width:1px;stroke-linecap:butt;stroke-linejoin:miter;stroke-opacity:1"
         d="M 404.10044,186.98502 L 266.82234,205.76753 L 272.89904,228.41705 C 317.18524,215.67968 361.47154,210.52265 405.75774,204.11025 L 404.10044,186.98502 z"
         id="path3637"
         sodipodi:nodetypes="ccccc" />
      <path
         style="fill:#ff7f00;fill-opacity:0.49803922;fill-rule:evenodd;stroke:none;stroke-width:1px;stroke-linecap:butt;stroke-linejoin:miter;stroke-opacity:1"
         d="M 256.61204,206.32689 L 148.61204,214.32689 C 115.00124,217.34603 79.992239,214.76024 47.799539,223.45189 L 54.955739,389.17064 L 57.174539,554.35814 L 162.95574,585.54564 L 237.26834,609.57684 C 243.98344,593.50064 269.87334,597.29664 275.39334,581.70184 C 243.26054,562.27494 173.30064,560.50334 178.98704,523.42064 L 104.14334,532.51444 L 104.14334,521.76444 C 164.85124,523.22754 160.77334,518.50904 179.26834,515.95184 C 187.69604,461.91364 103.15464,510.19284 97.768337,489.70184 C 93.718739,474.29704 99.678437,458.04684 95.924539,423.10814 C 90.671239,374.21414 70.509539,330.96054 73.112039,297.57684 C 75.542039,266.40724 67.641439,258.52144 69.330739,256.04564 C 88.306939,228.23662 198.67894,233.00805 264.04954,229.23314 L 256.61204,206.32689 z M 80.455739,488.13944 L 89.143339,488.20184 C 94.422739,503.92184 91.753739,516.44424 92.049539,530.17064 L 82.799539,530.38944 L 80.455739,488.13944 z M 138.11204,547.45184 L 162.42454,547.45184 L 162.42454,560.13944 L 138.11204,560.13944 L 138.11204,547.45184 z"
         id="path3639" />
      <path
         sodipodi:nodetypes="ccccc"
         id="path3650"
         d="M 396.64274,265.15344 C 384.50744,262.16734 371.81514,260.40664 356.03934,265.42964 C 338.97084,287.60744 347.34164,300.88564 336.42814,325.64424 C 351.69054,324.21384 363.77994,329.12964 376.20294,333.37824 C 394.92034,310.04144 389.92524,288.11124 396.64274,265.15344 z"
         style="fill:#ffffff;fill-opacity:0;fill-rule:evenodd;stroke:none;stroke-width:1px;stroke-linecap:butt;stroke-linejoin:miter;stroke-opacity:1" />
      <path
         id="path3652"
         d="M 407.42454,212.67064 C 367.25754,217.64978 327.28404,220.93215 286.42454,231.45189 C 270.52964,259.46774 305.65704,288.48884 293.89334,325.07684 C 304.65094,329.68374 319.01914,325.88734 331.73704,325.92064 C 342.04684,299.69324 340.95214,280.98304 349.14334,263.48314 C 364.70324,257.19814 380.23954,256.60014 395.79954,256.85814 C 394.42484,240.74884 409.54234,230.39438 407.42454,212.67064 z M 324.42454,265.70184 L 333.51834,265.70184 L 333.51834,282.13944 L 324.42454,282.13944 L 324.42454,265.70184 z"
         style="fill:#ffffff;fill-opacity:0;fill-rule:evenodd;stroke:none;stroke-width:1px;stroke-linecap:butt;stroke-linejoin:miter;stroke-opacity:1" />
      <path
         sodipodi:nodetypes="ccccc"
         id="path3654"
         d="M 225.66654,236.70344 C 243.89664,237.29054 262.12674,237.73784 280.35684,232.56025 C 274.51054,269.80594 299.53124,273.06494 284.22374,325.09184 L 230.63834,331.99714 C 237.37874,295.92214 214.42664,256.87894 225.66654,236.70344 z"
         style="fill:#ffffff;fill-opacity:0;fill-rule:evenodd;stroke:none;stroke-width:1px;stroke-linecap:butt;stroke-linejoin:miter;stroke-opacity:1" />
      <path
         sodipodi:nodetypes="ccccc"
         id="path3656"
         d="M 335.59954,330.06364 C 350.02844,330.39234 362.27014,335.09554 374.54564,339.73114 L 363.77334,385.30634 L 326.48444,379.22964 C 328.58984,362.75614 326.20344,345.87434 335.59954,330.06364 z"
         style="fill:#ffffff;fill-opacity:0;fill-rule:evenodd;stroke:none;stroke-width:1px;stroke-linecap:butt;stroke-linejoin:miter;stroke-opacity:1" />
      <path
         sodipodi:nodetypes="ccccc"
         id="path3658"
         d="M 328.14174,331.99714 L 246.93494,335.03554 C 259.93574,344.20594 250.39484,368.91144 260.46944,382.54424 L 319.30294,381.43934 C 321.98664,364.91484 317.55634,347.20464 328.14174,331.99714 z"
         style="fill:#ffffff;fill-opacity:0;fill-rule:evenodd;stroke:none;stroke-width:1px;stroke-linecap:butt;stroke-linejoin:miter;stroke-opacity:1" />
      <path
         sodipodi:nodetypes="ccccc"
         id="path3660"
         d="M 264.33644,388.89714 C 297.24094,388.52514 332.63114,380.28194 361.56364,392.48794 L 344.71454,437.51074 C 319.78074,445.22364 289.95594,439.48654 262.40294,439.99664 L 264.33644,388.89714 z"
         style="fill:#ffffff;fill-opacity:0;fill-rule:evenodd;stroke:none;stroke-width:1px;stroke-linecap:butt;stroke-linejoin:miter;stroke-opacity:1" />
      <path
         sodipodi:nodetypes="cccc"
         id="path3662"
         d="M 212.13204,418.72824 C 222.60314,402.83034 238.29474,389.45884 258.25974,388.89714 L 256.87864,441.37774 C 235.44594,439.62094 220.30724,432.26944 212.13204,418.72824 z"
         style="fill:#ffffff;fill-opacity:0;fill-rule:evenodd;stroke:none;stroke-width:1px;stroke-linecap:butt;stroke-linejoin:miter;stroke-opacity:1" />
      <path
         sodipodi:nodetypes="ccccc"
         id="path3664"
         d="M 158.27044,371.77194 C 207.42824,359.70614 182.06294,345.81094 243.62044,334.48304 C 245.14264,346.73614 244.49574,362.34134 255.77374,383.37284 C 222.02564,384.05154 210.17164,417.50194 173.46214,440.82534 C 171.44484,416.89354 167.60934,393.50724 158.27044,371.77194 z"
         style="fill:#ffffff;fill-opacity:0;fill-rule:evenodd;stroke:none;stroke-width:1px;stroke-linecap:butt;stroke-linejoin:miter;stroke-opacity:1" />
      <path
         sodipodi:nodetypes="ccccc"
         id="path3666"
         d="M 143.35484,243.88504 C 166.10924,238.46714 189.73884,234.02151 219.03734,235.87481 C 213.93584,271.32664 235.48094,305.88284 221.24714,333.10204 C 189.35524,341.16174 194.21614,354.64774 159.92764,366.52384 C 143.71964,325.13764 139.88034,287.26584 143.35484,243.88504 z"
         style="fill:#ffffff;fill-opacity:0;fill-rule:evenodd;stroke:none;stroke-width:1px;stroke-linecap:butt;stroke-linejoin:miter;stroke-opacity:1" />
      <path
         sodipodi:nodetypes="ccsccsc"
         id="path3668"
         d="M 76.234939,257.41944 C 93.702239,251.47874 102.09024,239.48514 133.41114,242.78014 C 140.18104,260.08814 131.47944,275.35684 139.69134,307.86814 C 144.72754,327.80674 148.53054,348.71624 151.64124,367.90494 C 129.29634,367.10824 137.69854,384.32434 95.293739,380.88694 C 91.595539,356.16064 81.904239,339.35784 78.825839,323.52654 C 74.292639,300.21444 83.442539,292.75904 76.234939,257.41944 z"
         style="fill:#ffffff;fill-opacity:0;fill-rule:evenodd;stroke:none;stroke-width:1px;stroke-linecap:butt;stroke-linejoin:miter;stroke-opacity:1" />
      <path
         sodipodi:nodetypes="ccccc"
         id="path3670"
         d="M 96.674739,390.00204 C 139.63414,382.04144 134.68774,375.06084 151.91744,373.70544 C 172.43494,420.22274 162.99004,449.20884 162.68984,483.63834 L 105.23734,488.61024 L 96.674739,390.00204 z"
         style="fill:#ffffff;fill-opacity:0;fill-rule:evenodd;stroke:none;stroke-width:1px;stroke-linecap:butt;stroke-linejoin:miter;stroke-opacity:1" />
      <path
         sodipodi:nodetypes="ccccccc"
         id="path3672"
         d="M 250.80194,448.83544 C 221.67154,447.61154 216.78464,434.75084 204.67424,425.35734 L 173.46214,449.11174 L 168.49034,483.36214 L 188.10144,515.40294 L 248.03974,511.53604 C 247.79894,486.69594 243.27464,460.25774 250.80194,448.83544 z"
         style="fill:#ffffff;fill-opacity:0;fill-rule:evenodd;stroke:none;stroke-width:1px;stroke-linecap:butt;stroke-linejoin:miter;stroke-opacity:1" />
      <path
         sodipodi:nodetypes="cccccc"
         id="path3674"
         d="M 261.29804,445.79714 L 341.67624,446.07334 L 343.27554,474.27594 L 338.36164,502.97334 L 254.94514,510.98354 C 251.68194,479.50204 252.79414,455.95074 261.29804,445.79714 z"
         style="fill:#ffffff;fill-opacity:0;fill-rule:evenodd;stroke:none;stroke-width:1px;stroke-linecap:butt;stroke-linejoin:miter;stroke-opacity:1" />
      <path
         sodipodi:nodetypes="ccsccc"
         id="path3676"
         d="M 257.70724,517.06024 L 334.49464,507.66894 C 333.67184,520.13754 312.58894,525.59004 298.96184,538.69474 C 289.61274,547.68554 298.00564,566.90684 283.67134,573.68404 L 244.17284,559.59714 C 248.75104,545.58124 259.26444,546.07364 257.70724,517.06024 z"
         style="fill:#ffffff;fill-opacity:0;fill-rule:evenodd;stroke:none;stroke-width:1px;stroke-linecap:butt;stroke-linejoin:miter;stroke-opacity:1" />
      <path
         sodipodi:nodetypes="cccc"
         id="path3678"
         d="M 186.99664,522.86074 L 249.42084,520.65104 C 248.54144,533.38524 251.68674,545.89584 238.37234,559.32094 C 220.56204,547.63164 184.39904,548.37474 186.99664,522.86074 z"
         style="fill:#ffffff;fill-opacity:0;fill-rule:evenodd;stroke:none;stroke-width:1px;stroke-linecap:butt;stroke-linejoin:miter;stroke-opacity:1" />
      <path
         sodipodi:nodetypes="ccccc"
         id="path3680"
         d="M 404.10044,186.98502 L 266.82234,205.76753 L 272.89904,228.41705 C 317.18524,215.67968 361.47154,210.52265 405.75774,204.11025 L 404.10044,186.98502 z"
         style="fill:#ffffff;fill-opacity:0;fill-rule:evenodd;stroke:none;stroke-width:1px;stroke-linecap:butt;stroke-linejoin:miter;stroke-opacity:1" />
      <path
         id="path3682"
         d="M 256.61204,206.32689 L 148.61204,214.32689 C 115.00124,217.34603 79.992239,214.76024 47.799539,223.45189 L 54.955739,389.17064 L 57.174539,554.35814 L 162.95574,585.54564 L 237.26834,609.57684 C 243.98344,593.50064 269.87334,597.29664 275.39334,581.70184 C 243.26054,562.27494 173.30064,560.50334 178.98704,523.42064 L 104.14334,532.51444 L 104.14334,521.76444 C 164.85124,523.22754 160.77334,518.50904 179.26834,515.95184 C 187.69604,461.91364 103.15464,510.19284 97.768337,489.70184 C 93.718739,474.29704 99.678437,458.04684 95.924539,423.10814 C 90.671239,374.21414 70.509539,330.96054 73.112039,297.57684 C 75.542039,266.40724 67.641439,258.52144 69.330739,256.04564 C 88.306939,228.23662 198.67894,233.00805 264.04954,229.23314 L 256.61204,206.32689 z M 80.455739,488.13944 L 89.143339,488.20184 C 94.422739,503.92184 91.753739,516.44424 92.049539,530.17064 L 82.799539,530.38944 L 80.455739,488.13944 z M 138.11204,547.45184 L 162.42454,547.45184 L 162.42454,560.13944 L 138.11204,560.13944 L 138.11204,547.45184 z"
         style="fill:#ffffff;fill-opacity:0;fill-rule:evenodd;stroke:none;stroke-width:1px;stroke-linecap:butt;stroke-linejoin:miter;stroke-opacity:1" />
      <path
         style="fill:none;fill-rule:evenodd;stroke:#000000;stroke-width:1px;stroke-linecap:butt;stroke-linejoin:miter;stroke-opacity:1"
         d="M 311.47144,163.12658 C 308.77544,154.94773 323.61464,140.00666 331.78394,142.03283 C 339.95324,144.059 344.69674,161.66561 339.20584,167.81408 C 333.71494,173.96255 314.16744,171.30543 311.47144,163.12658 z"
         id="path2536"
         sodipodi:nodetypes="czzz" />
      <path
         style="fill:none;fill-rule:evenodd;stroke:#000000;stroke-width:1px;stroke-linecap:butt;stroke-linejoin:miter;stroke-opacity:1"
         d="M 19.283939,292.03284 C 27.074939,293.40424 29.094339,312.94094 24.362039,317.81404 C 19.629739,322.68714 8.463639,320.88484 5.6120388,314.68904 C 2.7604388,308.49324 11.492939,290.66144 19.283939,292.03284 z"
         id="path2538"
         sodipodi:nodetypes="czzz" />
      <path
         style="fill:none;fill-rule:evenodd;stroke:#000000;stroke-width:1px;stroke-linecap:butt;stroke-linejoin:miter;stroke-opacity:1"
         d="M 74.362039,600.23594 C 57.881639,600.66814 50.865339,620.71244 59.908939,630.31404 C 68.952539,639.91564 87.681339,636.39834 91.940139,627.18904 C 96.198939,617.97974 90.842439,599.80374 74.362039,600.23594 z"
         id="path2540"
         sodipodi:nodetypes="czzz" />
    </g>
  </g>
</svg>
