<?xml version="1.0" encoding="UTF-8" standalone="no"?>
<!-- Created with Inkscape (http://www.inkscape.org/) -->
<svg
   xmlns:dc="http://purl.org/dc/elements/1.1/"
   xmlns:cc="http://creativecommons.org/ns#"
   xmlns:rdf="http://www.w3.org/1999/02/22-rdf-syntax-ns#"
   xmlns:svg="http://www.w3.org/2000/svg"
   xmlns="http://www.w3.org/2000/svg"
   xmlns:xlink="http://www.w3.org/1999/xlink"
   xmlns:sodipodi="http://sodipodi.sourceforge.net/DTD/sodipodi-0.dtd"
   xmlns:inkscape="http://www.inkscape.org/namespaces/inkscape"
   width="744.09448"
   height="1052.3622"
   id="svg8656"
   sodipodi:version="0.32"
   inkscape:version="0.46"
   sodipodi:docname="vector.svg"
   inkscape:output_extension="org.inkscape.output.svg.inkscape"
   version="1.0">
  <defs
     id="defs8658">
    <inkscape:perspective
       sodipodi:type="inkscape:persp3d"
       inkscape:vp_x="0 : 526.18109 : 1"
       inkscape:vp_y="0 : 1000 : 0"
       inkscape:vp_z="744.09448 : 526.18109 : 1"
       inkscape:persp3d-origin="372.04724 : 350.78739 : 1"
       id="perspective8664" />
  </defs>
  <sodipodi:namedview
     id="base"
     pagecolor="#ffffff"
     bordercolor="#666666"
     borderopacity="1.0"
     gridtolerance="10"
     guidetolerance="10"
     objecttolerance="10"
     inkscape:pageopacity="0.0"
     inkscape:pageshadow="2"
     inkscape:zoom="20.48"
     inkscape:cx="131.77047"
     inkscape:cy="822.25732"
     inkscape:document-units="px"
     inkscape:current-layer="layer8"
     showgrid="false"
     inkscape:window-width="1334"
     inkscape:window-height="992"
     inkscape:window-x="282"
     inkscape:window-y="0"
     inkscape:snap-bbox="false"
     inkscape:object-paths="true"
     inkscape:object-nodes="true"
     inkscape:snap-intersection-line-segments="true"
     inkscape:snap-center="true"
     showborder="false"
     inkscape:showpageshadow="true" />
  <metadata
     id="metadata8661">
    <rdf:RDF>
      <cc:Work
         rdf:about="">
        <dc:format>image/svg+xml</dc:format>
        <dc:type
           rdf:resource="http://purl.org/dc/dcmitype/StillImage" />
      </cc:Work>
    </rdf:RDF>
  </metadata>
  <g
     inkscape:groupmode="layer"
     id="layer8"
     inkscape:label="bg"
     sodipodi:insensitive="true"
     style="display:inline">
    <rect
       style="fill:#007f00;fill-opacity:1;stroke:none;stroke-width:0.05000000000000000;stroke-linecap:butt;stroke-linejoin:miter;stroke-miterlimit:4;stroke-dasharray:none;stroke-dashoffset:0;stroke-opacity:1;display:inline"
       id="rect3394"
       width="43.184277"
       height="48.671062"
       x="108.31888"
       y="204.02463" />
  </g>
  <g
     inkscape:label="Picture"
     inkscape:groupmode="layer"
     id="layer1"
     style="display:none"
     sodipodi:insensitive="true">
    <image
       style="display:inline"
       y="113.74839"
       x="209.24976"
       id="image3859"
       height="45.982891"
       width="30.341463"
       sodipodi:absref="/home/joe/wot/far-madding.jpg"
       xlink:href="bw.jpg"
       transform="matrix(0.8717884,0.4898826,-0.4898826,0.8717884,0,0)" />
  </g>
  <g
     inkscape:groupmode="layer"
     id="layer2"
     inkscape:label="Water"
     style="display:inline"
     sodipodi:insensitive="true">
    <path
       style="fill:#0000ff;fill-opacity:0.49803922;fill-rule:evenodd;stroke:#0000ff;stroke-width:0.017;stroke-linecap:butt;stroke-linejoin:miter;stroke-miterlimit:4;stroke-dasharray:none;stroke-opacity:1;display:inline"
       d="M 130.75686,206.21207 L 129.60546,205.69647 C 129.60546,205.69647 130.13256,208.35167 130.32086,209.52097 C 130.42926,210.19467 130.63576,211.04097 130.74136,211.64047 C 130.83896,212.19397 130.81356,212.99107 130.95726,213.53447 C 131.10026,214.07537 131.34896,214.75757 131.69496,215.31487 C 131.83146,215.53497 131.98576,215.74967 132.12136,215.83777 C 132.20936,215.89497 132.14686,216.08487 132.09816,216.17787 C 132.03436,216.29957 131.80106,216.39107 131.66676,216.42057 C 131.52136,216.45247 131.20896,216.39507 130.93166,216.45677 C 130.72816,216.50207 130.54756,216.57827 130.43916,216.59187 C 130.21706,216.61937 130.28726,216.46437 130.07126,216.52277 C 129.81656,216.59147 129.51756,216.82517 129.25486,216.84957 C 128.88996,216.88367 128.43436,216.62707 128.07376,216.69207 C 127.78456,216.74417 127.58106,216.89147 127.31506,217.01627 C 127.10686,217.11397 126.78766,217.39657 126.53846,217.46137 C 126.28926,217.52607 126.00836,217.44537 125.78036,217.48587 C 125.60076,217.51777 125.36096,217.69007 125.14366,217.73917 C 124.94346,217.78427 124.76726,217.71527 124.61046,217.77527 C 124.25286,217.91187 123.94226,218.38207 123.56036,218.35547 C 123.33956,218.34007 122.67436,218.05277 122.42086,217.74487 C 122.24296,217.52857 122.13166,217.11097 122.08356,216.83497 C 122.03076,216.53217 122.15446,216.16907 122.15516,215.86167 C 122.15566,215.61287 122.01796,215.09397 121.95386,214.85357 C 121.81566,214.33507 121.57706,213.87777 121.31116,213.41177 C 121.17816,213.17857 120.88976,212.62927 120.88976,212.62927 L 120.59556,213.07497 C 120.59556,213.07497 121.16076,213.50627 121.41916,214.17297 C 121.53236,214.46497 121.80966,214.91647 121.85946,215.57947 C 121.88406,215.90527 121.72056,216.39787 121.73096,216.72437 C 121.74156,217.05947 121.94586,217.54067 122.11326,217.83117 C 122.35446,218.24967 123.20616,218.44247 123.15806,218.92317 C 123.13426,219.16197 122.63096,219.16267 122.48106,219.35017 C 122.27146,219.61247 122.16426,220.10607 122.18156,220.35447 C 122.19376,220.52867 122.14166,220.80257 121.98226,220.87397 C 121.81676,220.94797 121.48746,220.98037 121.32146,220.90757 C 120.99916,220.76587 120.51356,220.27627 120.22066,220.08087 C 119.78886,219.79297 119.14336,219.66347 118.72976,219.34987 C 118.42636,219.11997 117.93856,218.34687 117.93856,218.34687 L 117.84686,218.66607 C 117.84686,218.66607 118.34656,219.36407 118.64326,219.60617 C 119.01716,219.91147 119.61026,219.98307 120.03666,220.20957 C 120.23906,220.31707 120.51806,220.59637 120.81106,220.81207 C 121.13236,221.04857 121.40706,221.09327 121.42556,221.32957 C 121.44846,221.61997 120.66106,221.43287 120.04556,222.14347 C 119.31086,222.99157 119.61636,223.56827 119.30526,223.63107 C 119.05146,223.68217 118.66166,222.90587 118.28146,222.72787 C 118.02526,222.60797 117.68056,222.64077 117.37536,222.59157 C 117.10546,222.54817 116.87606,222.41707 116.62666,222.39737 C 116.39306,222.37887 115.80886,222.40937 115.80886,222.40937 L 115.72396,222.81847 C 115.72396,222.81847 116.21176,222.58487 116.67706,222.59417 C 116.90666,222.59887 117.09236,222.74687 117.32456,222.79627 C 117.66716,222.86927 118.02966,222.79207 118.25446,222.89237 C 118.47916,222.99257 118.31996,223.10687 118.83046,223.51047 C 118.95146,223.60607 119.08726,223.69797 119.08566,223.83957 C 119.08146,224.20777 118.57206,224.19027 118.40736,224.51947 C 118.18566,224.96257 118.22796,226.05577 118.07276,226.52627 C 118.01756,226.69367 117.89566,226.55727 117.77836,226.72627 C 117.70926,226.82567 117.73916,227.02247 117.66906,227.09877 C 117.16046,227.65137 116.01976,228.01287 115.51886,228.91067 C 115.38456,229.15137 115.51036,229.24817 115.40066,229.55697 C 115.28186,229.89137 115.04076,230.09707 115.03076,230.39537 C 115.01566,230.84407 115.17546,231.55337 115.40026,232.05347 C 115.66036,232.63257 115.98606,233.00327 115.87706,233.51147 C 115.80176,233.86287 115.21416,234.09127 115.11676,234.43707 C 114.98656,234.89977 115.11596,235.49957 115.37396,235.90497 C 115.56426,236.20417 115.99016,236.47497 116.32376,236.59497 C 116.85856,236.78707 117.70326,236.90997 118.37466,236.92467 C 118.74366,236.93267 118.84326,236.87257 119.14826,237.04517 C 119.14826,237.04517 119.24196,237.26417 119.24196,237.26417 C 119.21516,237.50997 118.95346,237.86767 118.76216,238.04657 C 118.59896,238.19897 118.30776,238.43767 118.00696,238.60057 C 117.84036,238.69077 117.71366,238.81947 117.60796,238.88357 C 117.18056,239.14277 116.86566,239.20957 116.70106,239.68127 C 116.53986,240.14317 116.58196,240.89427 116.70006,241.36887 C 116.81126,241.81537 117.05656,242.52317 117.36406,242.86527 C 117.49756,243.01387 117.83156,243.02647 117.94436,243.19137 C 118.08216,243.39307 118.01576,243.48137 118.14906,243.68607 C 118.35806,244.00677 119.02236,244.33707 119.35376,244.52847 C 119.57276,244.65487 119.74166,244.55467 119.91416,244.59457 C 120.05556,244.62737 120.13036,244.74837 120.26196,244.78087 C 120.63046,244.87157 120.94486,244.95527 121.32426,244.95427 C 121.67816,244.95347 122.16016,244.67537 122.46686,244.85197 C 122.60046,244.92897 122.64406,245.06137 122.75486,245.16867 C 122.85456,245.26537 123.00006,245.38307 123.09196,245.48717 C 123.30046,245.72357 123.10766,246.28207 123.32356,246.51167 C 124.65246,247.92437 127.59506,248.44727 129.53046,248.31937 C 129.98606,248.28927 130.46896,247.75317 130.92306,247.70517 C 131.29826,247.66547 131.77806,247.98167 132.14286,247.88507 C 132.25966,247.85417 132.39086,247.79557 132.45676,247.69427 C 132.60966,247.45987 132.49846,246.79057 132.64226,246.55037 C 132.82426,246.24637 133.35286,246.15507 133.52016,245.84257 C 133.72886,245.45277 133.77476,244.96377 133.64106,244.54227 C 133.44786,243.93257 132.50056,243.40547 132.00456,243.00167 C 131.65586,242.71767 131.51116,242.47747 131.13256,242.15677 C 131.05956,242.09507 130.81716,242.11417 130.76626,242.04417 C 130.71026,241.96727 130.60836,241.93997 130.59296,241.84617 C 130.53466,241.49037 130.86756,241.04587 131.20006,240.90637 C 131.20006,240.90637 131.43096,240.86877 131.43096,240.86877 C 131.48646,240.87317 131.59896,240.86707 131.68066,240.89847 C 131.98306,240.91127 132.99766,241.13427 133.48396,241.19097 C 134.09536,241.26227 134.75586,241.38987 135.35596,241.25317 C 135.69766,241.17537 136.17246,240.99517 136.43756,240.76607 C 136.67226,240.56337 136.85376,240.25567 137.07676,239.97787 C 137.23246,239.78387 137.44446,239.62447 137.55656,239.43947 C 137.70816,239.18927 137.89656,238.78877 137.97166,238.50617 C 138.07806,238.10627 137.76846,237.91047 137.86456,237.68307 C 137.91456,237.56497 138.04086,237.43997 138.09446,237.32347 C 138.17986,237.13757 138.14256,236.92807 138.18296,236.72747 C 138.20566,236.61507 138.32036,236.49077 138.33606,236.37717 C 138.36056,236.19967 138.25846,236.02717 138.28706,235.85037 C 138.30446,235.74317 138.32946,235.59487 138.40606,235.51777 C 138.52926,235.39387 138.65406,235.35117 138.79756,235.27677 C 139.12336,235.10797 139.50706,234.91677 139.84396,234.70757 C 140.01326,234.60227 140.10776,234.55517 140.21966,234.39027 C 140.40676,234.11477 140.50516,234.33097 140.76096,233.89937 C 140.94016,233.59707 140.64326,232.96567 140.76586,232.63627 C 140.81546,232.50317 140.97826,232.48427 141.10356,232.36927 C 141.24066,232.24347 141.32006,232.00507 141.44726,231.92787 C 141.62726,231.81867 141.95126,231.89257 142.13546,231.79057 C 142.23846,231.73367 142.25606,231.63387 142.30766,231.52807 C 142.33536,231.47117 142.51386,231.29277 142.52046,231.19897 C 142.52756,231.09717 142.45916,231.05637 142.46916,230.96837 C 142.48146,230.85917 142.53786,230.83257 142.53146,230.73237 C 142.52096,230.57167 142.46506,230.47277 142.44186,230.33817 C 142.42856,230.26197 142.48576,230.09867 142.38466,229.93447 C 142.30746,229.80907 142.21906,229.68337 142.14106,229.59697 C 142.04036,229.48557 142.00396,229.58217 141.91886,229.48267 C 141.82436,229.37197 141.83546,229.26967 141.77806,229.20727 C 141.59606,229.00937 141.44056,229.09377 141.25846,228.89617 C 141.07076,228.69237 141.18926,228.49207 140.97526,228.31607 C 140.85396,228.21637 140.70886,228.05487 140.58166,227.95537 C 140.46886,227.86727 140.37356,227.83997 140.27146,227.77377 C 140.11456,227.67177 140.03796,227.52177 139.89726,227.43257 C 139.79506,227.36777 139.69586,227.40787 139.62576,227.32567 C 139.51466,227.19547 139.44986,226.99217 139.46986,226.82207 C 139.48936,226.65617 139.59196,226.45047 139.73226,226.35967 C 139.94456,226.22217 140.30066,226.17957 140.56076,226.10437 C 140.84816,226.02127 141.04856,226.01707 141.31986,225.96737 C 141.49966,225.93437 141.73716,225.85777 141.95616,225.81137 C 142.27476,225.74397 142.51536,225.71097 142.81786,225.65857 C 143.11166,225.60777 143.45386,225.51797 143.74906,225.38877 C 143.88996,225.32717 144.08146,225.29847 144.19016,225.21877 C 144.32496,225.12017 144.35136,225.05627 144.44206,224.91907 C 144.59066,224.69397 144.78026,224.36717 144.92766,224.07347 C 145.16096,223.60867 145.59606,223.16677 145.62956,222.73527 C 145.63926,222.60997 145.60276,222.55617 145.54556,222.44437 C 145.43656,222.23087 145.36416,221.90057 145.19386,221.67207 C 145.09376,221.53787 144.93726,221.45257 144.87936,221.32437 C 144.81626,221.18457 144.72916,220.81967 144.58516,220.76707 C 143.16636,220.24927 143.72966,220.33497 143.24886,220.21797 C 142.50606,220.03717 142.60226,220.19937 142.23466,220.15977 C 141.88906,220.12257 142.06096,219.94587 141.27496,220.01807 C 140.91996,220.05057 140.57396,220.35197 140.23306,220.45647 C 139.95886,220.54067 139.61196,220.46757 139.36266,220.60937 C 139.14726,220.73177 139.01296,221.09797 138.78876,221.20337 C 138.65836,221.26467 138.43986,221.31017 138.30166,221.35067 C 138.03576,221.42847 137.71486,221.84797 137.49656,221.67717 C 137.41416,221.61267 137.38456,221.50177 137.38756,221.38367 C 137.38756,221.38367 137.39706,220.94347 137.39706,220.94347 C 137.41536,220.73687 137.45206,220.56777 137.49376,220.44427 C 137.57426,220.20677 137.68886,220.27817 137.84156,220.07927 C 137.98416,219.89327 138.11776,219.72027 138.27226,219.47747 C 138.40466,219.26937 138.69546,218.97407 138.69396,218.82257 C 138.69126,218.55787 138.67116,218.44127 138.61586,218.13987 C 138.56166,217.84447 138.59616,217.71907 138.21186,217.45307 C 137.43496,216.91497 137.20546,217.07027 136.67756,216.91987 C 136.44756,216.85437 136.35986,216.70097 136.20026,216.65787 C 135.86536,216.56717 135.70706,216.66887 135.22556,216.59217 C 134.96056,216.54987 134.71976,216.37777 134.48636,216.34777 C 134.24916,216.31717 134.11826,216.44487 133.93866,216.37137 C 133.30356,216.11167 132.76326,215.62727 132.36346,215.06967 C 132.05696,214.64207 131.83766,213.85697 131.69366,213.35087 C 131.42486,212.40497 131.23536,211.14777 131.04576,210.17837 C 130.81696,209.00747 130.75686,206.21207 130.75686,206.21207 z M 134.53876,222.11467 C 134.53876,222.11467 134.79056,222.45187 134.79056,222.45187 C 134.42146,223.02847 134.33856,223.76187 134.34536,224.24617 C 134.35596,225.00237 134.46066,225.69947 134.55846,226.44757 C 134.58436,226.64607 134.47046,227.18977 134.40656,227.37397 C 134.29506,227.69507 133.98776,228.10527 133.81086,228.39547 C 133.70156,228.57467 133.55966,228.78077 133.55836,228.99057 C 133.55236,229.97807 133.71076,229.72277 133.74946,230.16137 C 133.76276,230.31167 133.73786,230.70307 133.72496,230.93707 C 133.71836,231.05597 133.65796,231.17447 133.60146,231.22617 C 133.04256,231.73787 132.65356,231.89277 132.33116,232.28237 C 132.18156,232.46307 132.07296,232.47947 132.07926,232.71397 C 132.08846,233.04747 132.44536,233.40817 132.49096,233.73877 C 132.52196,233.96397 132.38986,234.31287 132.38566,234.54017 C 132.38076,234.80367 132.54566,235.00157 132.46446,235.25227 C 132.38896,235.48547 132.14966,235.70297 132.06126,235.93167 C 131.99846,236.09457 132.03546,236.13487 131.98366,236.30167 C 131.92556,236.48927 131.73096,236.65017 131.68296,236.84057 C 131.66746,236.90167 131.73186,237.15227 131.71526,237.21297 C 131.66296,237.40387 131.48216,237.30947 131.41346,237.49487 C 131.36816,237.61697 131.29666,237.87117 131.24536,237.99077 C 131.17986,238.14327 131.25016,238.06187 130.89866,238.37137 C 130.89866,238.37137 130.70806,238.50327 130.70806,238.50327 C 130.47046,238.59317 130.40996,238.49387 130.33686,238.19477 C 130.27686,237.94927 130.18686,237.52517 130.16646,237.33597 C 130.14666,237.15067 130.27356,236.97457 130.29576,236.78967 C 130.33766,236.43837 130.16576,236.37337 130.07746,236.14097 C 130.04526,236.05627 130.06476,235.97127 130.02316,235.86347 C 129.97736,235.74447 129.87446,235.61667 129.81056,235.48897 C 129.75286,235.37377 129.73236,235.27187 129.68026,235.16897 C 129.62566,235.06107 129.61386,235.01987 129.54706,234.95287 C 129.41536,234.82107 129.04046,234.58957 128.91776,234.44467 C 128.74746,234.24367 128.82846,234.14167 128.63796,234.06987 C 128.22256,233.91327 128.15946,234.04177 127.95466,234.15237 C 127.43846,234.43117 126.79996,234.94697 126.30436,235.23097 C 125.31226,235.79937 124.01686,236.29007 122.90626,236.56167 C 122.32566,236.70357 121.82556,236.91287 121.25366,236.85677 C 121.09926,236.84167 120.67946,236.76397 120.53716,236.73107 C 120.53716,236.73107 120.45546,236.48897 120.45546,236.48897 C 120.45156,236.22587 120.68936,236.00007 120.86276,235.81137 C 121.38146,235.24657 122.64536,234.59857 123.28216,234.17107 C 124.16476,233.57867 125.25916,232.92097 125.89396,232.06827 C 126.12786,231.75407 125.99416,231.54497 126.11606,231.28207 C 126.30806,230.86847 126.57396,230.38667 126.88756,229.92137 C 126.98046,229.78347 127.10556,229.66787 127.19916,229.52987 C 127.36326,229.28777 127.49256,229.01507 127.65666,228.79847 C 127.96836,228.38687 128.28226,228.18337 128.49606,227.78697 C 128.75416,227.30847 128.80266,226.65747 129.12706,226.22117 C 129.40796,225.84347 129.71886,225.47887 130.22226,225.06377 C 130.75156,224.62707 131.22296,224.42457 131.57076,224.07237 C 131.92786,223.71077 132.00916,223.33967 132.37346,223.02467 C 132.81386,222.64377 134.07656,222.26307 134.53876,222.11467 z"
       id="path4218"
       sodipodi:nodetypes="ccsssssssssssssssssssssssccsssssssssssccsssssssssccsssssssscsssssssssssssssssssssssssssssssssssssssscssssssssssssssssssssssssssssssssssssssssssssssssssssssssssssssssssssssssssccsssssssssssssssssssssssssssssssssssssssssssssssssss" />
  </g>
  <g
     inkscape:groupmode="layer"
     id="layer3"
     inkscape:label="City"
     sodipodi:insensitive="true">
    <path
       style="fill:#ffffff;fill-opacity:1;fill-rule:evenodd;stroke:#0000ff;stroke-width:0.01721886px;stroke-linecap:butt;stroke-linejoin:miter;stroke-opacity:1;display:inline"
       d="M 134.53876,222.11467 C 134.53876,222.11467 134.79056,222.45187 134.79056,222.45187 C 134.42146,223.02847 134.33856,223.76187 134.34536,224.24617 C 134.35596,225.00237 134.46066,225.69947 134.55846,226.44757 C 134.58436,226.64607 134.47046,227.18977 134.40656,227.37397 C 134.29506,227.69507 133.98776,228.10527 133.81086,228.39547 C 133.70156,228.57467 133.55966,228.78077 133.55836,228.99057 C 133.55236,229.97807 133.71076,229.72277 133.74946,230.16137 C 133.76276,230.31167 133.73786,230.70307 133.72496,230.93707 C 133.71836,231.05597 133.65796,231.17447 133.60146,231.22617 C 133.04256,231.73787 132.65356,231.89277 132.33116,232.28237 C 132.18156,232.46307 132.07296,232.47947 132.07926,232.71397 C 132.08846,233.04747 132.44536,233.40817 132.49096,233.73877 C 132.52196,233.96397 132.38986,234.31287 132.38566,234.54017 C 132.38076,234.80367 132.54566,235.00157 132.46446,235.25227 C 132.38896,235.48547 132.14966,235.70297 132.06126,235.93167 C 131.99846,236.09457 132.03546,236.13487 131.98366,236.30167 C 131.92556,236.48927 131.73096,236.65017 131.68296,236.84057 C 131.66746,236.90167 131.73186,237.15227 131.71526,237.21297 C 131.66296,237.40387 131.48216,237.30947 131.41346,237.49487 C 131.36816,237.61697 131.29666,237.87117 131.24536,237.99077 C 131.17986,238.14327 131.25016,238.06187 130.89866,238.37137 C 130.89866,238.37137 130.70806,238.50327 130.70806,238.50327 C 130.47046,238.59317 130.40996,238.49387 130.33686,238.19477 C 130.27686,237.94927 130.18686,237.52517 130.16646,237.33597 C 130.14666,237.15067 130.27356,236.97457 130.29576,236.78967 C 130.33766,236.43837 130.16576,236.37337 130.07746,236.14097 C 130.04526,236.05627 130.06476,235.97127 130.02316,235.86347 C 129.97736,235.74447 129.87446,235.61667 129.81056,235.48897 C 129.75286,235.37377 129.73236,235.27187 129.68026,235.16897 C 129.62566,235.06107 129.61386,235.01987 129.54706,234.95287 C 129.41536,234.82107 129.04046,234.58957 128.91776,234.44467 C 128.74746,234.24367 128.82846,234.14167 128.63796,234.06987 C 128.22256,233.91327 128.15946,234.04177 127.95466,234.15237 C 127.43846,234.43117 126.79996,234.94697 126.30436,235.23097 C 125.31226,235.79937 124.01686,236.29007 122.90626,236.56167 C 122.32566,236.70357 121.82556,236.91287 121.25366,236.85677 C 121.09926,236.84167 120.67946,236.76397 120.53716,236.73107 C 120.53716,236.73107 120.45546,236.48897 120.45546,236.48897 C 120.45156,236.22587 120.68936,236.00007 120.86276,235.81137 C 121.38146,235.24657 122.64536,234.59857 123.28216,234.17107 C 124.16476,233.57867 125.25916,232.92097 125.89396,232.06827 C 126.12786,231.75407 125.99416,231.54497 126.11606,231.28207 C 126.30806,230.86847 126.57396,230.38667 126.88756,229.92137 C 126.98046,229.78347 127.10556,229.66787 127.19916,229.52987 C 127.36326,229.28777 127.49256,229.01507 127.65666,228.79847 C 127.96836,228.38687 128.28226,228.18337 128.49606,227.78697 C 128.75416,227.30847 128.80266,226.65747 129.12706,226.22117 C 129.40796,225.84347 129.71886,225.47887 130.22226,225.06377 C 130.75156,224.62707 131.22296,224.42457 131.57076,224.07237 C 131.92786,223.71077 132.00916,223.33967 132.37346,223.02467 C 132.81386,222.64377 134.07656,222.26307 134.53876,222.11467 z"
       id="path3366" />
    <path
       style="fill:#ff7f00;fill-opacity:0.49803922;fill-rule:evenodd;stroke:none;stroke-width:0.0625;stroke-linecap:butt;stroke-linejoin:miter;stroke-miterlimit:4;stroke-dasharray:none;stroke-opacity:1"
       d="M 132.65713,225.59218 L 130.38386,229.68764 L 130.52749,231.4996 C 131.27356,231.47794 131.80095,228.2082 132.65713,225.59218 z"
       id="path3327"
       sodipodi:nodetypes="cccc" />
    <path
       style="fill:none;fill-rule:evenodd;stroke:#000000;stroke-width:0.01721886px;stroke-linecap:butt;stroke-linejoin:miter;stroke-opacity:1;display:inline"
       d="M 119.24496,237.00047 L 120.64296,236.48987"
       id="path4212" />
    <path
       style="fill:none;fill-rule:evenodd;stroke:#000000;stroke-width:0.01721886px;stroke-linecap:butt;stroke-linejoin:miter;stroke-opacity:1;display:inline"
       d="M 130.68156,238.39657 L 131.29666,240.87177"
       id="path4214" />
    <path
       style="fill:none;fill-rule:evenodd;stroke:#000000;stroke-width:0.01721886px;stroke-linecap:butt;stroke-linejoin:miter;stroke-opacity:1;display:inline"
       d="M 134.63006,222.25297 L 137.45816,221.06467"
       id="path4216" />
    <path
       style="fill:none;fill-rule:evenodd;stroke:#ffffff;stroke-width:0.34889179px;stroke-linecap:butt;stroke-linejoin:miter;stroke-opacity:1;display:inline"
       d="M 134.51378,222.29637 L 137.85684,220.79771"
       id="path4004"
       sodipodi:nodetypes="cc" />
    <path
       style="fill:none;fill-rule:evenodd;stroke:#ffffff;stroke-width:0.34889179px;stroke-linecap:butt;stroke-linejoin:miter;stroke-opacity:1;display:inline"
       d="M 130.74888,238.47502 L 131.4613,241.33071"
       id="path4006"
       sodipodi:nodetypes="cc" />
    <path
       style="fill:none;fill-rule:evenodd;stroke:#ffffff;stroke-width:0.34889179px;stroke-linecap:butt;stroke-linejoin:miter;stroke-opacity:1;display:inline"
       d="M 120.4861,236.57976 C 120.4861,236.57976 118.99455,237.22598 118.99455,237.22598"
       id="path2988"
       sodipodi:nodetypes="cc" />
    <path
       style="fill:#000000;fill-opacity:1;fill-rule:evenodd;stroke:none;stroke-width:1px;stroke-linecap:butt;stroke-linejoin:miter;stroke-opacity:1"
       d="M 130.0558,241.01173 L 130.9933,241.01173 L 130.53571,241.7595 L 130.0558,241.01173 z"
       id="path2539" />
    <path
       style="fill:#ff7f00;fill-opacity:0.49803922;fill-rule:evenodd;stroke:none;stroke-width:0.0625;stroke-linecap:butt;stroke-linejoin:miter;stroke-miterlimit:4;stroke-dasharray:none;stroke-opacity:1"
       d="M 121.46205,235.96709 C 121.46205,235.96709 126.33649,232.97415 126.33649,232.97415 L 132.23791,225.35661 C 132.97506,224.4051 133.3543,223.21856 134.39732,222.31754 C 134.39732,222.31754 132.85278,222.75631 132.36607,223.2104 C 132.03427,223.51997 131.95116,224.19916 131.66295,224.54968 C 131.14421,225.18058 130.03157,225.60317 129.54241,226.25727 C 129.19012,226.72835 129.08714,227.55955 128.79445,228.06981 C 128.33714,228.86707 127.46541,229.75436 126.93987,230.50838 C 126.72318,230.81928 126.4258,231.23244 126.26118,231.57378 C 126.12848,231.84893 125.92972,232.53658 125.92972,232.53658 C 124.6937,233.99869 121.0815,235.87226 121.46205,235.96709 z"
       id="path3311"
       sodipodi:nodetypes="cssssssssssc" />
    <path
       style="fill:#ff7f00;fill-opacity:0.49803922;fill-rule:evenodd;stroke:none;stroke-width:0.0625;stroke-linecap:butt;stroke-linejoin:miter;stroke-miterlimit:4;stroke-dasharray:none;stroke-opacity:1"
       d="M 121.3572,236.31676 L 126.49937,233.19885 L 129.88706,231.94089 C 130.17716,233.05148 130.68065,234.50214 129.51102,234.38327 C 129.06184,234.33762 129.01423,233.47182 128.43932,233.55463 C 127.92975,233.62802 127.16594,234.31303 125.83522,234.94519 C 124.05664,235.79011 121.66502,236.60145 121.3572,236.31676 z"
       id="path3313"
       sodipodi:nodetypes="cccsssc" />
    <path
       style="fill:#ff7f00;fill-opacity:0.49803922;fill-rule:evenodd;stroke:none;stroke-width:0.0625;stroke-linecap:butt;stroke-linejoin:miter;stroke-miterlimit:4;stroke-dasharray:none;stroke-opacity:1"
       d="M 132.29526,225.52234 L 126.99196,232.52711 C 129.48802,230.83556 131.00399,228.46383 132.29526,225.52234 z"
       id="path3315"
       sodipodi:nodetypes="ccc" />
    <path
       style="fill:#ff7f00;fill-opacity:0.49803922;fill-rule:evenodd;stroke:none;stroke-width:0.0625;stroke-linecap:butt;stroke-linejoin:miter;stroke-miterlimit:4;stroke-dasharray:none;stroke-opacity:1"
       d="M 127.03371,232.84818 C 128.29881,231.99659 129.34338,231.00323 130.19604,229.88651 L 130.36176,231.58799 L 127.03371,232.84818 z"
       id="path3317"
       sodipodi:nodetypes="cccc" />
    <path
       sodipodi:type="arc"
       style="fill:#ff7f00;fill-opacity:1;stroke:none;stroke-width:0.35141531;stroke-linecap:butt;stroke-linejoin:miter;stroke-miterlimit:4;stroke-dasharray:none;stroke-dashoffset:0;stroke-opacity:1;display:inline"
       id="path3931"
       sodipodi:cx="8194.749"
       sodipodi:cy="-3915.8584"
       sodipodi:rx="1.2374369"
       sodipodi:ry="1.5909903"
       d="M 8195.9865,-3915.8584 A 1.2374369,1.5909903 0 1 1 8193.5116,-3915.8584 A 1.2374369,1.5909903 0 1 1 8195.9865,-3915.8584 z"
       transform="matrix(0.3584741,0.2014367,-0.1507384,0.2682521,-3397.5574,-370.72613)" />
    <rect
       style="fill:#ff7f00;fill-opacity:1;stroke:none;stroke-width:0.125;stroke-linecap:butt;stroke-linejoin:miter;stroke-miterlimit:4;stroke-dasharray:none;stroke-dashoffset:0;stroke-opacity:1;display:inline"
       id="rect3996"
       width="1.3009769"
       height="0.6384424"
       x="225.36011"
       y="131.04379"
       transform="matrix(0.8717884,0.4898826,-0.4898826,0.8717884,0,0)" />
    <rect
       style="fill:#ff7f00;fill-opacity:1;stroke:none;stroke-width:0.125;stroke-linecap:butt;stroke-linejoin:miter;stroke-miterlimit:4;stroke-dasharray:none;stroke-dashoffset:0;stroke-opacity:1;display:inline"
       id="rect3998"
       width="1.300977"
       height="0.6384424"
       x="46.188915"
       y="261.38712"
       transform="matrix(0.9441302,-0.3295727,0.3295727,0.9441302,0,0)" />
    <rect
       style="fill:#ff7f00;fill-opacity:1;stroke:none;stroke-width:0.12500001;stroke-linecap:butt;stroke-linejoin:miter;stroke-miterlimit:4;stroke-dasharray:none;stroke-dashoffset:0;stroke-opacity:1;display:inline"
       id="rect4000"
       width="1.300977"
       height="0.6384424"
       x="262.43741"
       y="33.801643"
       transform="matrix(0.586891,0.8096659,-0.8096659,0.586891,0,0)" />
    <path
       style="fill:#ff7f00;fill-opacity:0.49803922;fill-rule:evenodd;stroke:none;stroke-width:0.0625;stroke-linecap:butt;stroke-linejoin:miter;stroke-miterlimit:4;stroke-dasharray:none;stroke-opacity:1"
       d="M 130.85895,234.18439 L 130.53892,231.96323 C 131.64916,231.53381 131.69485,229.00707 132.8429,225.69657 L 132.83376,224.95911 C 133.40506,224.00506 133.96577,222.97161 134.59336,222.43979 L 134.00778,224.38434 C 133.94654,225.34411 134.16216,226.18874 134.14037,226.85921 C 134.11982,227.49135 133.52165,228.25869 133.21229,228.95843 C 132.29247,229.08032 130.99982,231.18115 131.79807,232.6376 L 132.31736,233.65406 L 130.85895,234.18439 z"
       id="path3329"
       sodipodi:nodetypes="ccccccscccc" />
    <path
       sodipodi:type="arc"
       style="fill:#ff7f00;fill-opacity:1;stroke:none;stroke-width:0.0625;stroke-linecap:butt;stroke-linejoin:miter;stroke-miterlimit:4;stroke-dasharray:none;stroke-dashoffset:0;stroke-opacity:1"
       id="path3333"
       sodipodi:cx="127.90899"
       sodipodi:cy="236.42725"
       sodipodi:rx="0.066291258"
       sodipodi:ry="0.066291258"
       d="M 127.97528,236.42725 A 0.066291258,0.066291258 0 1 1 127.8427,236.42725 A 0.066291258,0.066291258 0 1 1 127.97528,236.42725 z"
       transform="matrix(1.5084945,0,0,1.5084945,-62.59111,-122.24137)" />
    <path
       sodipodi:type="arc"
       style="fill:#ff7f00;fill-opacity:1;stroke:none;stroke-width:0.0625;stroke-linecap:butt;stroke-linejoin:miter;stroke-miterlimit:4;stroke-dasharray:none;stroke-dashoffset:0;stroke-opacity:1"
       id="path3335"
       sodipodi:cx="127.90899"
       sodipodi:cy="236.42725"
       sodipodi:rx="0.066291258"
       sodipodi:ry="0.066291258"
       d="M 127.97528,236.42725 A 0.066291258,0.066291258 0 1 1 127.8427,236.42725 A 0.066291258,0.066291258 0 1 1 127.97528,236.42725 z"
       transform="matrix(1.5084945,0,0,1.5084945,-62.010371,-122.50469)" />
    <path
       style="fill:#007f00;fill-opacity:0.49019608;fill-rule:evenodd;stroke:none;stroke-width:0.0625;stroke-linecap:butt;stroke-linejoin:miter;stroke-miterlimit:4;stroke-dasharray:none;stroke-opacity:1"
       d="M 133.1875,228.96875 C 132.93876,228.98365 132.85878,229.08937 132.65625,229.21875 C 131.21566,230.55374 131.42339,232.17109 131.875,232.71875 C 132.37002,232.01821 133.40415,231.60802 133.60937,231.07422 C 133.88612,230.35443 133.56426,229.78684 133.1875,228.96875 z"
       id="path3337"
       sodipodi:nodetypes="cccsc" />
    <path
       style="fill:#007f00;fill-opacity:0.49019608;fill-rule:evenodd;stroke:none;stroke-width:0.01721886px;stroke-linecap:butt;stroke-linejoin:miter;stroke-opacity:1;display:inline"
       d="M 129.4806,234.89364 C 129.4806,234.89364 132.4715,233.62199 132.4715,233.62199 C 132.5676,233.92643 132.42146,234.2432 132.39681,234.54927 C 132.39191,234.81277 132.55681,235.01067 132.47561,235.26137 C 132.4001,235.49457 132.16081,235.71207 132.07241,235.94077 C 132.00962,236.10367 132.04661,236.14397 131.99481,236.31077 C 131.93671,236.49838 131.74211,236.65927 131.69411,236.84967 C 131.67861,236.91077 131.74301,237.16137 131.72641,237.22207 C 131.67411,237.41298 131.49331,237.31857 131.42461,237.50397 C 131.37931,237.62607 131.30781,237.88027 131.25651,237.99987 C 131.191,238.15238 131.26131,238.07097 130.90981,238.38047 C 130.90981,238.38048 130.71921,238.51237 130.71921,238.51237 C 130.48161,238.60226 130.42111,238.50297 130.34801,238.20387 C 130.28801,237.95837 130.19801,237.53427 130.17761,237.34507 C 130.15781,237.15978 130.28471,236.98367 130.30691,236.79877 C 130.3488,236.44747 130.17691,236.38247 130.08861,236.15007 C 130.05641,236.06537 130.07591,235.98037 130.03431,235.87257 C 129.98852,235.75356 129.88561,235.62577 129.82171,235.49807 C 129.764,235.38288 129.74351,235.28097 129.69141,235.17807 C 129.63681,235.07017 129.62501,235.02897 129.55821,234.96197 C 129.53764,234.94139 129.51114,234.91837 129.4806,234.89364 z"
       id="path3348"
       sodipodi:nodetypes="cccsssssssscssssssssc" />
    <path
       style="fill:none;fill-rule:evenodd;stroke:#ff7f00;stroke-width:0.05;stroke-linecap:butt;stroke-linejoin:miter;stroke-miterlimit:4;stroke-dasharray:none;stroke-opacity:1"
       d="M 129.4806,234.89364 L 132.4715,233.62199"
       id="path3364"
       sodipodi:nodetypes="cc" />
  </g>
  <g
     inkscape:groupmode="layer"
     id="layer4"
     inkscape:label="Vilages">
    <g
       inkscape:groupmode="layer"
       id="layer5"
       inkscape:label="Daigan"
       style="display:inline">
      <path
         style="fill:#7f7f7f;fill-opacity:1;fill-rule:evenodd;stroke:none;stroke-width:1px;stroke-linecap:butt;stroke-linejoin:miter;stroke-opacity:1"
         d="M 115.19775,236.23669 L 118.28613,237.20104 L 115.42969,238.56823 L 115.19775,236.23669 z"
         id="path3377" />
      <path
         style="fill:#7f7f7f;fill-opacity:1;fill-rule:evenodd;stroke:none;stroke-width:1px;stroke-linecap:butt;stroke-linejoin:miter;stroke-opacity:1"
         d="M 115.75928,239.15417 L 118.01758,238.11657 L 116.45508,239.61804 L 115.75928,239.15417 z"
         id="path3379" />
    </g>
    <g
       inkscape:groupmode="layer"
       id="layer6"
       inkscape:label="South Bridge">
      <path
         style="fill:#7f7f7f;fill-opacity:1;fill-rule:evenodd;stroke:none;stroke-width:1px;stroke-linecap:butt;stroke-linejoin:miter;stroke-opacity:1;display:inline"
         d="M 134.2657,241.41635 L 133.19537,242.53847 C 132.26817,241.86726 131.68479,241.2773 131.57852,241.03936 L 134.2657,241.41635 z"
         id="path3375"
         sodipodi:nodetypes="cccc" />
    </g>
    <g
       inkscape:groupmode="layer"
       id="layer7"
       inkscape:label="Glancor">
      <path
         style="fill:#7f7f7f;fill-opacity:1;fill-rule:evenodd;stroke:none;stroke-width:0.05000000000000000;stroke-linecap:butt;stroke-linejoin:miter;stroke-miterlimit:4;stroke-dasharray:none;stroke-opacity:1;display:inline"
         d="M 138.38301,217.48935 L 139.56555,217.18724 C 140.06424,220.13649 138.08753,220.46836 137.49759,220.95876 C 137.44746,220.05261 139.56228,219.23236 138.38301,217.48935 z"
         id="path3373"
         sodipodi:nodetypes="cccc" />
    </g>
  </g>
</svg>
