<?xml version="1.0" encoding="UTF-8" standalone="no"?>
<!-- Created with Inkscape (http://www.inkscape.org/) -->
<svg
   xmlns:dc="http://purl.org/dc/elements/1.1/"
   xmlns:cc="http://creativecommons.org/ns#"
   xmlns:rdf="http://www.w3.org/1999/02/22-rdf-syntax-ns#"
   xmlns:svg="http://www.w3.org/2000/svg"
   xmlns="http://www.w3.org/2000/svg"
   xmlns:xlink="http://www.w3.org/1999/xlink"
   xmlns:sodipodi="http://sodipodi.sourceforge.net/DTD/sodipodi-0.dtd"
   xmlns:inkscape="http://www.inkscape.org/namespaces/inkscape"
   width="873"
   height="960"
   id="svg8656"
   sodipodi:version="0.32"
   inkscape:version="0.46"
   sodipodi:docname="vector.svg"
   inkscape:output_extension="org.inkscape.output.svg.inkscape"
   version="1.0">
  <defs
     id="defs8658">
    <inkscape:perspective
       sodipodi:type="inkscape:persp3d"
       inkscape:vp_x="0 : 526.18109 : 1"
       inkscape:vp_y="0 : 1000 : 0"
       inkscape:vp_z="744.09448 : 526.18109 : 1"
       inkscape:persp3d-origin="372.04724 : 350.78739 : 1"
       id="perspective8664" />
  </defs>
  <sodipodi:namedview
     id="base"
     pagecolor="#ffffff"
     bordercolor="#666666"
     borderopacity="1.0"
     gridtolerance="10"
     guidetolerance="10"
     objecttolerance="10"
     inkscape:pageopacity="0.0"
     inkscape:pageshadow="2"
     inkscape:zoom="0.64"
     inkscape:cx="199.07458"
     inkscape:cy="406.29212"
     inkscape:document-units="px"
     inkscape:current-layer="layer8"
     showgrid="false"
     inkscape:window-width="1334"
     inkscape:window-height="992"
     inkscape:window-x="-10"
     inkscape:window-y="-28"
     inkscape:snap-bbox="false"
     inkscape:object-paths="true"
     inkscape:object-nodes="true"
     inkscape:snap-intersection-line-segments="true"
     inkscape:snap-center="true"
     showborder="true"
     inkscape:showpageshadow="false"
     borderlayer="true"
     width="873px" />
  <metadata
     id="metadata8661">
    <rdf:RDF>
      <cc:Work
         rdf:about="">
        <dc:format>image/svg+xml</dc:format>
        <dc:type
           rdf:resource="http://purl.org/dc/dcmitype/StillImage" />
      </cc:Work>
    </rdf:RDF>
  </metadata>
  <g
     inkscape:groupmode="layer"
     id="layer8"
     inkscape:label="bg"
     style="display:inline"
     sodipodi:insensitive="true">
    <rect
       style="fill:#007f00;fill-opacity:1;stroke:none;stroke-width:0.05;stroke-linecap:butt;stroke-linejoin:miter;stroke-miterlimit:4;stroke-dasharray:none;stroke-dashoffset:0;stroke-opacity:1;display:inline"
       id="rect3394"
       width="873.95532"
       height="960.51501"
       x="-0.68689734"
       y="1.0671425" />
  </g>
  <g
     inkscape:label="Picture"
     inkscape:groupmode="layer"
     id="layer1"
     style="display:inline"
     sodipodi:insensitive="true">
    <image
       style="display:inline"
       y="-456.96286"
       x="148.63501"
       id="image3859"
       height="1241.5587"
       width="819.23309"
       sodipodi:absref="/home/joe/wot/far-madding.jpg"
       xlink:href="bw.jpg"
       transform="matrix(0.8717884,0.4898826,-0.4898826,0.8717884,0,0)" />
    <flowRoot
       xml:space="preserve"
       id="flowRoot3434"
       style="font-size:64px;font-style:normal;font-weight:normal;fill:#000000;fill-opacity:1;stroke:none;stroke-width:1px;stroke-linecap:butt;stroke-linejoin:miter;stroke-opacity:1;display:inline;font-family:Bitstream Vera Sans;-inkscape-font-specification:Sans"
       transform="translate(112.58579,126.73149)"><flowRegion
         id="flowRegion3436"><rect
           id="rect3438"
           width="432"
           height="198"
           x="510"
           y="842.36218"
           style="font-size:64px" /></flowRegion><flowPara
         id="flowPara3440">100px:1mile</flowPara></flowRoot>  </g>
  <g
     inkscape:groupmode="layer"
     id="layer2"
     inkscape:label="Water"
     style="display:inline">
    <path
       style="fill:#0000ff;fill-opacity:1;fill-rule:evenodd;stroke:#0000ff;stroke-width:0.45900765;stroke-linecap:butt;stroke-linejoin:miter;stroke-miterlimit:4;stroke-dasharray:none;stroke-opacity:1;display:inline"
       d="M 463.0236,-202.98694 L 431.93529,-216.90837 C 431.93529,-216.90837 446.16723,-145.21678 451.25141,-113.64516 C 454.17826,-95.454956 459.75384,-72.604466 462.6051,-56.417696 C 465.24033,-41.472956 464.55452,-19.950886 468.43448,-5.27885 C 472.29555,9.325687 479.01057,27.745394 488.35273,42.792758 C 492.03829,48.735543 496.20444,54.532551 499.86572,56.91129 C 502.24176,58.45571 500.55422,63.58309 499.23931,66.09413 C 497.51667,69.3801 491.21747,71.85062 487.59132,72.64714 C 483.66545,73.50847 475.2305,71.95864 467.74328,73.62457 C 462.24869,74.84768 457.37241,76.90511 454.44556,77.27233 C 448.44876,78.01484 450.3442,73.82976 444.51209,75.40659 C 437.63509,77.26153 429.56194,83.57152 422.46893,84.23033 C 412.61647,85.15104 400.31506,78.22273 390.5787,79.97777 C 382.77016,81.38448 377.27557,85.36166 370.09345,88.73132 C 364.47197,91.36926 355.85342,98.99958 349.12492,100.7492 C 342.3964,102.49614 334.81198,100.3172 328.65587,101.41072 C 323.80659,102.27202 317.33188,106.92422 311.46469,108.24993 C 306.05919,109.46765 301.30171,107.60463 297.06804,109.22464 C 287.41268,112.91291 279.02634,125.60852 268.71486,124.8903 C 262.75316,124.47451 244.79247,116.71728 237.94786,108.40383 C 233.14448,102.56364 230.13933,91.28825 228.8406,83.83613 C 227.41499,75.6604 230.75494,65.85653 230.77383,57.5566 C 230.78734,50.838876 227.06938,36.828353 225.33865,30.337434 C 221.60719,16.337711 215.16487,3.990399 207.98545,-8.591809 C 204.3944,-14.888302 196.60748,-29.719663 196.60748,-29.719663 L 188.66395,-17.685546 C 188.66395,-17.685546 203.92459,-6.040261 210.90151,11.960944 C 213.95795,19.845075 221.44518,32.035768 222.7898,49.937076 C 223.45402,58.73381 219.03945,72.03423 219.32025,80.84987 C 219.60646,89.89773 225.12264,102.89034 229.64253,110.73398 C 236.15502,122.03365 259.15131,127.23935 257.85259,140.21846 C 257.20999,146.66617 243.62065,146.68508 239.57329,151.74766 C 233.91399,158.82987 231.01955,172.1573 231.48666,178.8642 C 231.81606,183.56769 230.40933,190.96312 226.10547,192.89094 C 221.63688,194.88898 212.74564,195.76379 208.26357,193.79815 C 199.56132,189.9722 186.4499,176.75278 178.54148,171.47687 C 166.88267,163.70346 149.45388,160.2069 138.2865,151.73955 C 130.09457,145.53215 116.92375,124.65811 116.92375,124.65811 L 114.4478,133.27664 C 114.4478,133.27664 127.93992,152.12297 135.95096,158.65977 C 146.04643,166.903 162.06039,168.83625 173.57338,174.95184 C 179.03828,177.85439 186.57141,185.39561 194.48253,191.21961 C 203.15779,197.60522 210.57481,198.81214 211.07432,205.19235 C 211.69263,213.03328 190.43246,207.9815 173.81369,227.168 C 153.97647,250.0671 162.22511,265.63825 153.82526,267.33388 C 146.97254,268.71361 136.44776,247.75315 126.1822,242.94706 C 119.26469,239.70972 109.95763,240.59533 101.71709,239.26691 C 94.42968,238.0951 88.23576,234.55533 81.50185,234.02343 C 75.194561,233.52392 59.420889,234.34742 59.420889,234.34742 L 57.128562,245.39331 C 57.128562,245.39331 70.299374,239.08601 82.86269,239.33712 C 89.06199,239.464 94.07597,243.46008 100.34547,244.7939 C 109.59583,246.76494 119.38348,244.6805 125.45319,247.38865 C 131.5202,250.09409 127.22171,253.18025 141.00545,264.07762 C 144.27251,266.65886 147.93915,269.14021 147.89596,272.96347 C 147.78255,282.90503 134.02853,282.43254 129.58156,291.32107 C 123.59555,303.28498 124.73768,332.80186 120.5472,345.50558 C 119.05678,350.02544 115.76542,346.34259 112.59828,350.90567 C 110.73255,353.58951 111.53986,358.9032 109.64712,360.96334 C 95.91469,375.88377 65.115273,385.64443 51.590753,409.88545 C 47.964599,416.38444 51.361246,418.9981 48.39931,427.33584 C 45.191658,436.36478 38.681846,441.91878 38.411847,449.97301 C 38.004144,462.08811 42.318799,481.23954 48.388511,494.74246 C 55.411313,510.37843 64.205359,520.38749 61.262316,534.10912 C 59.229189,543.59708 43.363713,549.76398 40.733888,559.10073 C 37.218429,571.59384 40.712268,587.7887 47.678391,598.73468 C 52.81659,606.81322 64.316076,614.12493 73.32342,617.365 C 87.76327,622.55179 110.57054,625.87014 128.69865,626.26704 C 138.66181,626.48304 141.35104,624.86032 149.5862,629.52059 C 149.5862,629.52059 152.11613,635.43369 152.11613,635.43369 C 151.39252,642.07041 144.3265,651.72846 139.16132,656.55886 C 134.75484,660.67372 126.8923,667.11872 118.77057,671.5171 C 114.27231,673.95254 110.85134,677.42749 107.99739,679.15822 C 96.45741,686.15674 87.95497,687.96036 83.5107,700.69648 C 79.158214,713.16799 80.29493,733.44802 83.48369,746.26244 C 86.48614,758.31814 93.10935,777.42905 101.41199,786.6659 C 105.01654,790.67818 114.03471,791.01839 117.08035,795.47075 C 120.80101,800.91675 119.00817,803.30088 122.60734,808.82787 C 128.25043,817.48692 146.18682,826.40516 155.13478,831.57305 C 161.04788,834.98591 165.60825,832.28047 170.26583,833.35778 C 174.08369,834.24339 176.10333,837.51045 179.65658,838.38797 C 189.60626,840.83691 198.0952,843.09684 208.33916,843.06986 C 217.89462,843.04824 230.90885,835.53941 239.18989,840.30769 C 242.79715,842.38675 243.97436,845.96159 246.96601,848.85875 C 249.65794,851.46968 253.58652,854.64764 256.06786,857.45839 C 261.69745,863.8413 256.49177,878.92104 262.32116,885.12034 C 298.20207,923.26389 377.65358,937.38242 429.91026,933.92905 C 442.21165,933.11635 455.25017,918.64141 467.51109,917.34539 C 477.64164,916.27346 490.59645,924.81101 500.44623,922.20277 C 503.59987,921.36844 507.14233,919.78622 508.92167,917.05108 C 513.05004,910.72217 510.04759,892.65076 513.93024,886.16527 C 518.84432,877.95713 533.11677,875.49199 537.63394,867.05434 C 543.26894,856.52956 544.50826,843.32635 540.8983,831.94566 C 535.6818,815.48348 510.10429,801.25155 496.71206,790.34878 C 487.297,782.68065 483.39004,776.19514 473.16766,767.5361 C 471.19665,765.87016 464.65173,766.38587 463.27741,764.49584 C 461.76539,762.41952 459.01403,761.68239 458.59823,759.14975 C 457.02409,749.54298 466.01254,737.54129 474.9902,733.77472 C 474.9902,733.77472 481.2246,732.75952 481.2246,732.75952 C 482.72312,732.87831 485.76067,732.71362 487.96663,733.56142 C 496.13155,733.90704 523.52621,739.92814 536.65653,741.45906 C 553.1646,743.3842 570.99839,746.82945 587.20137,743.13848 C 596.42742,741.03785 609.24723,736.17238 616.40505,729.98656 C 622.74206,724.51357 627.64263,716.20555 633.66374,708.70481 C 637.86772,703.46672 643.5918,699.16286 646.61855,694.16778 C 650.71183,687.41227 655.7987,676.59858 657.82644,668.96826 C 660.69929,658.17078 652.33994,652.8841 654.93468,646.74418 C 656.28472,643.55544 659.69487,640.18037 661.1421,637.03483 C 663.44793,632.01544 662.44083,626.35884 663.53164,620.94255 C 664.14455,617.90771 667.2415,614.55155 667.6654,611.48431 C 668.32691,606.69172 665.57018,602.03414 666.34239,597.26047 C 666.81218,594.36601 667.4872,590.36184 669.55543,588.28011 C 672.88189,584.93475 676.25155,583.78185 680.12611,581.773 C 688.92286,577.21533 699.28292,572.05283 708.37939,566.40435 C 712.95056,563.5612 715.50211,562.28949 718.52345,557.83711 C 723.57523,550.39849 726.23207,556.23598 733.13878,544.58258 C 737.97727,536.42036 729.96085,519.37227 733.2711,510.47832 C 734.61032,506.88457 739.006,506.37426 742.38914,503.26919 C 746.09091,499.87254 748.23473,493.43564 751.66921,491.3512 C 756.52927,488.40275 765.27742,490.39809 770.2509,487.64404 C 773.03196,486.10772 773.50716,483.41307 774.90039,480.55642 C 775.6483,479.0201 780.46787,474.20321 780.64609,471.67058 C 780.83779,468.92194 778.99095,467.8203 779.26095,465.44427 C 779.59306,462.49581 781.11588,461.77762 780.94308,459.07216 C 780.65957,454.7332 779.15026,452.06284 778.52384,448.42859 C 778.16475,446.37116 779.70917,441.96197 776.97942,437.52851 C 774.89498,434.14266 772.50815,430.7487 770.40211,428.41586 C 767.68317,425.408 766.70034,428.01625 764.4026,425.3297 C 761.85108,422.34076 762.15077,419.57861 760.60094,417.89378 C 755.68686,412.55038 751.48829,414.82923 746.57152,409.49394 C 741.50353,403.99125 744.70309,398.58305 738.92499,393.83098 C 735.64984,391.13905 731.73207,386.77847 728.29761,384.09192 C 725.25197,381.71318 722.67882,380.97607 719.92207,379.18864 C 715.68569,376.43459 713.61746,372.38452 709.8185,369.97609 C 707.05906,368.22644 704.38061,369.30917 702.48789,367.08973 C 699.48813,363.57427 697.7385,358.08509 698.27852,353.49232 C 698.80502,349.01293 701.57527,343.45895 705.36344,341.0073 C 711.09563,337.29473 720.71049,336.14451 727.73329,334.11409 C 735.49322,331.87035 740.90413,331.75695 748.22934,330.41502 C 753.08402,329.524 759.49664,327.45577 765.40973,326.20295 C 774.01208,324.38312 780.50839,323.49212 788.67602,322.07729 C 796.60874,320.70565 805.84829,318.28103 813.81884,314.79256 C 817.62319,313.12933 822.79379,312.35444 825.72873,310.2025 C 829.36839,307.54025 830.0812,305.81491 832.53014,302.11046 C 836.5424,296.03265 841.66169,287.20891 845.64157,279.27888 C 851.94077,266.72907 863.68866,254.79758 864.59318,243.14688 C 864.85509,239.76372 863.86956,238.3111 862.32514,235.29244 C 859.3821,229.52785 857.42727,220.60961 852.82909,214.44 C 850.12633,210.81655 845.90077,208.5134 844.33744,205.05194 C 842.63371,201.27728 840.28198,191.42481 836.3939,190.00459 C 798.08568,176.02376 813.29503,178.33769 800.31321,175.17864 C 780.25728,170.29696 782.85471,174.67643 772.92936,173.60722 C 763.598,172.60279 768.23937,167.83183 747.01701,169.78125 C 737.43186,170.65876 728.0897,178.7967 718.88525,181.61825 C 711.48173,183.89169 702.11527,181.91796 695.38407,185.74662 C 689.56816,189.05148 685.94201,198.93905 679.88851,201.78488 C 676.36764,203.44002 670.46805,204.66854 666.73659,205.76206 C 659.55717,207.86268 650.89273,219.18939 644.99853,214.5777 C 642.77368,212.83617 641.97449,209.84182 642.05547,206.65308 C 642.05547,206.65308 642.31198,194.76747 642.31198,194.76747 C 642.80608,189.18919 643.797,184.6234 644.92292,181.28885 C 647.09645,174.87625 650.19071,176.80407 654.31368,171.43368 C 658.16396,166.41161 661.7712,161.74052 665.94278,155.1848 C 669.51764,149.56601 677.36936,141.59278 677.32887,137.50222 C 677.25596,130.3552 676.71325,127.20695 675.22012,119.06901 C 673.75671,111.09308 674.68822,107.70723 664.31195,100.52511 C 643.3353,85.99616 637.1387,90.18932 622.88515,86.12846 C 616.67505,84.35994 614.30711,80.21807 609.99784,79.05435 C 600.95539,76.6054 596.68123,79.35135 583.6805,77.28042 C 576.52538,76.13831 570.02368,71.49153 563.72178,70.68151 C 557.31727,69.8553 553.7829,73.30326 548.93364,71.31872 C 531.78565,64.30672 517.1973,51.227686 506.40252,36.172228 C 498.12687,24.62684 492.20569,3.428803 488.31763,-10.236127 C 481.05991,-35.775846 475.94331,-69.720826 470.82402,-95.895056 C 464.64632,-127.50988 463.0236,-202.98694 463.0236,-202.98694 z M 565.13659,226.3904 C 565.13659,226.3904 571.93531,235.49494 571.93531,235.49494 C 561.96945,251.06341 559.73112,270.86553 559.9147,283.94185 C 560.20091,304.35959 563.02787,323.18161 565.66851,343.38063 C 566.36781,348.74022 563.29248,363.42038 561.56714,368.39386 C 558.55659,377.06371 550.25935,388.13928 545.48297,395.97481 C 542.53182,400.81329 538.70046,406.37809 538.66535,412.04278 C 538.50335,438.70572 542.78024,431.8125 543.82515,443.6549 C 544.18425,447.71308 543.51193,458.28105 543.16364,464.59915 C 542.98544,467.8095 541.35461,471.00906 539.82908,472.40498 C 524.73852,486.22112 514.23536,490.40348 505.53041,500.92287 C 501.49115,505.80184 498.5589,506.24465 498.729,512.57625 C 498.9774,521.58091 508.61387,531.31997 509.84507,540.24631 C 510.6821,546.32682 507.11533,555.74728 507.00192,561.88447 C 506.86963,568.99909 511.32201,574.34248 509.12956,581.11149 C 507.09104,587.408 500.62982,593.2806 498.24298,599.4556 C 496.54735,603.85397 497.54639,604.9421 496.14774,609.44577 C 494.57902,614.51104 489.32473,618.85543 488.02871,623.99631 C 487.61021,625.64604 489.34904,632.41235 488.90082,634.05127 C 487.48872,639.20566 482.60703,636.65682 480.7521,641.6627 C 479.52897,644.95945 477.59845,651.82297 476.21333,655.05222 C 474.44479,659.16979 476.34292,656.97195 466.85225,665.3286 C 466.85225,665.3286 461.70598,668.88996 461.70598,668.88996 C 455.29068,671.31729 453.65714,668.63615 451.68342,660.56032 C 450.06338,653.93169 447.63335,642.48081 447.08253,637.37233 C 446.54792,632.36915 449.97428,627.61437 450.57369,622.62199 C 451.70502,613.13672 447.06364,611.38171 444.67949,605.10679 C 443.81009,602.81985 444.3366,600.52482 443.21337,597.61417 C 441.97675,594.40111 439.1984,590.95045 437.47308,587.50249 C 435.91515,584.39205 435.36163,581.64071 433.95492,578.86236 C 432.4807,575.94901 432.16209,574.83659 430.35845,573.02756 C 426.8025,569.46891 416.68004,563.2183 413.36708,559.30593 C 408.7689,553.87884 410.95594,551.12479 405.81235,549.18615 C 394.59637,544.95789 392.89263,548.42745 387.36293,551.41371 C 373.42532,558.94143 356.18553,572.86826 342.8041,580.53639 C 316.01697,595.88344 281.04058,609.13255 251.05388,616.46589 C 235.37742,620.29725 221.8745,625.94844 206.43294,624.43371 C 202.26406,624.026 190.92929,621.92808 187.08711,621.03977 C 187.08711,621.03977 184.88117,614.50294 184.88117,614.50294 C 184.77589,607.39914 191.19658,601.30244 195.87847,596.20744 C 209.8836,580.9576 244.00946,563.46131 261.20335,551.9186 C 285.03394,535.92354 314.58324,518.16534 331.72312,495.14207 C 338.03852,486.65853 334.42856,481.01273 337.71992,473.91432 C 342.904,462.74692 350.08342,449.73811 358.55076,437.1748 C 361.05912,433.45143 364.43687,430.33019 366.96409,426.60412 C 371.39488,420.06732 374.88603,412.70429 379.31682,406.856 C 387.73285,395.74261 396.20829,390.24802 401.981,379.54505 C 408.9498,366.62532 410.25933,349.04803 419.01827,337.26775 C 426.60269,327.06967 434.99712,317.2253 448.58917,306.01743 C 462.88051,294.22632 475.60851,288.75874 484.99926,279.24917 C 494.64113,269.48582 496.83626,259.46594 506.67252,250.96081 C 518.56352,240.67634 552.65698,230.39725 565.13659,226.3904 z"
       id="path4218"
       sodipodi:nodetypes="ccsssssssssssssssssssssssccsssssssssssccsssssssssccsssssssscsssssssssssssssssssssssssssssssssssssssscssssssssssssssssssssssssssssssssssssssssssssssssssssssssssssssssssssssssssccsssssssssssssssssssssssssssssssssssssssssssssssssss" />
  </g>
  <g
     inkscape:groupmode="layer"
     id="layer3"
     inkscape:label="City"
     style="display:inline">
    <path
       style="fill:none;fill-rule:evenodd;stroke:#000000;stroke-width:0.46491694px;stroke-linecap:butt;stroke-linejoin:miter;stroke-opacity:1;display:inline"
       d="M 152.19713,628.31367 L 189.94376,614.52725"
       id="path4212" />
    <path
       style="fill:none;fill-rule:evenodd;stroke:#000000;stroke-width:0.46491694px;stroke-linecap:butt;stroke-linejoin:miter;stroke-opacity:1;display:inline"
       d="M 460.99047,666.00901 L 477.59845,732.84053"
       id="path4214" />
    <path
       style="fill:none;fill-rule:evenodd;stroke:#000000;stroke-width:0.46491694px;stroke-linecap:butt;stroke-linejoin:miter;stroke-opacity:1;display:inline"
       d="M 567.60174,230.12455 L 643.96171,198.03993"
       id="path4216" />
    <path
       style="fill:none;fill-rule:evenodd;stroke:#ffffff;stroke-width:9.42023468px;stroke-linecap:butt;stroke-linejoin:miter;stroke-opacity:1;display:inline"
       d="M 564.46212,231.29637 L 654.72624,190.83189"
       id="path4004"
       sodipodi:nodetypes="cc" />
    <path
       style="fill:none;fill-rule:evenodd;stroke:#ffffff;stroke-width:9.42023468px;stroke-linecap:butt;stroke-linejoin:miter;stroke-opacity:1;display:inline"
       d="M 462.80813,668.12719 L 482.0438,745.2321"
       id="path4006"
       sodipodi:nodetypes="cc" />
    <path
       style="fill:none;fill-rule:evenodd;stroke:#ffffff;stroke-width:9.42023468px;stroke-linecap:butt;stroke-linejoin:miter;stroke-opacity:1;display:inline"
       d="M 185.70846,616.95432 C 185.70846,616.95432 145.43596,634.40255 145.43596,634.40255"
       id="path2988"
       sodipodi:nodetypes="cc" />
    <path
       style="fill:#000000;fill-opacity:1;fill-rule:evenodd;stroke:none;stroke-width:1px;stroke-linecap:butt;stroke-linejoin:miter;stroke-opacity:1"
       d="M 444.09467,736.61951 L 469.40759,736.61951 L 457.05244,756.80963 L 444.09467,736.61951 z"
       id="path2539" />
    <g
       style="display:inline"
       id="g3294"
       transform="matrix(27.000449,0,0,27.000449,-3067.4703,-5770.8054)">
      <path
         style="fill:#ffffff;fill-opacity:1;fill-rule:evenodd;stroke:none;stroke-width:0.0625;stroke-linecap:butt;stroke-linejoin:miter;stroke-miterlimit:4;stroke-dasharray:none;stroke-opacity:1"
         d="M 133.1875,228.96875 C 132.93876,228.98365 132.85878,229.08937 132.65625,229.21875 C 131.21566,230.55374 131.42339,232.17109 131.875,232.71875 C 132.37002,232.01821 133.40415,231.60802 133.60937,231.07422 C 133.88612,230.35443 133.56426,229.78684 133.1875,228.96875 z"
         id="path3292"
         sodipodi:nodetypes="cccsc" />
      <path
         sodipodi:nodetypes="cccsc"
         id="path3337"
         d="M 133.1875,228.96875 C 132.93876,228.98365 132.85878,229.08937 132.65625,229.21875 C 131.21566,230.55374 131.42339,232.17109 131.875,232.71875 C 132.37002,232.01821 133.40415,231.60802 133.60937,231.07422 C 133.88612,230.35443 133.56426,229.78684 133.1875,228.96875 z"
         style="fill:#007f00;fill-opacity:0.49803922;fill-rule:evenodd;stroke:none;stroke-width:0.0625;stroke-linecap:butt;stroke-linejoin:miter;stroke-miterlimit:4;stroke-dasharray:none;stroke-opacity:1" />
    </g>
    <g
       style="display:inline"
       id="g3300"
       transform="matrix(27.000449,0,0,27.000449,-3067.4703,-5770.8054)">
      <path
         style="fill:#ffffff;fill-opacity:1;fill-rule:evenodd;stroke:none;stroke-width:0.01721886px;stroke-linecap:butt;stroke-linejoin:miter;stroke-opacity:1;display:inline"
         d="M 129.4806,234.89364 C 129.4806,234.89364 132.4715,233.62199 132.4715,233.62199 C 132.5676,233.92643 132.42146,234.2432 132.39681,234.54927 C 132.39191,234.81277 132.55681,235.01067 132.47561,235.26137 C 132.4001,235.49457 132.16081,235.71207 132.07241,235.94077 C 132.00962,236.10367 132.04661,236.14397 131.99481,236.31077 C 131.93671,236.49838 131.74211,236.65927 131.69411,236.84967 C 131.67861,236.91077 131.74301,237.16137 131.72641,237.22207 C 131.67411,237.41298 131.49331,237.31857 131.42461,237.50397 C 131.37931,237.62607 131.30781,237.88027 131.25651,237.99987 C 131.191,238.15238 131.26131,238.07097 130.90981,238.38047 C 130.90981,238.38048 130.71921,238.51237 130.71921,238.51237 C 130.48161,238.60226 130.42111,238.50297 130.34801,238.20387 C 130.28801,237.95837 130.19801,237.53427 130.17761,237.34507 C 130.15781,237.15978 130.28471,236.98367 130.30691,236.79877 C 130.3488,236.44747 130.17691,236.38247 130.08861,236.15007 C 130.05641,236.06537 130.07591,235.98037 130.03431,235.87257 C 129.98852,235.75356 129.88561,235.62577 129.82171,235.49807 C 129.764,235.38288 129.74351,235.28097 129.69141,235.17807 C 129.63681,235.07017 129.62501,235.02897 129.55821,234.96197 C 129.53764,234.94139 129.51114,234.91837 129.4806,234.89364 z"
         id="path3298"
         sodipodi:nodetypes="cccsssssssscssssssssc" />
      <path
         sodipodi:nodetypes="cccsssssssscssssssssc"
         id="path3348"
         d="M 129.4806,234.89364 C 129.4806,234.89364 132.4715,233.62199 132.4715,233.62199 C 132.5676,233.92643 132.42146,234.2432 132.39681,234.54927 C 132.39191,234.81277 132.55681,235.01067 132.47561,235.26137 C 132.4001,235.49457 132.16081,235.71207 132.07241,235.94077 C 132.00962,236.10367 132.04661,236.14397 131.99481,236.31077 C 131.93671,236.49838 131.74211,236.65927 131.69411,236.84967 C 131.67861,236.91077 131.74301,237.16137 131.72641,237.22207 C 131.67411,237.41298 131.49331,237.31857 131.42461,237.50397 C 131.37931,237.62607 131.30781,237.88027 131.25651,237.99987 C 131.191,238.15238 131.26131,238.07097 130.90981,238.38047 C 130.90981,238.38048 130.71921,238.51237 130.71921,238.51237 C 130.48161,238.60226 130.42111,238.50297 130.34801,238.20387 C 130.28801,237.95837 130.19801,237.53427 130.17761,237.34507 C 130.15781,237.15978 130.28471,236.98367 130.30691,236.79877 C 130.3488,236.44747 130.17691,236.38247 130.08861,236.15007 C 130.05641,236.06537 130.07591,235.98037 130.03431,235.87257 C 129.98852,235.75356 129.88561,235.62577 129.82171,235.49807 C 129.764,235.38288 129.74351,235.28097 129.69141,235.17807 C 129.63681,235.07017 129.62501,235.02897 129.55821,234.96197 C 129.53764,234.94139 129.51114,234.91837 129.4806,234.89364 z"
         style="fill:#007f00;fill-opacity:0.49803922;fill-rule:evenodd;stroke:none;stroke-width:0.01721886px;stroke-linecap:butt;stroke-linejoin:miter;stroke-opacity:1;display:inline" />
    </g>
    <g
       style="display:inline"
       id="g3262"
       transform="matrix(27.000449,0,0,27.000449,-3067.4703,-5770.8054)">
      <path
         style="fill:#ffffff;fill-opacity:0.94117647;fill-rule:evenodd;stroke:none;stroke-width:0.0625;stroke-linecap:butt;stroke-linejoin:miter;stroke-miterlimit:4;stroke-dasharray:none;stroke-opacity:1"
         d="M 132.65713,225.59218 L 130.38386,229.68764 L 130.52749,231.4996 C 131.27356,231.47794 131.80095,228.2082 132.65713,225.59218 z"
         id="path3260"
         sodipodi:nodetypes="cccc" />
      <path
         sodipodi:nodetypes="cccc"
         id="path3327"
         d="M 132.65713,225.59218 L 130.38386,229.68764 L 130.52749,231.4996 C 131.27356,231.47794 131.80095,228.2082 132.65713,225.59218 z"
         style="fill:#ff7f00;fill-opacity:0.49803922;fill-rule:evenodd;stroke:none;stroke-width:0.0625;stroke-linecap:butt;stroke-linejoin:miter;stroke-miterlimit:4;stroke-dasharray:none;stroke-opacity:1" />
    </g>
    <g
       style="display:inline"
       id="g3282"
       transform="matrix(27.000449,0,0,27.000449,-3067.4703,-5770.8054)">
      <path
         style="fill:#ffffff;fill-opacity:1;fill-rule:evenodd;stroke:none;stroke-width:0.0625;stroke-linecap:butt;stroke-linejoin:miter;stroke-miterlimit:4;stroke-dasharray:none;stroke-opacity:1;display:inline"
         d="M 121.46205,235.96709 C 121.46205,235.96709 126.33649,232.97415 126.33649,232.97415 L 132.23791,225.35661 C 132.97506,224.4051 133.3543,223.21856 134.39732,222.31754 C 134.39732,222.31754 132.85278,222.75631 132.36607,223.2104 C 132.03427,223.51997 131.95116,224.19916 131.66295,224.54968 C 131.14421,225.18058 130.03157,225.60317 129.54241,226.25727 C 129.19012,226.72835 129.08714,227.55955 128.79445,228.06981 C 128.33714,228.86707 127.46541,229.75436 126.93987,230.50838 C 126.72318,230.81928 126.4258,231.23244 126.26118,231.57378 C 126.12848,231.84893 125.92972,232.53658 125.92972,232.53658 C 124.6937,233.99869 121.0815,235.87226 121.46205,235.96709 z"
         id="path3239"
         sodipodi:nodetypes="cssssssssssc" />
      <path
         sodipodi:nodetypes="cssssssssssc"
         id="path3311"
         d="M 121.46205,235.96709 C 121.46205,235.96709 126.33649,232.97415 126.33649,232.97415 L 132.23791,225.35661 C 132.97506,224.4051 133.3543,223.21856 134.39732,222.31754 C 134.39732,222.31754 132.85278,222.75631 132.36607,223.2104 C 132.03427,223.51997 131.95116,224.19916 131.66295,224.54968 C 131.14421,225.18058 130.03157,225.60317 129.54241,226.25727 C 129.19012,226.72835 129.08714,227.55955 128.79445,228.06981 C 128.33714,228.86707 127.46541,229.75436 126.93987,230.50838 C 126.72318,230.81928 126.4258,231.23244 126.26118,231.57378 C 126.12848,231.84893 125.92972,232.53658 125.92972,232.53658 C 124.6937,233.99869 121.0815,235.87226 121.46205,235.96709 z"
         style="fill:#ff7f00;fill-opacity:0.49803922;fill-rule:evenodd;stroke:none;stroke-width:0.0625;stroke-linecap:butt;stroke-linejoin:miter;stroke-miterlimit:4;stroke-dasharray:none;stroke-opacity:1;display:inline" />
    </g>
    <g
       style="display:inline"
       id="g3250"
       transform="matrix(27.000449,0,0,27.000449,-3067.4703,-5770.8054)">
      <path
         style="fill:#ffffff;fill-opacity:1;fill-rule:evenodd;stroke:none;stroke-width:0.0625;stroke-linecap:butt;stroke-linejoin:miter;stroke-miterlimit:4;stroke-dasharray:none;stroke-opacity:1;display:inline"
         d="M 121.3572,236.31676 L 126.49937,233.19885 L 129.88706,231.94089 C 130.17716,233.05148 130.68065,234.50214 129.51102,234.38327 C 129.06184,234.33762 129.01423,233.47182 128.43932,233.55463 C 127.92975,233.62802 127.16594,234.31303 125.83522,234.94519 C 124.05664,235.79011 121.66502,236.60145 121.3572,236.31676 z"
         id="path3210"
         sodipodi:nodetypes="cccsssc" />
      <path
         sodipodi:nodetypes="cccsssc"
         id="path3313"
         d="M 121.3572,236.31676 L 126.49937,233.19885 L 129.88706,231.94089 C 130.17716,233.05148 130.68065,234.50214 129.51102,234.38327 C 129.06184,234.33762 129.01423,233.47182 128.43932,233.55463 C 127.92975,233.62802 127.16594,234.31303 125.83522,234.94519 C 124.05664,235.79011 121.66502,236.60145 121.3572,236.31676 z"
         style="fill:#ff7f00;fill-opacity:0.49803922;fill-rule:evenodd;stroke:none;stroke-width:0.0625;stroke-linecap:butt;stroke-linejoin:miter;stroke-miterlimit:4;stroke-dasharray:none;stroke-opacity:1;display:inline" />
    </g>
    <g
       style="display:inline"
       id="g3278"
       transform="matrix(27.000449,0,0,27.000449,-3067.4703,-5770.8054)">
      <path
         style="fill:#ffffff;fill-opacity:1;fill-rule:evenodd;stroke:none;stroke-width:0.0625;stroke-linecap:butt;stroke-linejoin:miter;stroke-miterlimit:4;stroke-dasharray:none;stroke-opacity:1;display:inline"
         d="M 132.29526,225.52234 L 126.99196,232.52711 C 129.48802,230.83556 131.00399,228.46383 132.29526,225.52234 z"
         id="path3246"
         sodipodi:nodetypes="ccc" />
      <path
         sodipodi:nodetypes="ccc"
         id="path3315"
         d="M 132.29526,225.52234 L 126.99196,232.52711 C 129.48802,230.83556 131.00399,228.46383 132.29526,225.52234 z"
         style="fill:#ff7f00;fill-opacity:0.49803922;fill-rule:evenodd;stroke:none;stroke-width:0.0625;stroke-linecap:butt;stroke-linejoin:miter;stroke-miterlimit:4;stroke-dasharray:none;stroke-opacity:1;display:inline" />
    </g>
    <g
       style="display:inline"
       id="g3268"
       transform="matrix(27.000449,0,0,27.000449,-3067.4703,-5770.8054)">
      <path
         style="fill:#ffffff;fill-opacity:1;fill-rule:evenodd;stroke:none;stroke-width:0.0625;stroke-linecap:butt;stroke-linejoin:miter;stroke-miterlimit:4;stroke-dasharray:none;stroke-opacity:1;display:inline"
         d="M 127.03371,232.84818 C 128.29881,231.99659 129.34338,231.00323 130.19604,229.88651 L 130.36176,231.58799 L 127.03371,232.84818 z"
         id="path3266"
         sodipodi:nodetypes="cccc" />
      <path
         sodipodi:nodetypes="cccc"
         id="path3317"
         d="M 127.03371,232.84818 C 128.29881,231.99659 129.34338,231.00323 130.19604,229.88651 L 130.36176,231.58799 L 127.03371,232.84818 z"
         style="fill:#ff7f00;fill-opacity:0.49803922;fill-rule:evenodd;stroke:none;stroke-width:0.0625;stroke-linecap:butt;stroke-linejoin:miter;stroke-miterlimit:4;stroke-dasharray:none;stroke-opacity:1;display:inline" />
    </g>
    <g
       style="display:inline"
       id="g3288"
       transform="matrix(27.000449,0,0,27.000449,-3067.4703,-5770.8054)">
      <path
         style="fill:#ffffff;fill-opacity:1;fill-rule:evenodd;stroke:none;stroke-width:0.0625;stroke-linecap:butt;stroke-linejoin:miter;stroke-miterlimit:4;stroke-dasharray:none;stroke-opacity:1;display:inline"
         d="M 130.85895,234.18439 L 130.53892,231.96323 C 131.64916,231.53381 131.69485,229.00707 132.8429,225.69657 L 132.83376,224.95911 C 133.40506,224.00506 133.96577,222.97161 134.59336,222.43979 L 134.00778,224.38434 C 133.94654,225.34411 134.16216,226.18874 134.14037,226.85921 C 134.11982,227.49135 133.52165,228.25869 133.21229,228.95843 C 132.29247,229.08032 130.99982,231.18115 131.79807,232.6376 L 132.31736,233.65406 L 130.85895,234.18439 z"
         id="path3286"
         sodipodi:nodetypes="ccccccscccc" />
      <path
         sodipodi:nodetypes="ccccccscccc"
         id="path3329"
         d="M 130.85895,234.18439 L 130.53892,231.96323 C 131.64916,231.53381 131.69485,229.00707 132.8429,225.69657 L 132.83376,224.95911 C 133.40506,224.00506 133.96577,222.97161 134.59336,222.43979 L 134.00778,224.38434 C 133.94654,225.34411 134.16216,226.18874 134.14037,226.85921 C 134.11982,227.49135 133.52165,228.25869 133.21229,228.95843 C 132.29247,229.08032 130.99982,231.18115 131.79807,232.6376 L 132.31736,233.65406 L 130.85895,234.18439 z"
         style="fill:#ff7f00;fill-opacity:0.49803922;fill-rule:evenodd;stroke:none;stroke-width:0.0625;stroke-linecap:butt;stroke-linejoin:miter;stroke-miterlimit:4;stroke-dasharray:none;stroke-opacity:1;display:inline" />
    </g>
    <path
       sodipodi:type="arc"
       style="fill:#ff7f00;fill-opacity:1;stroke:none;stroke-width:0.35141531;stroke-linecap:butt;stroke-linejoin:miter;stroke-miterlimit:4;stroke-dasharray:none;stroke-dashoffset:0;stroke-opacity:1;display:inline"
       id="path3931"
       sodipodi:cx="8194.749"
       sodipodi:cy="-3915.8584"
       sodipodi:rx="1.2374369"
       sodipodi:ry="1.5909903"
       d="M 8195.9865,-3915.8584 A 1.2374369,1.5909903 0 1 1 8193.5116,-3915.8584 A 1.2374369,1.5909903 0 1 1 8195.9865,-3915.8584 z"
       transform="matrix(9.6789615,5.4388813,-4.0700044,7.2429272,-94803.045,-15780.577)" />
    <rect
       style="fill:#ff7f00;fill-opacity:1;stroke:none;stroke-width:0.125;stroke-linecap:butt;stroke-linejoin:miter;stroke-miterlimit:4;stroke-dasharray:none;stroke-dashoffset:0;stroke-opacity:1;display:inline"
       id="rect3996"
       width="35.126957"
       height="17.238232"
       x="583.62189"
       y="10.020263"
       transform="matrix(0.8717884,0.4898826,-0.4898826,0.8717884,0,0)" />
    <rect
       style="fill:#ff7f00;fill-opacity:1;stroke:none;stroke-width:0.125;stroke-linecap:butt;stroke-linejoin:miter;stroke-miterlimit:4;stroke-dasharray:none;stroke-dashoffset:0;stroke-opacity:1;display:inline"
       id="rect3998"
       width="35.126961"
       height="17.238232"
       x="252.92981"
       y="598.22266"
       transform="matrix(0.9441302,-0.3295727,0.3295727,0.9441302,0,0)" />
    <path
       sodipodi:type="arc"
       style="fill:#ff7f00;fill-opacity:1;stroke:none;stroke-width:0.0625;stroke-linecap:butt;stroke-linejoin:miter;stroke-miterlimit:4;stroke-dasharray:none;stroke-dashoffset:0;stroke-opacity:1;display:inline"
       id="path3333"
       sodipodi:cx="127.90899"
       sodipodi:cy="236.42725"
       sodipodi:rx="0.066291258"
       sodipodi:ry="0.066291258"
       d="M 127.97528,236.42725 A 0.066291258,0.066291258 0 1 1 127.8427,236.42725 A 0.066291258,0.066291258 0 1 1 127.97528,236.42725 z"
       transform="matrix(40.730028,0,0,40.730028,-4757.4585,-9071.3773)" />
    <path
       sodipodi:type="arc"
       style="fill:#ff7f00;fill-opacity:1;stroke:none;stroke-width:0.0625;stroke-linecap:butt;stroke-linejoin:miter;stroke-miterlimit:4;stroke-dasharray:none;stroke-dashoffset:0;stroke-opacity:1;display:inline"
       id="path3335"
       sodipodi:cx="127.90899"
       sodipodi:cy="236.42725"
       sodipodi:rx="0.066291258"
       sodipodi:ry="0.066291258"
       d="M 127.97528,236.42725 A 0.066291258,0.066291258 0 1 1 127.8427,236.42725 A 0.066291258,0.066291258 0 1 1 127.97528,236.42725 z"
       transform="matrix(40.730028,0,0,40.730028,-4741.7783,-9078.4871)" />
    <path
       style="fill:none;fill-rule:evenodd;stroke:#ff7f00;stroke-width:1.35002255;stroke-linecap:butt;stroke-linejoin:miter;stroke-miterlimit:4;stroke-dasharray:none;stroke-opacity:1;display:inline"
       d="M 428.56401,571.42832 L 509.31964,537.09321"
       id="path3364"
       sodipodi:nodetypes="cc" />
    <rect
       style="fill:#ff7f00;fill-opacity:1;stroke:none;stroke-width:0.12500001;stroke-linecap:butt;stroke-linejoin:miter;stroke-miterlimit:4;stroke-dasharray:none;stroke-dashoffset:0;stroke-opacity:1;display:inline"
       id="rect4000"
       width="35.126961"
       height="17.238232"
       x="613.23193"
       y="9.4518919"
       transform="matrix(0.586891,0.8096659,-0.8096659,0.586891,0,0)" />
  </g>
  <g
     inkscape:groupmode="layer"
     id="layer4"
     inkscape:label="Vilages">
    <g
       inkscape:groupmode="layer"
       id="layer5"
       inkscape:label="Daigan"
       style="display:inline">
      <path
         style="fill:#7f7f7f;fill-opacity:1;fill-rule:evenodd;stroke:none;stroke-width:1px;stroke-linecap:butt;stroke-linejoin:miter;stroke-opacity:1"
         d="M 42.920652,607.69127 L 126.3083,633.72915 L 49.183129,670.64391 L 42.920652,607.69127 z"
         id="path3377" />
      <path
         style="fill:#7f7f7f;fill-opacity:1;fill-rule:evenodd;stroke:none;stroke-width:1px;stroke-linecap:butt;stroke-linejoin:miter;stroke-opacity:1"
         d="M 58.082205,686.46455 L 119.05731,658.44887 L 76.869125,698.98925 L 58.082205,686.46455 z"
         id="path3379" />
    </g>
    <g
       inkscape:groupmode="layer"
       id="layer6"
       inkscape:label="South Bridge">
      <path
         style="fill:#7f7f7f;fill-opacity:1;fill-rule:evenodd;stroke:none;stroke-width:1px;stroke-linecap:butt;stroke-linejoin:miter;stroke-opacity:1;display:inline"
         d="M 557.76385,747.54443 L 528.86446,777.84216 C 503.82965,759.71919 488.07813,743.79 485.20879,737.36552 L 557.76385,747.54443 z"
         id="path3375"
         sodipodi:nodetypes="cccc" />
    </g>
    <g
       inkscape:groupmode="layer"
       id="layer7"
       inkscape:label="Glancor">
      <path
         style="fill:#7f7f7f;fill-opacity:1;fill-rule:evenodd;stroke:none;stroke-width:0.05;stroke-linecap:butt;stroke-linejoin:miter;stroke-miterlimit:4;stroke-dasharray:none;stroke-opacity:1;display:inline"
         d="M 668.93307,101.50467 L 700.86219,93.34758 C 714.32703,172.97865 660.95498,181.93929 645.02633,195.1803 C 643.6728,170.71384 700.7739,148.56674 668.93307,101.50467 z"
         id="path3373"
         sodipodi:nodetypes="cccc" />
    </g>
  </g>
</svg>
