<?xml version="1.0" encoding="UTF-8" standalone="no"?>
<!-- Created with Inkscape (http://www.inkscape.org/) -->
<svg
   xmlns:dc="http://purl.org/dc/elements/1.1/"
   xmlns:cc="http://creativecommons.org/ns#"
   xmlns:rdf="http://www.w3.org/1999/02/22-rdf-syntax-ns#"
   xmlns:svg="http://www.w3.org/2000/svg"
   xmlns="http://www.w3.org/2000/svg"
   xmlns:xlink="http://www.w3.org/1999/xlink"
   xmlns:sodipodi="http://sodipodi.sourceforge.net/DTD/sodipodi-0.dtd"
   xmlns:inkscape="http://www.inkscape.org/namespaces/inkscape"
   width="744.09448"
   height="1052.3622"
   id="svg8656"
   sodipodi:version="0.32"
   inkscape:version="0.46"
   sodipodi:docname="vector.svg"
   inkscape:output_extension="org.inkscape.output.svg.inkscape"
   version="1.0">
  <defs
     id="defs8658">
    <inkscape:perspective
       sodipodi:type="inkscape:persp3d"
       inkscape:vp_x="0 : 526.18109 : 1"
       inkscape:vp_y="0 : 1000 : 0"
       inkscape:vp_z="744.09448 : 526.18109 : 1"
       inkscape:persp3d-origin="372.04724 : 350.78739 : 1"
       id="perspective8664" />
  </defs>
  <sodipodi:namedview
     id="base"
     pagecolor="#ffffff"
     bordercolor="#666666"
     borderopacity="1.0"
     gridtolerance="10"
     guidetolerance="10"
     objecttolerance="10"
     inkscape:pageopacity="0.0"
     inkscape:pageshadow="2"
     inkscape:zoom="0.35355339"
     inkscape:cx="315.84379"
     inkscape:cy="850.97269"
     inkscape:document-units="px"
     inkscape:current-layer="layer8"
     showgrid="false"
     inkscape:window-width="1334"
     inkscape:window-height="992"
     inkscape:window-x="-5"
     inkscape:window-y="82"
     inkscape:snap-bbox="false"
     inkscape:object-paths="true"
     inkscape:object-nodes="true"
     inkscape:snap-intersection-line-segments="true"
     inkscape:snap-center="true"
     showborder="false"
     inkscape:showpageshadow="true" />
  <metadata
     id="metadata8661">
    <rdf:RDF>
      <cc:Work
         rdf:about="">
        <dc:format>image/svg+xml</dc:format>
        <dc:type
           rdf:resource="http://purl.org/dc/dcmitype/StillImage" />
      </cc:Work>
    </rdf:RDF>
  </metadata>
  <g
     inkscape:groupmode="layer"
     id="layer8"
     inkscape:label="bg"
     style="display:inline"
     sodipodi:insensitive="true">
    <rect
       style="fill:#007f00;fill-opacity:1;stroke:none;stroke-width:0.05;stroke-linecap:butt;stroke-linejoin:miter;stroke-miterlimit:4;stroke-dasharray:none;stroke-dashoffset:0;stroke-opacity:1;display:inline"
       id="rect3394"
       width="905.91986"
       height="960.51501"
       x="-117.51533"
       y="-68.388702" />
  </g>
  <g
     inkscape:label="Picture"
     inkscape:groupmode="layer"
     id="layer1"
     style="display:inline"
     sodipodi:insensitive="true">
    <image
       style="display:inline"
       y="-460.28192"
       x="12.760137"
       id="image3859"
       height="1241.5587"
       width="819.23309"
       sodipodi:absref="/home/joe/wot/far-madding.jpg"
       xlink:href="bw.jpg"
       transform="matrix(0.8717884,0.4898826,-0.4898826,0.8717884,0,0)" />
    <flowRoot
       xml:space="preserve"
       id="flowRoot3434"
       style="font-size:64px;font-style:normal;font-weight:normal;fill:#000000;fill-opacity:1;stroke:none;stroke-width:1px;stroke-linecap:butt;stroke-linejoin:miter;stroke-opacity:1;display:inline;font-family:Bitstream Vera Sans;-inkscape-font-specification:Sans"
       transform="translate(-4.2426407,57.275649)"><flowRegion
         id="flowRegion3436"><rect
           id="rect3438"
           width="432"
           height="198"
           x="510"
           y="842.36218"
           style="font-size:64px" /></flowRegion><flowPara
         id="flowPara3440">100px:1mile</flowPara></flowRoot>  </g>
  <g
     inkscape:groupmode="layer"
     id="layer2"
     inkscape:label="Water"
     style="display:inline">
    <path
       style="fill:#0000ff;fill-opacity:1;fill-rule:evenodd;stroke:#0000ff;stroke-width:0.45900765;stroke-linecap:butt;stroke-linejoin:miter;stroke-miterlimit:4;stroke-dasharray:none;stroke-opacity:1;display:inline"
       d="M 346.19517,-272.44278 L 315.10686,-286.36421 C 315.10686,-286.36421 329.3388,-214.67262 334.42298,-183.101 C 337.34983,-164.9108 342.92541,-142.06031 345.77667,-125.87354 C 348.4119,-110.9288 347.72609,-89.40673 351.60605,-74.734694 C 355.46712,-60.130157 362.18214,-41.71045 371.5243,-26.663086 C 375.20986,-20.720301 379.37601,-14.923293 383.03729,-12.544551 C 385.41333,-11.000131 383.72579,-5.8727525 382.41088,-3.3617168 C 380.68824,-0.075744483 374.38904,2.3947786 370.76289,3.1912921 C 366.83702,4.0526215 358.40207,2.5027909 350.91485,4.1687278 C 345.42026,5.3918377 340.54398,7.4492686 337.61713,7.8164806 C 331.62033,8.5589986 333.51577,4.3739107 327.68366,5.9507497 C 320.80666,7.8056815 312.73351,14.115679 305.6405,14.774488 C 295.78804,15.695202 283.48663,8.7668866 273.75027,10.521921 C 265.94173,11.928637 260.44714,15.905816 253.26502,19.275476 C 247.64354,21.913417 239.02499,29.543737 232.29649,31.293362 C 225.56797,33.040303 217.98355,30.861355 211.82744,31.954876 C 206.97816,32.816184 200.50345,37.468381 194.63626,38.794093 C 189.23076,40.011814 184.47328,38.148788 180.23961,39.768802 C 170.58425,43.457068 162.19791,56.152677 151.88643,55.434462 C 145.92473,55.018665 127.96404,47.261439 121.11943,38.947986 C 116.31605,33.107802 113.3109,21.832413 112.01217,14.380289 C 110.58656,6.2045605 113.92651,-3.5993183 113.9454,-11.899247 C 113.95891,-18.616968 110.24095,-32.627491 108.51022,-39.11841 C 104.77876,-53.118133 98.336443,-65.465445 91.157022,-78.047653 C 87.56597,-84.344146 79.779052,-99.175507 79.779052,-99.175507 L 71.835516,-87.14139 C 71.835516,-87.14139 87.096156,-75.496105 94.073078,-57.4949 C 97.129521,-49.610769 104.61675,-37.420076 105.96137,-19.518768 C 106.62559,-10.722038 102.21102,2.5783846 102.49182,11.394029 C 102.77803,20.441885 108.29421,33.434502 112.8141,41.278142 C 119.32659,52.577813 142.32288,57.783512 141.02416,70.762624 C 140.38156,77.210326 126.79222,77.22924 122.74486,82.291824 C 117.08556,89.374032 114.19112,102.70146 114.65823,109.40836 C 114.98763,114.11185 113.5809,121.50728 109.27704,123.4351 C 104.80845,125.43314 95.91721,126.30795 91.435137,124.34231 C 82.732894,120.51636 69.621466,107.29694 61.713053,102.02103 C 50.054242,94.247621 32.625453,90.751055 21.458076,82.283709 C 13.266139,76.076314 0.095326308,55.202271 0.095326308,55.202271 L -2.3806283,63.820805 C -2.3806283,63.820805 11.111495,82.66713 19.122531,89.20393 C 29.218007,97.447158 45.231965,99.380409 56.744955,105.496 C 62.209854,108.39855 69.742982,115.93977 77.6541,121.76377 C 86.329356,128.14938 93.746378,129.3563 94.245885,135.73651 C 94.864202,143.57744 73.604033,138.52566 56.985262,157.71216 C 37.14804,180.61126 45.396678,196.18241 36.996831,197.87804 C 30.14411,199.25777 19.619332,178.29731 9.353776,173.49122 C 2.4362602,170.25388 -6.8707961,171.13949 -15.11134,169.81107 C -22.398752,168.63926 -28.592664,165.09949 -35.326574,164.56759 C -41.633866,164.06808 -57.407538,164.89158 -57.407538,164.89158 L -59.699865,175.93747 C -59.699865,175.93747 -46.529053,169.63017 -33.965738,169.88128 C -27.766437,170.00816 -22.752459,174.00424 -16.482954,175.33806 C -7.2325979,177.3091 2.5550503,175.22466 8.6247622,177.93281 C 14.691769,180.63825 10.39328,183.72441 24.177021,194.62178 C 27.444079,197.20302 31.110725,199.68437 31.067529,203.50763 C 30.954127,213.44919 17.2001,212.9767 12.753128,221.86523 C 6.7671253,233.82914 7.9092526,263.34602 3.7187758,276.04974 C 2.2283509,280.5696 -1.0630103,276.88675 -4.2301499,281.44983 C -6.0958808,284.13367 -5.2885682,289.44736 -7.1813075,291.5075 C -20.913737,306.42793 -51.713154,316.18859 -65.237674,340.42961 C -68.863828,346.9286 -65.467181,349.54226 -68.429117,357.88 C -71.636769,366.90894 -78.146581,372.46294 -78.41658,380.51717 C -78.824283,392.63227 -74.509628,411.7837 -68.439916,425.28662 C -61.417114,440.92259 -52.623068,450.93165 -55.566111,464.65328 C -57.599238,474.14124 -73.464714,480.30814 -76.094539,489.64489 C -79.609998,502.138 -76.116159,518.33286 -69.150036,529.27884 C -64.011837,537.35738 -52.512351,544.66909 -43.505007,547.90916 C -29.065162,553.09595 -6.2578886,556.4143 11.870222,556.8112 C 21.833382,557.0272 24.522614,555.40448 32.757769,560.06475 C 32.757769,560.06475 35.287698,565.97785 35.287698,565.97785 C 34.564094,572.61457 27.498075,582.27262 22.332888,587.10302 C 17.926408,591.21788 10.063875,597.66288 1.9421428,602.06126 C -2.556119,604.4967 -5.9770907,607.97165 -8.8310351,609.70238 C -20.371013,616.7009 -28.873462,618.50452 -33.317728,631.24064 C -37.670213,643.71215 -36.533496,663.99218 -33.344736,676.8066 C -30.342288,688.8623 -23.719075,707.97321 -15.416441,717.21006 C -11.811885,721.22234 -2.7937205,721.56255 0.25192391,726.01491 C 3.9725866,731.46091 2.1797443,733.84504 5.7789118,739.37203 C 11.422006,748.03108 29.358395,756.94932 38.306355,762.11721 C 44.219448,765.53007 48.77982,762.82463 53.437406,763.90194 C 57.255261,764.78755 59.274906,768.05461 62.82815,768.93213 C 72.777828,771.38107 81.266772,773.641 91.51073,773.61402 C 101.06619,773.5924 114.08042,766.08357 122.36146,770.85185 C 125.96872,772.93091 127.14593,776.50575 130.13758,779.40291 C 132.82951,782.01384 136.75809,785.1918 139.23943,788.00255 C 144.86902,794.38546 139.66334,809.4652 145.49273,815.6645 C 181.37364,853.80805 260.82515,867.92658 313.08183,864.47321 C 325.38322,863.66051 338.42174,849.18557 350.68266,847.88955 C 360.81321,846.81762 373.76802,855.35517 383.6178,852.74693 C 386.77144,851.9126 390.3139,850.33038 392.09324,847.59524 C 396.22161,841.26633 393.21916,823.19492 397.10181,816.70943 C 402.01589,808.50129 416.28834,806.03615 420.80551,797.5985 C 426.44051,787.07372 427.67983,773.87051 424.06987,762.48982 C 418.85337,746.02764 393.27586,731.79571 379.88363,720.89294 C 370.46857,713.22481 366.56161,706.7393 356.33923,698.08026 C 354.36822,696.41432 347.8233,696.93003 346.44898,695.04 C 344.93696,692.96368 342.1856,692.22655 341.7698,689.69391 C 340.19566,680.08714 349.18411,668.08545 358.16177,664.31888 C 358.16177,664.31888 364.39617,663.30368 364.39617,663.30368 C 365.89469,663.42247 368.93224,663.25778 371.1382,664.10558 C 379.30312,664.4512 406.69778,670.4723 419.8281,672.00322 C 436.33617,673.92836 454.16996,677.37361 470.37294,673.68264 C 479.59899,671.58201 492.4188,666.71654 499.57662,660.53072 C 505.91363,655.05773 510.8142,646.74971 516.83531,639.24897 C 521.03929,634.01088 526.76337,629.70702 529.79012,624.71194 C 533.8834,617.95643 538.97027,607.14274 540.99801,599.51242 C 543.87086,588.71494 535.51151,583.42826 538.10625,577.28834 C 539.45629,574.0996 542.86644,570.72453 544.31367,567.57899 C 546.6195,562.5596 545.6124,556.903 546.70321,551.48671 C 547.31612,548.45187 550.41307,545.09571 550.83697,542.02847 C 551.49848,537.23588 548.74175,532.5783 549.51396,527.80463 C 549.98375,524.91017 550.65877,520.906 552.727,518.82427 C 556.05346,515.47891 559.42312,514.32601 563.29768,512.31716 C 572.09443,507.75949 582.45449,502.59699 591.55096,496.94851 C 596.12213,494.10536 598.67368,492.83365 601.69502,488.38127 C 606.7468,480.94265 609.40364,486.78014 616.31035,475.12674 C 621.14884,466.96452 613.13242,449.91643 616.44267,441.02248 C 617.78189,437.42873 622.17757,436.91842 625.56071,433.81335 C 629.26248,430.4167 631.4063,423.9798 634.84078,421.89536 C 639.70084,418.94691 648.44899,420.94225 653.42247,418.1882 C 656.20353,416.65188 656.67873,413.95723 658.07196,411.10058 C 658.81987,409.56426 663.63944,404.74737 663.81766,402.21474 C 664.00936,399.4661 662.16252,398.36446 662.43252,395.98843 C 662.76463,393.03997 664.28745,392.32178 664.11465,389.61632 C 663.83114,385.27736 662.32183,382.607 661.69541,378.97275 C 661.33632,376.91532 662.88074,372.50613 660.15099,368.07267 C 658.06655,364.68682 655.67972,361.29286 653.57368,358.96002 C 650.85474,355.95216 649.87191,358.56041 647.57417,355.87386 C 645.02265,352.88492 645.32234,350.12277 643.77251,348.43794 C 638.85843,343.09454 634.65986,345.37339 629.74309,340.0381 C 624.6751,334.53541 627.87466,329.12721 622.09656,324.37514 C 618.82141,321.68321 614.90364,317.32263 611.46918,314.63608 C 608.42354,312.25734 605.85039,311.52023 603.09364,309.7328 C 598.85726,306.97875 596.78903,302.92868 592.99007,300.52025 C 590.23063,298.7706 587.55218,299.85333 585.65946,297.63389 C 582.6597,294.11843 580.91007,288.62925 581.45009,284.03648 C 581.97659,279.55709 584.74684,274.00311 588.53501,271.55146 C 594.2672,267.83889 603.88206,266.68867 610.90486,264.65825 C 618.66479,262.41451 624.0757,262.30111 631.40091,260.95918 C 636.25559,260.06816 642.66821,257.99993 648.5813,256.74711 C 657.18365,254.92728 663.67996,254.03628 671.84759,252.62145 C 679.78031,251.24981 689.01986,248.82519 696.99041,245.33672 C 700.79476,243.67349 705.96536,242.8986 708.9003,240.74666 C 712.53996,238.08441 713.25277,236.35907 715.70171,232.65462 C 719.71397,226.57681 724.83326,217.75307 728.81314,209.82304 C 735.11234,197.27323 746.86023,185.34174 747.76475,173.69104 C 748.02666,170.30788 747.04113,168.85526 745.49671,165.8366 C 742.55367,160.07201 740.59884,151.15377 736.00066,144.98416 C 733.2979,141.36071 729.07234,139.05756 727.50901,135.5961 C 725.80528,131.82144 723.45355,121.96897 719.56547,120.54875 C 681.25725,106.56792 696.4666,108.88185 683.48478,105.7228 C 663.42885,100.84112 666.02628,105.22059 656.10093,104.15138 C 646.76957,103.14695 651.41094,98.375987 630.18858,100.32541 C 620.60343,101.20292 611.26127,109.34086 602.05682,112.16241 C 594.6533,114.43585 585.28684,112.46212 578.55564,116.29078 C 572.73973,119.59564 569.11358,129.48321 563.06008,132.32904 C 559.53921,133.98418 553.63962,135.2127 549.90816,136.30622 C 542.72874,138.40684 534.0643,149.73355 528.1701,145.12186 C 525.94525,143.38033 525.14606,140.38598 525.22704,137.19724 C 525.22704,137.19724 525.48355,125.31163 525.48355,125.31163 C 525.97765,119.73335 526.96857,115.16756 528.09449,111.83301 C 530.26802,105.42041 533.36228,107.34823 537.48525,101.97784 C 541.33553,96.955767 544.94277,92.284677 549.11435,85.728963 C 552.68921,80.110172 560.54093,72.136943 560.50044,68.046384 C 560.42753,60.899361 559.88482,57.751114 558.39169,49.613172 C 556.92828,41.637238 557.85979,38.25139 547.48352,31.069265 C 526.50687,16.540322 520.31027,20.733482 506.05672,16.672616 C 499.84662,14.904098 497.47868,10.762228 493.16941,9.5985025 C 484.12696,7.1495563 479.8528,9.8955097 466.85207,7.8245746 C 459.69695,6.6824686 453.19525,2.0356819 446.89335,1.2256642 C 440.48884,0.39945852 436.95447,3.8474173 432.10521,1.862875 C 414.95722,-5.1491276 400.36887,-18.228158 389.57409,-33.283616 C 381.29844,-44.829004 375.37726,-66.027041 371.4892,-79.691971 C 364.23148,-105.23169 359.11488,-139.17667 353.99559,-165.3509 C 347.81789,-196.96572 346.19517,-272.44278 346.19517,-272.44278 z M 448.30816,156.93456 C 448.30816,156.93456 455.10688,166.0391 455.10688,166.0391 C 445.14102,181.60757 442.90269,201.40969 443.08627,214.48601 C 443.37248,234.90375 446.19944,253.72577 448.84008,273.92479 C 449.53938,279.28438 446.46405,293.96454 444.73871,298.93802 C 441.72816,307.60787 433.43092,318.68344 428.65454,326.51897 C 425.70339,331.35745 421.87203,336.92225 421.83692,342.58694 C 421.67492,369.24988 425.95181,362.35666 426.99672,374.19906 C 427.35582,378.25724 426.6835,388.82521 426.33521,395.14331 C 426.15701,398.35366 424.52618,401.55322 423.00065,402.94914 C 407.91009,416.76528 397.40693,420.94764 388.70198,431.46703 C 384.66272,436.346 381.73047,436.78881 381.90057,443.12041 C 382.14897,452.12507 391.78544,461.86413 393.01664,470.79047 C 393.85367,476.87098 390.2869,486.29144 390.17349,492.42863 C 390.0412,499.54325 394.49358,504.88664 392.30113,511.65565 C 390.26261,517.95216 383.80139,523.82476 381.41455,529.99976 C 379.71892,534.39813 380.71796,535.48626 379.31931,539.98993 C 377.75059,545.0552 372.4963,549.39959 371.20028,554.54047 C 370.78178,556.1902 372.52061,562.95651 372.07239,564.59543 C 370.66029,569.74982 365.7786,567.20098 363.92367,572.20686 C 362.70054,575.50361 360.77002,582.36713 359.3849,585.59638 C 357.61636,589.71395 359.51449,587.51611 350.02382,595.87276 C 350.02382,595.87276 344.87755,599.43412 344.87755,599.43412 C 338.46225,601.86145 336.82871,599.18031 334.85499,591.10448 C 333.23495,584.47585 330.80492,573.02497 330.2541,567.91649 C 329.71949,562.91331 333.14585,558.15853 333.74526,553.16615 C 334.87659,543.68088 330.23521,541.92587 327.85106,535.65095 C 326.98166,533.36401 327.50817,531.06898 326.38494,528.15833 C 325.14832,524.94527 322.36997,521.49461 320.64465,518.04665 C 319.08672,514.93621 318.5332,512.18487 317.12649,509.40652 C 315.65227,506.49317 315.33366,505.38075 313.53002,503.57172 C 309.97407,500.01307 299.85161,493.76246 296.53865,489.85009 C 291.94047,484.423 294.12751,481.66895 288.98392,479.73031 C 277.76794,475.50205 276.0642,478.97161 270.5345,481.95787 C 256.59689,489.48559 239.3571,503.41242 225.97567,511.08055 C 199.18854,526.4276 164.21215,539.67671 134.22545,547.01005 C 118.54899,550.84141 105.04607,556.4926 89.604508,554.97787 C 85.435629,554.57016 74.100856,552.47224 70.258677,551.58393 C 70.258677,551.58393 68.052742,545.0471 68.052742,545.0471 C 67.947456,537.9433 74.368149,531.8466 79.050039,526.7516 C 93.055172,511.50176 127.18103,494.00547 144.37492,482.46276 C 168.20551,466.4677 197.75481,448.7095 214.89469,425.68623 C 221.21009,417.20269 217.60013,411.55689 220.89149,404.45848 C 226.07557,393.29108 233.25499,380.28227 241.72233,367.71896 C 244.23069,363.99559 247.60844,360.87435 250.13566,357.14828 C 254.56645,350.61148 258.0576,343.24845 262.48839,337.40016 C 270.90442,326.28677 279.37986,320.79218 285.15257,310.08921 C 292.12137,297.16948 293.4309,279.59219 302.18984,267.81191 C 309.77426,257.61383 318.16869,247.76946 331.76074,236.56159 C 346.05208,224.77048 358.78008,219.3029 368.17083,209.79333 C 377.8127,200.02998 380.00783,190.0101 389.84409,181.50497 C 401.73509,171.2205 435.82855,160.94141 448.30816,156.93456 z"
       id="path4218"
       sodipodi:nodetypes="ccsssssssssssssssssssssssccsssssssssssccsssssssssccsssssssscsssssssssssssssssssssssssssssssssssssssscssssssssssssssssssssssssssssssssssssssssssssssssssssssssssssssssssssssssssccsssssssssssssssssssssssssssssssssssssssssssssssssss" />
  </g>
  <g
     inkscape:groupmode="layer"
     id="layer3"
     inkscape:label="City"
     style="display:inline">
    <path
       style="fill:none;fill-rule:evenodd;stroke:#000000;stroke-width:0.46491694px;stroke-linecap:butt;stroke-linejoin:miter;stroke-opacity:1;display:inline"
       d="M 35.368701,558.85783 L 73.115326,545.07141"
       id="path4212" />
    <path
       style="fill:none;fill-rule:evenodd;stroke:#000000;stroke-width:0.46491694px;stroke-linecap:butt;stroke-linejoin:miter;stroke-opacity:1;display:inline"
       d="M 344.16204,596.55317 L 360.77002,663.38469"
       id="path4214" />
    <path
       style="fill:none;fill-rule:evenodd;stroke:#000000;stroke-width:0.46491694px;stroke-linecap:butt;stroke-linejoin:miter;stroke-opacity:1;display:inline"
       d="M 450.77331,160.66871 L 527.13328,128.58409"
       id="path4216" />
    <path
       style="fill:none;fill-rule:evenodd;stroke:#ffffff;stroke-width:9.42023468px;stroke-linecap:butt;stroke-linejoin:miter;stroke-opacity:1;display:inline"
       d="M 447.63369,161.84053 L 537.89781,121.37605"
       id="path4004"
       sodipodi:nodetypes="cc" />
    <path
       style="fill:none;fill-rule:evenodd;stroke:#ffffff;stroke-width:9.42023468px;stroke-linecap:butt;stroke-linejoin:miter;stroke-opacity:1;display:inline"
       d="M 345.9797,598.67135 L 365.21537,675.77626"
       id="path4006"
       sodipodi:nodetypes="cc" />
    <path
       style="fill:none;fill-rule:evenodd;stroke:#ffffff;stroke-width:9.42023468px;stroke-linecap:butt;stroke-linejoin:miter;stroke-opacity:1;display:inline"
       d="M 68.880034,547.49848 C 68.880034,547.49848 28.607528,564.94671 28.607528,564.94671"
       id="path2988"
       sodipodi:nodetypes="cc" />
    <path
       style="fill:#000000;fill-opacity:1;fill-rule:evenodd;stroke:none;stroke-width:1px;stroke-linecap:butt;stroke-linejoin:miter;stroke-opacity:1"
       d="M 327.26624,667.16367 L 352.57916,667.16367 L 340.22401,687.35379 L 327.26624,667.16367 z"
       id="path2539" />
    <g
       style="display:inline"
       id="g3294"
       transform="matrix(27.000449,0,0,27.000449,-3184.2987,-5840.2612)">
      <path
         style="fill:#ffffff;fill-opacity:1;fill-rule:evenodd;stroke:none;stroke-width:0.0625;stroke-linecap:butt;stroke-linejoin:miter;stroke-miterlimit:4;stroke-dasharray:none;stroke-opacity:1"
         d="M 133.1875,228.96875 C 132.93876,228.98365 132.85878,229.08937 132.65625,229.21875 C 131.21566,230.55374 131.42339,232.17109 131.875,232.71875 C 132.37002,232.01821 133.40415,231.60802 133.60937,231.07422 C 133.88612,230.35443 133.56426,229.78684 133.1875,228.96875 z"
         id="path3292"
         sodipodi:nodetypes="cccsc" />
      <path
         sodipodi:nodetypes="cccsc"
         id="path3337"
         d="M 133.1875,228.96875 C 132.93876,228.98365 132.85878,229.08937 132.65625,229.21875 C 131.21566,230.55374 131.42339,232.17109 131.875,232.71875 C 132.37002,232.01821 133.40415,231.60802 133.60937,231.07422 C 133.88612,230.35443 133.56426,229.78684 133.1875,228.96875 z"
         style="fill:#007f00;fill-opacity:0.49803922;fill-rule:evenodd;stroke:none;stroke-width:0.0625;stroke-linecap:butt;stroke-linejoin:miter;stroke-miterlimit:4;stroke-dasharray:none;stroke-opacity:1" />
    </g>
    <g
       style="display:inline"
       id="g3300"
       transform="matrix(27.000449,0,0,27.000449,-3184.2987,-5840.2612)">
      <path
         style="fill:#ffffff;fill-opacity:1;fill-rule:evenodd;stroke:none;stroke-width:0.01721886px;stroke-linecap:butt;stroke-linejoin:miter;stroke-opacity:1;display:inline"
         d="M 129.4806,234.89364 C 129.4806,234.89364 132.4715,233.62199 132.4715,233.62199 C 132.5676,233.92643 132.42146,234.2432 132.39681,234.54927 C 132.39191,234.81277 132.55681,235.01067 132.47561,235.26137 C 132.4001,235.49457 132.16081,235.71207 132.07241,235.94077 C 132.00962,236.10367 132.04661,236.14397 131.99481,236.31077 C 131.93671,236.49838 131.74211,236.65927 131.69411,236.84967 C 131.67861,236.91077 131.74301,237.16137 131.72641,237.22207 C 131.67411,237.41298 131.49331,237.31857 131.42461,237.50397 C 131.37931,237.62607 131.30781,237.88027 131.25651,237.99987 C 131.191,238.15238 131.26131,238.07097 130.90981,238.38047 C 130.90981,238.38048 130.71921,238.51237 130.71921,238.51237 C 130.48161,238.60226 130.42111,238.50297 130.34801,238.20387 C 130.28801,237.95837 130.19801,237.53427 130.17761,237.34507 C 130.15781,237.15978 130.28471,236.98367 130.30691,236.79877 C 130.3488,236.44747 130.17691,236.38247 130.08861,236.15007 C 130.05641,236.06537 130.07591,235.98037 130.03431,235.87257 C 129.98852,235.75356 129.88561,235.62577 129.82171,235.49807 C 129.764,235.38288 129.74351,235.28097 129.69141,235.17807 C 129.63681,235.07017 129.62501,235.02897 129.55821,234.96197 C 129.53764,234.94139 129.51114,234.91837 129.4806,234.89364 z"
         id="path3298"
         sodipodi:nodetypes="cccsssssssscssssssssc" />
      <path
         sodipodi:nodetypes="cccsssssssscssssssssc"
         id="path3348"
         d="M 129.4806,234.89364 C 129.4806,234.89364 132.4715,233.62199 132.4715,233.62199 C 132.5676,233.92643 132.42146,234.2432 132.39681,234.54927 C 132.39191,234.81277 132.55681,235.01067 132.47561,235.26137 C 132.4001,235.49457 132.16081,235.71207 132.07241,235.94077 C 132.00962,236.10367 132.04661,236.14397 131.99481,236.31077 C 131.93671,236.49838 131.74211,236.65927 131.69411,236.84967 C 131.67861,236.91077 131.74301,237.16137 131.72641,237.22207 C 131.67411,237.41298 131.49331,237.31857 131.42461,237.50397 C 131.37931,237.62607 131.30781,237.88027 131.25651,237.99987 C 131.191,238.15238 131.26131,238.07097 130.90981,238.38047 C 130.90981,238.38048 130.71921,238.51237 130.71921,238.51237 C 130.48161,238.60226 130.42111,238.50297 130.34801,238.20387 C 130.28801,237.95837 130.19801,237.53427 130.17761,237.34507 C 130.15781,237.15978 130.28471,236.98367 130.30691,236.79877 C 130.3488,236.44747 130.17691,236.38247 130.08861,236.15007 C 130.05641,236.06537 130.07591,235.98037 130.03431,235.87257 C 129.98852,235.75356 129.88561,235.62577 129.82171,235.49807 C 129.764,235.38288 129.74351,235.28097 129.69141,235.17807 C 129.63681,235.07017 129.62501,235.02897 129.55821,234.96197 C 129.53764,234.94139 129.51114,234.91837 129.4806,234.89364 z"
         style="fill:#007f00;fill-opacity:0.49803922;fill-rule:evenodd;stroke:none;stroke-width:0.01721886px;stroke-linecap:butt;stroke-linejoin:miter;stroke-opacity:1;display:inline" />
    </g>
    <g
       style="display:inline"
       id="g3262"
       transform="matrix(27.000449,0,0,27.000449,-3184.2987,-5840.2612)">
      <path
         style="fill:#ffffff;fill-opacity:0.94117647;fill-rule:evenodd;stroke:none;stroke-width:0.0625;stroke-linecap:butt;stroke-linejoin:miter;stroke-miterlimit:4;stroke-dasharray:none;stroke-opacity:1"
         d="M 132.65713,225.59218 L 130.38386,229.68764 L 130.52749,231.4996 C 131.27356,231.47794 131.80095,228.2082 132.65713,225.59218 z"
         id="path3260"
         sodipodi:nodetypes="cccc" />
      <path
         sodipodi:nodetypes="cccc"
         id="path3327"
         d="M 132.65713,225.59218 L 130.38386,229.68764 L 130.52749,231.4996 C 131.27356,231.47794 131.80095,228.2082 132.65713,225.59218 z"
         style="fill:#ff7f00;fill-opacity:0.49803922;fill-rule:evenodd;stroke:none;stroke-width:0.0625;stroke-linecap:butt;stroke-linejoin:miter;stroke-miterlimit:4;stroke-dasharray:none;stroke-opacity:1" />
    </g>
    <g
       style="display:inline"
       id="g3282"
       transform="matrix(27.000449,0,0,27.000449,-3184.2987,-5840.2612)">
      <path
         style="fill:#ffffff;fill-opacity:1;fill-rule:evenodd;stroke:none;stroke-width:0.0625;stroke-linecap:butt;stroke-linejoin:miter;stroke-miterlimit:4;stroke-dasharray:none;stroke-opacity:1;display:inline"
         d="M 121.46205,235.96709 C 121.46205,235.96709 126.33649,232.97415 126.33649,232.97415 L 132.23791,225.35661 C 132.97506,224.4051 133.3543,223.21856 134.39732,222.31754 C 134.39732,222.31754 132.85278,222.75631 132.36607,223.2104 C 132.03427,223.51997 131.95116,224.19916 131.66295,224.54968 C 131.14421,225.18058 130.03157,225.60317 129.54241,226.25727 C 129.19012,226.72835 129.08714,227.55955 128.79445,228.06981 C 128.33714,228.86707 127.46541,229.75436 126.93987,230.50838 C 126.72318,230.81928 126.4258,231.23244 126.26118,231.57378 C 126.12848,231.84893 125.92972,232.53658 125.92972,232.53658 C 124.6937,233.99869 121.0815,235.87226 121.46205,235.96709 z"
         id="path3239"
         sodipodi:nodetypes="cssssssssssc" />
      <path
         sodipodi:nodetypes="cssssssssssc"
         id="path3311"
         d="M 121.46205,235.96709 C 121.46205,235.96709 126.33649,232.97415 126.33649,232.97415 L 132.23791,225.35661 C 132.97506,224.4051 133.3543,223.21856 134.39732,222.31754 C 134.39732,222.31754 132.85278,222.75631 132.36607,223.2104 C 132.03427,223.51997 131.95116,224.19916 131.66295,224.54968 C 131.14421,225.18058 130.03157,225.60317 129.54241,226.25727 C 129.19012,226.72835 129.08714,227.55955 128.79445,228.06981 C 128.33714,228.86707 127.46541,229.75436 126.93987,230.50838 C 126.72318,230.81928 126.4258,231.23244 126.26118,231.57378 C 126.12848,231.84893 125.92972,232.53658 125.92972,232.53658 C 124.6937,233.99869 121.0815,235.87226 121.46205,235.96709 z"
         style="fill:#ff7f00;fill-opacity:0.49803922;fill-rule:evenodd;stroke:none;stroke-width:0.0625;stroke-linecap:butt;stroke-linejoin:miter;stroke-miterlimit:4;stroke-dasharray:none;stroke-opacity:1;display:inline" />
    </g>
    <g
       style="display:inline"
       id="g3250"
       transform="matrix(27.000449,0,0,27.000449,-3184.2987,-5840.2612)">
      <path
         style="fill:#ffffff;fill-opacity:1;fill-rule:evenodd;stroke:none;stroke-width:0.0625;stroke-linecap:butt;stroke-linejoin:miter;stroke-miterlimit:4;stroke-dasharray:none;stroke-opacity:1;display:inline"
         d="M 121.3572,236.31676 L 126.49937,233.19885 L 129.88706,231.94089 C 130.17716,233.05148 130.68065,234.50214 129.51102,234.38327 C 129.06184,234.33762 129.01423,233.47182 128.43932,233.55463 C 127.92975,233.62802 127.16594,234.31303 125.83522,234.94519 C 124.05664,235.79011 121.66502,236.60145 121.3572,236.31676 z"
         id="path3210"
         sodipodi:nodetypes="cccsssc" />
      <path
         sodipodi:nodetypes="cccsssc"
         id="path3313"
         d="M 121.3572,236.31676 L 126.49937,233.19885 L 129.88706,231.94089 C 130.17716,233.05148 130.68065,234.50214 129.51102,234.38327 C 129.06184,234.33762 129.01423,233.47182 128.43932,233.55463 C 127.92975,233.62802 127.16594,234.31303 125.83522,234.94519 C 124.05664,235.79011 121.66502,236.60145 121.3572,236.31676 z"
         style="fill:#ff7f00;fill-opacity:0.49803922;fill-rule:evenodd;stroke:none;stroke-width:0.0625;stroke-linecap:butt;stroke-linejoin:miter;stroke-miterlimit:4;stroke-dasharray:none;stroke-opacity:1;display:inline" />
    </g>
    <g
       style="display:inline"
       id="g3278"
       transform="matrix(27.000449,0,0,27.000449,-3184.2987,-5840.2612)">
      <path
         style="fill:#ffffff;fill-opacity:1;fill-rule:evenodd;stroke:none;stroke-width:0.0625;stroke-linecap:butt;stroke-linejoin:miter;stroke-miterlimit:4;stroke-dasharray:none;stroke-opacity:1;display:inline"
         d="M 132.29526,225.52234 L 126.99196,232.52711 C 129.48802,230.83556 131.00399,228.46383 132.29526,225.52234 z"
         id="path3246"
         sodipodi:nodetypes="ccc" />
      <path
         sodipodi:nodetypes="ccc"
         id="path3315"
         d="M 132.29526,225.52234 L 126.99196,232.52711 C 129.48802,230.83556 131.00399,228.46383 132.29526,225.52234 z"
         style="fill:#ff7f00;fill-opacity:0.49803922;fill-rule:evenodd;stroke:none;stroke-width:0.0625;stroke-linecap:butt;stroke-linejoin:miter;stroke-miterlimit:4;stroke-dasharray:none;stroke-opacity:1;display:inline" />
    </g>
    <g
       style="display:inline"
       id="g3268"
       transform="matrix(27.000449,0,0,27.000449,-3184.2987,-5840.2612)">
      <path
         style="fill:#ffffff;fill-opacity:1;fill-rule:evenodd;stroke:none;stroke-width:0.0625;stroke-linecap:butt;stroke-linejoin:miter;stroke-miterlimit:4;stroke-dasharray:none;stroke-opacity:1;display:inline"
         d="M 127.03371,232.84818 C 128.29881,231.99659 129.34338,231.00323 130.19604,229.88651 L 130.36176,231.58799 L 127.03371,232.84818 z"
         id="path3266"
         sodipodi:nodetypes="cccc" />
      <path
         sodipodi:nodetypes="cccc"
         id="path3317"
         d="M 127.03371,232.84818 C 128.29881,231.99659 129.34338,231.00323 130.19604,229.88651 L 130.36176,231.58799 L 127.03371,232.84818 z"
         style="fill:#ff7f00;fill-opacity:0.49803922;fill-rule:evenodd;stroke:none;stroke-width:0.0625;stroke-linecap:butt;stroke-linejoin:miter;stroke-miterlimit:4;stroke-dasharray:none;stroke-opacity:1;display:inline" />
    </g>
    <g
       style="display:inline"
       id="g3288"
       transform="matrix(27.000449,0,0,27.000449,-3184.2987,-5840.2612)">
      <path
         style="fill:#ffffff;fill-opacity:1;fill-rule:evenodd;stroke:none;stroke-width:0.0625;stroke-linecap:butt;stroke-linejoin:miter;stroke-miterlimit:4;stroke-dasharray:none;stroke-opacity:1;display:inline"
         d="M 130.85895,234.18439 L 130.53892,231.96323 C 131.64916,231.53381 131.69485,229.00707 132.8429,225.69657 L 132.83376,224.95911 C 133.40506,224.00506 133.96577,222.97161 134.59336,222.43979 L 134.00778,224.38434 C 133.94654,225.34411 134.16216,226.18874 134.14037,226.85921 C 134.11982,227.49135 133.52165,228.25869 133.21229,228.95843 C 132.29247,229.08032 130.99982,231.18115 131.79807,232.6376 L 132.31736,233.65406 L 130.85895,234.18439 z"
         id="path3286"
         sodipodi:nodetypes="ccccccscccc" />
      <path
         sodipodi:nodetypes="ccccccscccc"
         id="path3329"
         d="M 130.85895,234.18439 L 130.53892,231.96323 C 131.64916,231.53381 131.69485,229.00707 132.8429,225.69657 L 132.83376,224.95911 C 133.40506,224.00506 133.96577,222.97161 134.59336,222.43979 L 134.00778,224.38434 C 133.94654,225.34411 134.16216,226.18874 134.14037,226.85921 C 134.11982,227.49135 133.52165,228.25869 133.21229,228.95843 C 132.29247,229.08032 130.99982,231.18115 131.79807,232.6376 L 132.31736,233.65406 L 130.85895,234.18439 z"
         style="fill:#ff7f00;fill-opacity:0.49803922;fill-rule:evenodd;stroke:none;stroke-width:0.0625;stroke-linecap:butt;stroke-linejoin:miter;stroke-miterlimit:4;stroke-dasharray:none;stroke-opacity:1;display:inline" />
    </g>
    <path
       sodipodi:type="arc"
       style="fill:#ff7f00;fill-opacity:1;stroke:none;stroke-width:0.35141531;stroke-linecap:butt;stroke-linejoin:miter;stroke-miterlimit:4;stroke-dasharray:none;stroke-dashoffset:0;stroke-opacity:1;display:inline"
       id="path3931"
       sodipodi:cx="8194.749"
       sodipodi:cy="-3915.8584"
       sodipodi:rx="1.2374369"
       sodipodi:ry="1.5909903"
       d="M 8195.9865,-3915.8584 A 1.2374369,1.5909903 0 1 1 8193.5116,-3915.8584 A 1.2374369,1.5909903 0 1 1 8195.9865,-3915.8584 z"
       transform="matrix(9.6789615,5.4388813,-4.0700044,7.2429272,-94919.873,-15850.033)" />
    <rect
       style="fill:#ff7f00;fill-opacity:1;stroke:none;stroke-width:0.125;stroke-linecap:butt;stroke-linejoin:miter;stroke-miterlimit:4;stroke-dasharray:none;stroke-dashoffset:0;stroke-opacity:1;display:inline"
       id="rect3996"
       width="35.126957"
       height="17.238232"
       x="447.74692"
       y="6.701725"
       transform="matrix(0.8717884,0.4898826,-0.4898826,0.8717884,0,0)" />
    <rect
       style="fill:#ff7f00;fill-opacity:1;stroke:none;stroke-width:0.125;stroke-linecap:butt;stroke-linejoin:miter;stroke-miterlimit:4;stroke-dasharray:none;stroke-dashoffset:0;stroke-opacity:1;display:inline"
       id="rect3998"
       width="35.126961"
       height="17.238232"
       x="165.5195"
       y="494.14447"
       transform="matrix(0.9441302,-0.3295727,0.3295727,0.9441302,0,0)" />
    <path
       sodipodi:type="arc"
       style="fill:#ff7f00;fill-opacity:1;stroke:none;stroke-width:0.0625;stroke-linecap:butt;stroke-linejoin:miter;stroke-miterlimit:4;stroke-dasharray:none;stroke-dashoffset:0;stroke-opacity:1;display:inline"
       id="path3333"
       sodipodi:cx="127.90899"
       sodipodi:cy="236.42725"
       sodipodi:rx="0.066291258"
       sodipodi:ry="0.066291258"
       d="M 127.97528,236.42725 A 0.066291258,0.066291258 0 1 1 127.8427,236.42725 A 0.066291258,0.066291258 0 1 1 127.97528,236.42725 z"
       transform="matrix(40.730028,0,0,40.730028,-4874.2869,-9140.8331)" />
    <path
       sodipodi:type="arc"
       style="fill:#ff7f00;fill-opacity:1;stroke:none;stroke-width:0.0625;stroke-linecap:butt;stroke-linejoin:miter;stroke-miterlimit:4;stroke-dasharray:none;stroke-dashoffset:0;stroke-opacity:1;display:inline"
       id="path3335"
       sodipodi:cx="127.90899"
       sodipodi:cy="236.42725"
       sodipodi:rx="0.066291258"
       sodipodi:ry="0.066291258"
       d="M 127.97528,236.42725 A 0.066291258,0.066291258 0 1 1 127.8427,236.42725 A 0.066291258,0.066291258 0 1 1 127.97528,236.42725 z"
       transform="matrix(40.730028,0,0,40.730028,-4858.6067,-9147.9429)" />
    <path
       style="fill:none;fill-rule:evenodd;stroke:#ff7f00;stroke-width:1.35002255;stroke-linecap:butt;stroke-linejoin:miter;stroke-miterlimit:4;stroke-dasharray:none;stroke-opacity:1;display:inline"
       d="M 311.73558,501.97248 L 392.49121,467.63737"
       id="path3364"
       sodipodi:nodetypes="cc" />
    <rect
       style="fill:#ff7f00;fill-opacity:1;stroke:none;stroke-width:0.12500001;stroke-linecap:butt;stroke-linejoin:miter;stroke-miterlimit:4;stroke-dasharray:none;stroke-dashoffset:0;stroke-opacity:1;display:inline"
       id="rect4000"
       width="35.126961"
       height="17.238232"
       x="488.43088"
       y="63.280857"
       transform="matrix(0.586891,0.8096659,-0.8096659,0.586891,0,0)" />
  </g>
  <g
     inkscape:groupmode="layer"
     id="layer4"
     inkscape:label="Vilages">
    <g
       inkscape:groupmode="layer"
       id="layer5"
       inkscape:label="Daigan"
       style="display:inline">
      <path
         style="fill:#7f7f7f;fill-opacity:1;fill-rule:evenodd;stroke:none;stroke-width:1px;stroke-linecap:butt;stroke-linejoin:miter;stroke-opacity:1"
         d="M -73.907775,538.23543 L 9.479872,564.27331 L -67.645298,601.18807 L -73.907775,538.23543 z"
         id="path3377" />
      <path
         style="fill:#7f7f7f;fill-opacity:1;fill-rule:evenodd;stroke:none;stroke-width:1px;stroke-linecap:butt;stroke-linejoin:miter;stroke-opacity:1"
         d="M -58.746222,617.00871 L 2.2288834,588.99303 L -39.959302,629.53341 L -58.746222,617.00871 z"
         id="path3379" />
    </g>
    <g
       inkscape:groupmode="layer"
       id="layer6"
       inkscape:label="South Bridge">
      <path
         style="fill:#7f7f7f;fill-opacity:1;fill-rule:evenodd;stroke:none;stroke-width:1px;stroke-linecap:butt;stroke-linejoin:miter;stroke-opacity:1;display:inline"
         d="M 440.93542,678.08859 L 412.03603,708.38632 C 387.00122,690.26335 371.2497,674.33416 368.38036,667.90968 L 440.93542,678.08859 z"
         id="path3375"
         sodipodi:nodetypes="cccc" />
    </g>
    <g
       inkscape:groupmode="layer"
       id="layer7"
       inkscape:label="Glancor">
      <path
         style="fill:#7f7f7f;fill-opacity:1;fill-rule:evenodd;stroke:none;stroke-width:0.05;stroke-linecap:butt;stroke-linejoin:miter;stroke-miterlimit:4;stroke-dasharray:none;stroke-opacity:1;display:inline"
         d="M 552.10464,32.04883 L 584.03376,23.89174 C 597.4986,103.52281 544.12655,112.48345 528.1979,125.72446 C 526.84437,101.258 583.94547,79.110903 552.10464,32.04883 z"
         id="path3373"
         sodipodi:nodetypes="cccc" />
    </g>
  </g>
</svg>
