<?xml version="1.0" encoding="UTF-8" standalone="no"?>
<!-- Created with Inkscape (http://www.inkscape.org/) -->
<svg
   xmlns:dc="http://purl.org/dc/elements/1.1/"
   xmlns:cc="http://creativecommons.org/ns#"
   xmlns:rdf="http://www.w3.org/1999/02/22-rdf-syntax-ns#"
   xmlns:svg="http://www.w3.org/2000/svg"
   xmlns="http://www.w3.org/2000/svg"
   xmlns:xlink="http://www.w3.org/1999/xlink"
   xmlns:sodipodi="http://sodipodi.sourceforge.net/DTD/sodipodi-0.dtd"
   xmlns:inkscape="http://www.inkscape.org/namespaces/inkscape"
   width="744.09448"
   height="1052.3622"
   id="svg3874"
   sodipodi:version="0.32"
   inkscape:version="0.46"
   sodipodi:docname="tar-valon.svg"
   inkscape:output_extension="org.inkscape.output.svg.inkscape"
   version="1.0">
  <defs
     id="defs3876">
    <inkscape:perspective
       sodipodi:type="inkscape:persp3d"
       inkscape:vp_x="0 : 526.18109 : 1"
       inkscape:vp_y="0 : 1000 : 0"
       inkscape:vp_z="744.09448 : 526.18109 : 1"
       inkscape:persp3d-origin="372.04724 : 350.78739 : 1"
       id="perspective3882" />
    <inkscape:perspective
       id="perspective3891"
       inkscape:persp3d-origin="372.04724 : 350.78739 : 1"
       inkscape:vp_z="744.09448 : 526.18109 : 1"
       inkscape:vp_y="0 : 1000 : 0"
       inkscape:vp_x="0 : 526.18109 : 1"
       sodipodi:type="inkscape:persp3d" />
    <inkscape:perspective
       id="perspective3917"
       inkscape:persp3d-origin="372.04724 : 350.78739 : 1"
       inkscape:vp_z="744.09448 : 526.18109 : 1"
       inkscape:vp_y="0 : 1000 : 0"
       inkscape:vp_x="0 : 526.18109 : 1"
       sodipodi:type="inkscape:persp3d" />
  </defs>
  <sodipodi:namedview
     id="base"
     pagecolor="#ffffff"
     bordercolor="#666666"
     borderopacity="1.0"
     gridtolerance="10000"
     guidetolerance="10"
     objecttolerance="10"
     inkscape:pageopacity="0.0"
     inkscape:pageshadow="2"
     inkscape:zoom="1"
     inkscape:cx="409.46169"
     inkscape:cy="1004.6313"
     inkscape:document-units="px"
     inkscape:current-layer="layer1"
     showgrid="false"
     inkscape:window-width="1443"
     inkscape:window-height="1030"
     inkscape:window-x="369"
     inkscape:window-y="77"
     showguides="true"
     inkscape:guide-bbox="true" />
  <metadata
     id="metadata3879">
    <rdf:RDF>
      <cc:Work
         rdf:about="">
        <dc:format>image/svg+xml</dc:format>
        <dc:type
           rdf:resource="http://purl.org/dc/dcmitype/StillImage" />
      </cc:Work>
    </rdf:RDF>
  </metadata>
  <g
     inkscape:groupmode="layer"
     id="layer3"
     inkscape:label="Map"
     style="display:inline"
     sodipodi:insensitive="true">
    <image
       y="132.44437"
       x="-233.82613"
       id="image3919"
       height="1010"
       width="740"
       sodipodi:absref="/home/joe/wot/tar-valon/tar-valon.color.png"
       xlink:href="tar-valon.color.png"
       transform="matrix(0.9189085,-0.3944707,0.3944707,0.9189085,0,0)" />
  </g>
  <g
     inkscape:label="River"
     inkscape:groupmode="layer"
     id="layer1"
     style="display:inline">
    <path
       id="path3946"
       style="fill:#0000ff;fill-opacity:0.49803922;fill-rule:evenodd;stroke:#0000ff;stroke-width:1px;stroke-linecap:butt;stroke-linejoin:miter;stroke-opacity:1"
       d="M 35.400508,96.998978 C 35.400508,96.998978 56.812872,129.48331 58.144132,145.49825 C 58.434262,148.98849 54.936963,153.23964 55.000684,156.74134 C 55.086544,161.45971 59.469332,167.01814 59.784698,171.72674 C 59.978482,174.62005 57.874214,178.35359 58.099255,181.24464 C 58.335097,184.27444 61.196026,187.79296 61.387836,190.82587 C 61.813661,197.55902 56.376318,206.11511 56.824977,212.84677 C 57.047175,216.18062 59.84348,220.08257 60.512035,223.35624 C 62.87576,234.93054 60.845678,251.05091 63.088916,262.64917 C 64.547712,270.19162 69.677728,279.42724 71.061891,286.98374 C 74.241257,304.3407 75.204835,328.15578 73.74993,345.74145 C 73.382495,350.1827 70.491622,355.81345 70.641622,360.26734 C 71.063249,372.78657 80.423933,388.0042 82.105874,400.41709 C 83.672764,411.98089 81.676285,427.64471 81.764448,439.31385 C 81.861276,452.12993 80.828146,469.35696 82.784868,482.02316 C 82.784868,482.02316 84.345906,491.87867 84.345906,491.87867 C 86.790348,498.25118 94.968425,516.41917 98.427344,522.30305 C 100.6638,526.10744 104.92128,530.38559 106.89034,534.33501 C 109.06327,538.69336 109.86154,545.34961 111.87359,549.78453 C 113.04226,552.36047 116.28477,555.07763 116.71978,557.87263 C 117.71946,564.29579 112.49849,572.50706 111.75846,578.96529 C 111.25223,583.38313 110.77142,589.4617 111.80051,593.78774 C 112.39766,596.29803 114.85223,599.02515 115.65166,601.47853 C 117.82633,608.15245 118.29285,617.6429 119.51206,624.55549 C 121.60311,636.41118 123.20264,652.53245 126.83091,664.01136 C 130.73648,676.36756 140.99089,696.76401 149.66897,710.79505 C 149.66897,710.79505 155.46252,717.69066 155.46252,717.69066 C 163.45471,731.54828 177.50043,759.84428 182.43065,775.06275 C 185.92563,785.85095 188.03602,802.18117 191.34997,813.02635 C 196.35361,829.40118 205.28658,850.68996 214.0959,865.37217 C 218.25643,872.30639 224.7172,881.2191 230.85431,886.48496 C 237.6275,892.2966 248.40036,893.83097 255.10372,899.72301 C 259.14753,903.27739 260.99589,911.87016 265.92244,914.04159 C 268.1806,915.0369 271.16556,915.50839 273.40535,916.54437 C 276.7768,918.10379 279.43247,923.3638 282.80575,924.91927 C 284.61166,925.752 288.59382,927.95305 290.5292,928.41026 C 290.5292,928.41026 298.42994,931.27087 298.42994,931.27087 C 301.2692,933.70177 305.73394,935.97742 308.15986,938.82094 C 315.65786,947.60966 321.69843,960.84022 331.05868,967.61129 C 335.65964,970.93956 338.96799,969.35198 343.68788,972.50932 C 347.73423,975.2161 352.25265,982.39028 356.50498,984.76037 C 361.72077,987.66745 376.16724,988.74002 380.80061,992.50665 C 384.09321,995.18333 385.20199,1001.3999 386.61133,1005.4024 C 391.38656,1018.9639 391.27581,1025.2957 399.40854,1043.9062 C 401.27136,1048.169 398.96406,1057.2863 402.13291,1065.2467 C 404.88589,1072.1624 413.51997,1087.2911 413.51997,1087.2911 C 413.51997,1087.2911 727.39792,954.19795 727.39792,954.19795 C 727.39792,954.19795 718.38051,934.41115 717.99863,929.1016 C 717.61675,923.79205 720.17682,923.67846 719.85049,920.61152 C 719.52416,917.54458 715.49606,914.07041 714.93633,909.80434 C 714.3766,905.53827 716.17284,900.18508 717.71183,893.22276 C 719.25082,886.26044 726.1817,872.91944 725.88455,863.60607 C 725.5874,854.2927 720.44142,845.01408 715.62034,833.93414 C 710.79926,822.8542 695.24363,802.78653 693.81877,792.98338 C 692.39391,783.18023 696.11204,778.62597 695.92055,773.95972 C 695.72906,769.29347 692.21324,764.04714 691.96631,760.26705 C 691.71938,756.48696 693.73567,758.54625 693.61778,749.38962 C 693.49989,740.23299 684.5702,710.76744 684.834,700.1193 C 685.0978,689.47116 689.58073,686.4112 689.53045,679.68999 C 689.4808,673.05214 681.51341,669.94789 683.50481,650.60483 C 683.50481,650.60483 684.65258,639.66984 684.65258,639.66984 C 687.31656,628.60726 677.17104,611.39696 672.67293,603.92976 C 668.17482,596.46256 657.98471,588.92079 655.05193,582.08797 C 652.11915,575.25515 654.33141,562.02451 648.86179,558.38137 C 642.68893,554.26983 641.26682,550.84852 638.18351,543.43366 C 635.01584,535.81592 616.94819,527.4251 614.49384,520.89914 C 612.03949,514.37318 616.84835,510.42202 615.74567,507.1702 C 614.64299,503.91838 610.5103,501.68987 608.86681,497.55879 C 598.62959,471.82649 577.675,479.60803 561.15209,458.6805 C 561.15209,458.6805 555.55592,447.97179 555.55592,447.97179 C 545.19494,439.15063 502.14396,419.5681 489.67675,404.91442 C 471.44559,383.48594 448.21543,375.56272 440.59216,363.04081 C 433.97921,352.17843 420.15737,353.95256 414.52105,343.52467 C 408.94122,333.20127 396.22861,312.13959 389.89962,302.73499 C 389.89962,302.73499 383.60026,291.71327 383.60026,291.71327 C 372.67088,259.9195 365.45065,268.9401 358.50418,252.35816 C 344.33086,218.52498 344.83638,229.75072 337.92278,215.46031 C 328.52276,196.0305 320.89644,192.29414 317.1785,182.97931 C 303.53507,148.79744 304.90916,181.8474 283.79181,136.5755 C 280.71971,129.98945 274.59813,121.60251 273.06383,115.61462 C 271.56623,109.76997 274.4467,106.38607 272.92613,102.45983 C 269.50071,93.615125 263.59849,79.408538 257.09942,67.831747 C 257.09942,67.831747 243.19638,48.267578 239.16985,41.095117 C 237.49614,38.113734 233.59081,31.157175 233.59081,31.157175 C 233.59081,31.157175 35.400508,96.998978 35.400508,96.998978 z M 135.5,205.61219 C 135.5,205.61219 122.9164,185.3623 130.375,167.61219 L 136.19336,168.43019 C 127.0321,251.83422 238.38674,203.72228 171.43695,154.24217 L 173.90792,148.00657 C 191.58304,152.83774 202.625,179.86219 202.625,179.86219 L 232,252.36219 L 258,222.36219 C 259.60899,259.14502 287.22985,280.23481 301.03159,315.25844 C 313.0365,345.7224 293.33941,372.9883 344,417.86218 L 348.5,422.36218 C 377.63892,471.63 416.24473,505.54044 464,534.86218 L 470.5,540.36218 C 545.74551,573.79687 559.47901,600.39688 576.5,627.36218 L 577.5,638.36218 C 577.5,638.36218 585.64428,657.21356 585.5,668.36218 C 585.1004,699.23956 554.09555,735.02346 552.5,765.86218 C 551.13309,792.28176 575.74562,825.67377 572,851.86218 C 569.81344,867.15005 550,902.36218 550,902.36218 C 550,902.36218 572.58411,921.81455 569.09786,953.67897 L 557.87023,951.59322 C 557.92032,868.05444 450.69851,920.1972 516.26992,968.04682 L 511.75,977.36218 C 483.32982,964.36844 482,937.86218 482,937.86218 C 482,937.86218 415.73979,902.60918 394.25,884.86218 C 367.13723,862.47153 317.5,795.86218 317.5,795.86218 L 310,790.36218 C 288.97718,758.18494 265.00055,710.25402 240,656.86218 L 235.5,651.36218 C 213.46476,619.95793 190.05388,591.14311 190,518.36218 L 190.5,511.36218 C 173.2635,470.03025 162.92899,424.13844 154.9344,376.46189 C 150.2407,348.47054 145.67765,319.9636 141.8581,291.3101 C 141.12304,285.79586 127.77588,269.296 124.98652,251.03698 C 122.39318,234.06112 128.16761,214.13247 135.5,205.61219 z"
       sodipodi:nodetypes="csssssssssssssccsssssssssccssssssssccssssssssssssssssssssssccsssssssccsssccsssssscsccccccccccsccccccsssccccccsccccccsssc" />
  </g>
  <g
     inkscape:groupmode="layer"
     id="layer5"
     inkscape:label="City">
    <g
       inkscape:groupmode="layer"
       id="layer6"
       inkscape:label="Walls">
      <path
         style="fill:none;fill-opacity:0.49803922;fill-rule:evenodd;stroke:#000000;stroke-width:1px;stroke-linecap:butt;stroke-linejoin:miter;stroke-opacity:1;display:inline"
         d="M 310,790.36218 C 288.97718,758.18494 265.00055,710.25402 240,656.86218 M 235.5,651.36218 C 213.46476,619.95793 190.05388,591.14311 190,518.36218 M 190.5,511.36218 C 173.2635,470.03025 162.92899,424.13844 154.9344,376.46189 C 150.2407,348.47054 145.67765,319.9636 141.8581,291.3101 C 141.12304,285.79586 127.77588,269.296 124.98652,251.03698 C 122.43535,234.33712 128.21494,215.08228 135.44596,205.33187 M 348.5,422.36218 C 377.63892,471.63 416.24473,505.54044 464,534.86218 M 470.5,540.36218 C 545.74551,573.79687 559.47901,600.39688 576.5,627.36218 M 577.5,638.36218 C 577.5,638.36218 585.64428,657.21356 585.5,668.36218 C 585.1004,699.23956 554.09555,735.02346 552.5,765.86218 C 551.13309,792.28176 575.74562,825.67377 572,851.86218 C 569.81344,867.15005 550,902.36218 550,902.36218 M 482,937.86218 C 482,937.86218 420.28473,901.61848 397,881.86218 C 370.20906,859.13097 317.5,795.86218 317.5,795.86218 M 202.5961,180.0802 C 202.5961,180.0802 208.26409,182.77685 208.26409,182.77685 C 226.08731,197.20263 219.86684,226.09385 233.70711,250.51384 L 256.58579,225.01384 C 255.7199,240.93702 287.22985,280.23481 301.03159,315.25844 C 313.0365,345.7224 289.98065,369.80632 340.64124,414.6802"
         id="path3758"
         sodipodi:nodetypes="cccccsssscccccsssccscccccsc" />
    </g>
    <rect
       style="fill:#ffffff;fill-opacity:0.49803922;stroke:none;stroke-width:1;stroke-linecap:butt;stroke-linejoin:miter;stroke-miterlimit:4;stroke-dasharray:none;stroke-dashoffset:0;stroke-opacity:1"
       id="rect2541"
       width="60.25"
       height="77.5"
       x="0.80591017"
       y="650.55353"
       transform="matrix(0.8872965,-0.4611994,0.4611994,0.8872965,0,0)" />
  </g>
  <g
     inkscape:groupmode="layer"
     id="layer2"
     inkscape:label="Roads">
    <path
       style="fill:none;fill-rule:evenodd;stroke:#000000;stroke-width:1px;stroke-linecap:butt;stroke-linejoin:miter;stroke-opacity:1"
       d="M -40.305085,507.18287 L 84.852811,485.96967 L 192.33304,514.96104 L 244.55723,539.10807"
       id="path2493"
       sodipodi:nodetypes="cccc" />
    <path
       style="fill:none;fill-rule:evenodd;stroke:#000000;stroke-width:1px;stroke-linecap:butt;stroke-linejoin:miter;stroke-opacity:1"
       d="M 543.7651,-12.540602 L 476.58996,158.57923 L 383.25187,301.4148 L 345.0681,417.38031 L 344.22841,444.95747"
       id="path2495"
       sodipodi:nodetypes="ccccc" />
    <path
       style="fill:none;fill-rule:evenodd;stroke:#000000;stroke-width:1px;stroke-linecap:butt;stroke-linejoin:miter;stroke-opacity:1"
       d="M 683.77224,291.51531 L 557.20013,454.85697 L 467.39757,536.17425 L 448.57085,547.53215"
       id="path2497"
       sodipodi:nodetypes="cccc" />
    <path
       style="fill:none;fill-rule:evenodd;stroke:#000000;stroke-width:1px;stroke-linecap:butt;stroke-linejoin:miter;stroke-opacity:1"
       d="M 890.95452,749.01338 L 683.06513,645.06869 L 574.8778,631.63366 L 443.55481,624.03226"
       id="path2499"
       sodipodi:nodetypes="cccc" />
    <path
       style="fill:none;fill-rule:evenodd;stroke:#000000;stroke-width:1px;stroke-linecap:butt;stroke-linejoin:miter;stroke-opacity:1"
       d="M 328.80464,696.68748 L 316.78383,794.26821 L 289.91377,930.03271 L 287.08535,997.20786 L 194.45436,1128.0226 L 193.74725,1128.0226"
       id="path2501" />
    <path
       style="fill:none;fill-rule:evenodd;stroke:#000000;stroke-width:1px;stroke-linecap:butt;stroke-linejoin:miter;stroke-opacity:1"
       d="M 507.70266,903.16266 L 429.2138,747.59917"
       id="path2503" />
    <path
       style="fill:none;fill-rule:evenodd;stroke:#000000;stroke-width:1px;stroke-linecap:butt;stroke-linejoin:miter;stroke-opacity:1"
       d="M 443.51062,623.98807 L 429.32429,747.54392"
       id="path2505"
       sodipodi:nodetypes="cc" />
    <path
       style="fill:none;fill-rule:evenodd;stroke:#000000;stroke-width:1px;stroke-linecap:butt;stroke-linejoin:miter;stroke-opacity:1"
       d="M 328.80465,697.21781 L 429.26905,747.62126"
       id="path2507"
       sodipodi:nodetypes="cc" />
    <path
       style="fill:none;fill-rule:evenodd;stroke:#000000;stroke-width:1px;stroke-linecap:butt;stroke-linejoin:miter;stroke-opacity:1"
       d="M 429.29114,747.58811 L 367.69552,633.04787"
       id="path2509"
       sodipodi:nodetypes="cc" />
    <path
       style="fill:none;fill-rule:evenodd;stroke:#000000;stroke-width:1px;stroke-linecap:butt;stroke-linejoin:miter;stroke-opacity:1"
       d="M 443.62111,623.94387 L 393.85847,613.95599"
       id="path2511"
       sodipodi:nodetypes="cc" />
    <path
       style="fill:none;fill-rule:evenodd;stroke:#000000;stroke-width:1px;stroke-linecap:butt;stroke-linejoin:miter;stroke-opacity:1"
       d="M 449.05699,547.17859 L 443.57691,624.01016"
       id="path2513"
       sodipodi:nodetypes="cc" />
    <path
       style="fill:none;fill-rule:evenodd;stroke:#000000;stroke-width:1px;stroke-linecap:butt;stroke-linejoin:miter;stroke-opacity:1"
       d="M 449.18957,547.22279 L 379.00922,584.96461"
       id="path2515"
       sodipodi:nodetypes="cc" />
    <path
       style="fill:none;fill-rule:evenodd;stroke:#000000;stroke-width:1px;stroke-linecap:butt;stroke-linejoin:miter;stroke-opacity:1"
       d="M 449.05699,547.44376 L 344.36099,444.95747"
       id="path2517"
       sodipodi:nodetypes="cc" />
    <path
       style="fill:none;fill-rule:evenodd;stroke:#000000;stroke-width:1px;stroke-linecap:butt;stroke-linejoin:miter;stroke-opacity:1"
       d="M 352.84627,546.78085 L 344.36099,444.95747 L 176.06958,218.68331"
       id="path2519" />
    <path
       style="fill:none;fill-rule:evenodd;stroke:#000000;stroke-width:1px;stroke-linecap:butt;stroke-linejoin:miter;stroke-opacity:1"
       d="M 176.06958,218.68331 L 324.562,560.21588"
       id="path2521" />
    <path
       style="fill:none;fill-rule:evenodd;stroke:#000000;stroke-width:1px;stroke-linecap:butt;stroke-linejoin:miter;stroke-opacity:1"
       d="M 176.06958,218.68331 L 244.65894,539.00267"
       id="path2523" />
    <path
       style="fill:none;fill-rule:evenodd;stroke:#000000;stroke-width:1px;stroke-linecap:butt;stroke-linejoin:miter;stroke-opacity:1"
       d="M 244.65894,539.00267 L 299.10616,577.18644"
       id="path2525" />
    <path
       style="fill:none;fill-rule:evenodd;stroke:#000000;stroke-width:1px;stroke-linecap:butt;stroke-linejoin:miter;stroke-opacity:1"
       d="M 244.65894,539.00267 L 246.84644,650.80397"
       id="path2527"
       sodipodi:nodetypes="cc" />
    <path
       style="fill:none;fill-rule:evenodd;stroke:#000000;stroke-width:1px;stroke-linecap:butt;stroke-linejoin:miter;stroke-opacity:1"
       d="M 246.80355,650.59318 L 318.19804,617.49152"
       id="path2529"
       sodipodi:nodetypes="cc" />
    <path
       style="fill:none;fill-rule:evenodd;stroke:#000000;stroke-width:1px;stroke-linecap:butt;stroke-linejoin:miter;stroke-opacity:1"
       d="M 246.86237,650.76108 L 328.89303,697.08523"
       id="path2531"
       sodipodi:nodetypes="cc" />
    <path
       style="fill:none;fill-rule:evenodd;stroke:#000000;stroke-width:1px;stroke-linecap:butt;stroke-linejoin:miter;stroke-opacity:1"
       d="M 340.11835,647.19001 L 328.89303,697.12942"
       id="path2537"
       sodipodi:nodetypes="cc" />
    <path
       style="fill:none;fill-rule:evenodd;stroke:#000000;stroke-width:1px;stroke-linecap:butt;stroke-linejoin:miter;stroke-opacity:1"
       d="M 246.86605,650.59686 L 238.88077,655.79661 L 152.02795,714.36515 C 152.02795,714.36515 124.6356,757.78521 118.79393,778.71186 C 108.67538,814.95962 110.30866,903.86976 110.30866,903.86976"
       id="path2539"
       sodipodi:nodetypes="cccsc" />
  </g>
</svg>
