<?xml version="1.0" encoding="UTF-8" standalone="no"?>
<!-- Created with Inkscape (http://www.inkscape.org/) -->
<svg
   xmlns:dc="http://purl.org/dc/elements/1.1/"
   xmlns:cc="http://creativecommons.org/ns#"
   xmlns:rdf="http://www.w3.org/1999/02/22-rdf-syntax-ns#"
   xmlns:svg="http://www.w3.org/2000/svg"
   xmlns="http://www.w3.org/2000/svg"
   xmlns:xlink="http://www.w3.org/1999/xlink"
   xmlns:sodipodi="http://sodipodi.sourceforge.net/DTD/sodipodi-0.dtd"
   xmlns:inkscape="http://www.inkscape.org/namespaces/inkscape"
   width="744.09448819"
   height="1052.3622047"
   id="svg3874"
   sodipodi:version="0.32"
   inkscape:version="0.46"
   sodipodi:docname="tar-valon.svg"
   inkscape:output_extension="org.inkscape.output.svg.inkscape">
  <defs
     id="defs3876">
    <inkscape:perspective
       sodipodi:type="inkscape:persp3d"
       inkscape:vp_x="0 : 526.18109 : 1"
       inkscape:vp_y="0 : 1000 : 0"
       inkscape:vp_z="744.09448 : 526.18109 : 1"
       inkscape:persp3d-origin="372.04724 : 350.78739 : 1"
       id="perspective3882" />
    <inkscape:perspective
       id="perspective3891"
       inkscape:persp3d-origin="372.04724 : 350.78739 : 1"
       inkscape:vp_z="744.09448 : 526.18109 : 1"
       inkscape:vp_y="0 : 1000 : 0"
       inkscape:vp_x="0 : 526.18109 : 1"
       sodipodi:type="inkscape:persp3d" />
    <inkscape:perspective
       id="perspective3917"
       inkscape:persp3d-origin="372.04724 : 350.78739 : 1"
       inkscape:vp_z="744.09448 : 526.18109 : 1"
       inkscape:vp_y="0 : 1000 : 0"
       inkscape:vp_x="0 : 526.18109 : 1"
       sodipodi:type="inkscape:persp3d" />
  </defs>
  <sodipodi:namedview
     id="base"
     pagecolor="#ffffff"
     bordercolor="#666666"
     borderopacity="1.0"
     gridtolerance="10000"
     guidetolerance="10"
     objecttolerance="10"
     inkscape:pageopacity="0.0"
     inkscape:pageshadow="2"
     inkscape:zoom="1.4142136"
     inkscape:cx="118.60545"
     inkscape:cy="462.1549"
     inkscape:document-units="px"
     inkscape:current-layer="layer6"
     showgrid="false"
     inkscape:window-width="1676"
     inkscape:window-height="1030"
     inkscape:window-x="164"
     inkscape:window-y="105" />
  <metadata
     id="metadata3879">
    <rdf:RDF>
      <cc:Work
         rdf:about="">
        <dc:format>image/svg+xml</dc:format>
        <dc:type
           rdf:resource="http://purl.org/dc/dcmitype/StillImage" />
      </cc:Work>
    </rdf:RDF>
  </metadata>
  <g
     inkscape:groupmode="layer"
     id="layer3"
     inkscape:label="Map"
     style="display:inline"
     sodipodi:insensitive="true">
    <image
       y="132.44437"
       x="-233.82613"
       id="image3919"
       height="1010"
       width="740"
       sodipodi:absref="/home/joe/wot/tar-valon/tar-valon.color.png"
       xlink:href="wot/tar-valon/tar-valon.color.png"
       transform="matrix(0.9189085,-0.3944707,0.3944707,0.9189085,0,0)" />
  </g>
  <g
     inkscape:label="River"
     inkscape:groupmode="layer"
     id="layer1"
     style="display:inline"
     sodipodi:insensitive="true">
    <path
       id="path3946"
       style="fill:#0000ff;fill-opacity:0.49803922;fill-rule:evenodd;stroke:#0000ff;stroke-width:1px;stroke-linecap:butt;stroke-linejoin:miter;stroke-opacity:1"
       d="M 35.400508,96.998978 C 35.400508,96.998978 56.812872,129.48331 58.144132,145.49825 C 58.434262,148.98849 54.936963,153.23964 55.000684,156.74134 C 55.086544,161.45971 59.469332,167.01814 59.784698,171.72674 C 59.978482,174.62005 57.874214,178.35359 58.099255,181.24464 C 58.335097,184.27444 61.196026,187.79296 61.387836,190.82587 C 61.813661,197.55902 56.376318,206.11511 56.824977,212.84677 C 57.047175,216.18062 59.84348,220.08257 60.512035,223.35624 C 62.87576,234.93054 60.845678,251.05091 63.088916,262.64917 C 64.547712,270.19162 69.677728,279.42724 71.061891,286.98374 C 74.241257,304.3407 75.204835,328.15578 73.74993,345.74145 C 73.382495,350.1827 70.491622,355.81345 70.641622,360.26734 C 71.063249,372.78657 80.423933,388.0042 82.105874,400.41709 C 83.672764,411.98089 81.676285,427.64471 81.764448,439.31385 C 81.861276,452.12993 80.828146,469.35696 82.784868,482.02316 C 82.784868,482.02316 84.345906,491.87867 84.345906,491.87867 C 86.790348,498.25118 94.968425,516.41917 98.427344,522.30305 C 100.6638,526.10744 104.92128,530.38559 106.89034,534.33501 C 109.06327,538.69336 109.86154,545.34961 111.87359,549.78453 C 113.04226,552.36047 116.28477,555.07763 116.71978,557.87263 C 117.71946,564.29579 112.49849,572.50706 111.75846,578.96529 C 111.25223,583.38313 110.77142,589.4617 111.80051,593.78774 C 112.39766,596.29803 114.85223,599.02515 115.65166,601.47853 C 117.82633,608.15245 118.29285,617.6429 119.51206,624.55549 C 121.60311,636.41118 123.20264,652.53245 126.83091,664.01136 C 130.73648,676.36756 140.99089,696.76401 149.66897,710.79505 C 149.66897,710.79505 155.46252,717.69066 155.46252,717.69066 C 163.45471,731.54828 179.53336,760.63978 184.46358,775.85825 C 187.95856,786.64645 188.03602,802.18117 191.34997,813.02635 C 196.35361,829.40118 205.28658,850.68996 214.0959,865.37217 C 218.25643,872.30639 224.7172,881.2191 230.85431,886.48496 C 237.6275,892.2966 249.99135,895.33357 256.69471,901.22561 C 260.73852,904.77999 262.58688,913.37276 267.51343,915.54419 C 269.77159,916.5395 273.46366,913.74062 275.70345,914.7766 C 279.0749,916.33602 279.43247,923.3638 282.80575,924.91927 C 284.61166,925.752 288.59382,927.95305 290.5292,928.41026 C 290.5292,928.41026 298.42994,931.27087 298.42994,931.27087 C 301.2692,933.70177 305.292,937.21486 307.71792,940.05838 C 315.21592,948.8471 323.11264,962.78476 332.47289,969.55583 C 337.07385,972.8841 345.33195,973.41784 350.05184,976.57518 C 354.09819,979.28196 357.11401,985.83743 361.36634,988.20752 C 366.58213,991.1146 376.16724,988.74002 380.80061,992.50665 C 384.09321,995.18333 385.202,1001.3999 386.61133,1005.4024 C 392.77144,1022.8969 395.50747,1047.9231 402.13291,1065.2467 C 404.79186,1072.1991 406.51878,1084.7634 413.51997,1087.2911 C 509.72108,1122.0234 687.03268,1048.1747 727.39792,954.19795 C 730.57083,946.81092 718.38051,934.41115 717.99863,929.1016 C 717.61675,923.79205 720.17682,923.67846 719.85049,920.61152 C 719.52416,917.54458 715.49606,914.07041 714.93633,909.80434 C 714.3766,905.53827 716.17284,900.18508 717.71183,893.22276 C 719.25082,886.26044 726.1817,872.91944 725.88455,863.60607 C 725.5874,854.2927 720.44142,845.01408 715.62034,833.93414 C 710.79926,822.8542 694.00619,800.31166 692.58133,790.50851 C 691.15647,780.70536 696.11204,778.62597 695.92055,773.95972 C 695.72906,769.29347 692.21324,764.04714 691.96631,760.26705 C 691.71938,756.48696 693.73567,758.54625 693.61778,749.38962 C 693.49989,740.23299 684.5702,710.76744 684.834,700.1193 C 685.0978,689.47116 689.81292,686.40545 689.53045,679.68999 C 689.24798,672.97453 680.44638,669.59221 683.50481,650.60483 C 683.50481,650.60483 684.65258,639.66984 684.65258,639.66984 C 683.33908,631.43569 677.17104,611.39696 672.67293,603.92976 C 668.17482,596.46256 657.98471,588.92079 655.05193,582.08797 C 652.11915,575.25515 654.81817,566.80454 652.22055,560.76786 C 649.62293,554.73118 643.78007,549.49523 638.18351,543.43366 C 632.58695,537.37209 616.94819,527.4251 614.49384,520.89914 C 612.03949,514.37318 616.84835,510.42202 615.74567,507.1702 C 614.64299,503.91838 623.0405,508.03873 609.57392,500.47561 C 597.73621,493.8273 578.55888,471.12275 560.97531,459.03405 C 560.97531,459.03405 553.61138,452.4796 553.61138,452.4796 C 543.2504,443.65844 505.07948,416.44341 489.67675,404.91442 C 474.27402,393.38543 456.66266,379.20648 445.45352,369.75832 C 434.24438,360.31016 422.3106,351.37319 414.69783,342.28723 C 407.08506,333.20127 392.42791,313.28864 386.09892,303.88404 C 386.09892,303.88404 380.68344,296.75141 380.68344,296.75141 C 374.35026,286.87795 367.48575,267.93203 358.50418,252.35816 C 349.52261,236.78429 328.52383,200.27901 317.1785,182.97931 C 305.83317,165.67961 290.23669,149.40888 283.79181,136.5755 C 277.34693,123.74212 278.83296,106.51944 272.13063,99.808179 C 265.4283,93.096916 259.09068,76.580111 252.59161,65.00332 C 252.59161,65.00332 243.19638,48.267578 239.16985,41.095117 C 237.49614,38.113734 233.59081,31.157175 233.59081,31.157175 C 233.59081,31.157175 35.400508,96.998978 35.400508,96.998978 z M 128,201.36219 L 178,220.36219 L 203.5,171.86219 L 233,247.86219 L 258,222.36219 C 259.60899,259.14502 287.22985,280.23481 301.03159,315.25844 C 313.0365,345.7224 293.33941,372.9883 344,417.86218 L 348.5,422.36218 C 377.63892,471.63 416.24473,505.54044 464,534.86218 L 470.5,540.36218 C 545.74551,573.79687 559.47901,600.39688 576.5,627.36218 L 577.5,638.36218 C 577.5,638.36218 585.64428,657.21356 585.5,668.36218 C 585.1004,699.23956 554.09555,735.02346 552.5,765.86218 C 551.13309,792.28176 575.74562,825.67377 572,851.86218 C 569.81344,867.15005 550,902.36218 550,902.36218 L 507,904.36218 L 482,937.86218 C 482,937.86218 420.28473,901.61848 397,881.86218 C 370.20906,859.13097 317.5,795.86218 317.5,795.86218 L 310,790.36218 C 288.97718,758.18494 265.00055,710.25402 240,656.86218 L 235.5,651.36218 C 213.46476,619.95793 190.05388,591.14311 190,518.36218 L 190.5,511.36218 C 173.2635,470.03025 162.92899,424.13844 154.9344,376.46189 C 150.2407,348.47054 145.67765,319.9636 141.8581,291.3101 C 141.12304,285.79586 127.77588,269.296 124.98652,251.03698 C 122.39318,234.06112 130.41761,215.63247 128,201.36219 z" />
  </g>
  <g
     inkscape:groupmode="layer"
     id="layer4"
     inkscape:label="Island"
     style="display:inline"
     sodipodi:insensitive="true">
    <path
       sodipodi:nodetypes="cccccsccccccssscccsccccccsssc"
       id="path3754"
       d="M 128,201.36219 L 178,220.36219 L 203.5,171.86219 L 233,247.86219 L 258,222.36219 C 259.60899,259.14502 287.22985,280.23481 301.03159,315.25844 C 313.0365,345.7224 293.33941,372.9883 344,417.86218 L 348.5,422.36218 C 377.63892,471.63 416.24473,505.54044 464,534.86218 L 470.5,540.36218 C 545.74551,573.79687 559.47901,600.39688 576.5,627.36218 L 577.5,638.36218 C 577.5,638.36218 585.64428,657.21356 585.5,668.36218 C 585.1004,699.23956 554.09555,735.02346 552.5,765.86218 C 551.13309,792.28176 575.74562,825.67377 572,851.86218 C 569.81344,867.15005 550,902.36218 550,902.36218 L 507,904.36218 L 482,937.86218 C 482,937.86218 420.28473,901.61848 397,881.86218 C 370.20906,859.13097 317.5,795.86218 317.5,795.86218 L 310,790.36218 C 288.97718,758.18494 265.00055,710.25402 240,656.86218 L 235.5,651.36218 C 213.46476,619.95793 190.05388,591.14311 190,518.36218 L 190.5,511.36218 C 173.2635,470.03025 162.92899,424.13844 154.9344,376.46189 C 150.2407,348.47054 145.67765,319.9636 141.8581,291.3101 C 141.12304,285.79586 127.77588,269.296 124.98652,251.03698 C 122.39318,234.06112 130.41761,215.63247 128,201.36219 z"
       style="fill:#007f00;fill-opacity:0.49803922;fill-rule:evenodd;stroke:#007f00;stroke-width:1px;stroke-linecap:butt;stroke-linejoin:miter;stroke-opacity:1;display:inline" />
  </g>
  <g
     inkscape:groupmode="layer"
     id="layer5"
     inkscape:label="City">
    <g
       inkscape:groupmode="layer"
       id="layer6"
       inkscape:label="Walls">
      <path
         style="fill:none;fill-opacity:0.49803922;fill-rule:evenodd;stroke:#000000;stroke-width:1px;stroke-linecap:butt;stroke-linejoin:miter;stroke-opacity:1;display:inline"
         d="M 173.87355,147.97563 C 193.10157,154.194 195.26246,173.86565 201.3461,179.0802 C 202.42271,180.00301 205.68831,180.34601 207.38909,182.02685 C 223.50001,197.951 219.86684,226.09385 233.70711,250.51384 L 256.58579,225.01384 C 255.7199,240.93702 287.22985,280.23481 301.03159,315.25844 C 313.0365,345.7224 293.33941,372.9883 344,417.86218 L 348.5,422.36218 C 377.63892,471.63 416.24473,505.54044 464,534.86218 L 470.5,540.36218 C 545.74551,573.79687 559.47901,600.39688 576.5,627.36218 L 577.5,638.36218 C 577.5,638.36218 585.64428,657.21356 585.5,668.36218 C 585.1004,699.23956 554.09555,735.02346 552.5,765.86218 C 551.13309,792.28176 575.74562,825.67377 572,851.86218 C 569.81344,867.15005 550,902.36218 550,902.36218 C 550,902.36218 575.09306,922.59119 568.66025,953.08588 C 568.66025,953.08588 557.98389,951.19222 557.98389,951.19222 C 560.10755,864.27688 448.79324,928.13058 516.01883,969.29043 L 511.94975,977.72451 C 484.17695,965.80646 482,937.86218 482,937.86218 C 482,937.86218 420.28473,901.61848 397,881.86218 C 370.20906,859.13097 317.5,795.86218 317.5,795.86218 L 310,790.36218 C 288.97718,758.18494 265.00055,710.25402 240,656.86218 L 235.5,651.36218 C 213.46476,619.95793 190.05388,591.14311 190,518.36218 L 190.5,511.36218 C 173.2635,470.03025 162.92899,424.13844 154.9344,376.46189 C 150.2407,348.47054 145.67765,319.9636 141.8581,291.3101 C 141.12304,285.79586 127.77588,269.296 124.98652,251.03698 C 122.43535,234.33712 128.21494,215.08228 135.44596,205.33187 C 135.44596,205.33187 122.61986,185.6008 130.52979,167.58437 C 130.52979,167.58437 135.94533,168.50501 135.94533,168.50501 C 131.47557,260.99398 239.86664,193.2285 171.17585,154.53756 C 171.17585,154.53756 173.87355,147.97563 173.87355,147.97563 z"
         id="path3758"
         sodipodi:nodetypes="cssccsccccccsssccccccsccccccsssssssc" />
    </g>
  </g>
</svg>
